<svg width="387" height="70" viewBox="0 0 387 70" fill="none" xmlns="http://www.w3.org/2000/svg">
<rect width="39" height="70" fill="white"/>
<path d="M75.8 54.35C73.2333 54.35 70.9333 53.9333 68.9 53.1C66.8667 52.2667 65.2333 51.0333 64 49.4C62.8 47.7667 62.1667 45.8 62.1 43.5H71.2C71.3333 44.8 71.7833 45.8 72.55 46.5C73.3167 47.1667 74.3167 47.5 75.55 47.5C76.8167 47.5 77.8167 47.2167 78.55 46.65C79.2833 46.05 79.65 45.2333 79.65 44.2C79.65 43.3333 79.35 42.6167 78.75 42.05C78.1833 41.4833 77.4667 41.0167 76.6 40.65C75.7667 40.2833 74.5667 39.8667 73 39.4C70.7333 38.7 68.8833 38 67.45 37.3C66.0167 36.6 64.7833 35.5667 63.75 34.2C62.7167 32.8333 62.2 31.05 62.2 28.85C62.2 25.5833 63.3833 23.0333 65.75 21.2C68.1167 19.3333 71.2 18.4 75 18.4C78.8667 18.4 81.9833 19.3333 84.35 21.2C86.7167 23.0333 87.9833 25.6 88.15 28.9H78.9C78.8333 27.7667 78.4167 26.8833 77.65 26.25C76.8833 25.5833 75.9 25.25 74.7 25.25C73.6667 25.25 72.8333 25.5333 72.2 26.1C71.5667 26.6333 71.25 27.4167 71.25 28.45C71.25 29.5833 71.7833 30.4667 72.85 31.1C73.9167 31.7333 75.5833 32.4167 77.85 33.15C80.1167 33.9167 81.95 34.65 83.35 35.35C84.7833 36.05 86.0167 37.0667 87.05 38.4C88.0833 39.7333 88.6 41.45 88.6 43.55C88.6 45.55 88.0833 47.3667 87.05 49C86.05 50.6333 84.5833 51.9333 82.65 52.9C80.7167 53.8667 78.4333 54.35 75.8 54.35ZM97.3117 23.2C95.8117 23.2 94.5784 22.7667 93.6117 21.9C92.6784 21 92.2117 19.9 92.2117 18.6C92.2117 17.2667 92.6784 16.1667 93.6117 15.3C94.5784 14.4 95.8117 13.95 97.3117 13.95C98.7784 13.95 99.9784 14.4 100.912 15.3C101.878 16.1667 102.362 17.2667 102.362 18.6C102.362 19.9 101.878 21 100.912 21.9C99.9784 22.7667 98.7784 23.2 97.3117 23.2ZM101.562 26.1V54H93.0117V26.1H101.562ZM105.208 40C105.208 37.1333 105.741 34.6167 106.808 32.45C107.908 30.2833 109.391 28.6167 111.258 27.45C113.124 26.2833 115.208 25.7 117.508 25.7C119.341 25.7 121.008 26.0833 122.508 26.85C124.041 27.6167 125.241 28.65 126.108 29.95V17H134.658V54H126.108V50C125.308 51.3333 124.158 52.4 122.658 53.2C121.191 54 119.474 54.4 117.508 54.4C115.208 54.4 113.124 53.8167 111.258 52.65C109.391 51.45 107.908 49.7667 106.808 47.6C105.741 45.4 105.208 42.8667 105.208 40ZM126.108 40.05C126.108 37.9167 125.508 36.2333 124.308 35C123.141 33.7667 121.708 33.15 120.008 33.15C118.308 33.15 116.858 33.7667 115.658 35C114.491 36.2 113.908 37.8667 113.908 40C113.908 42.1333 114.491 43.8333 115.658 45.1C116.858 46.3333 118.308 46.95 120.008 46.95C121.708 46.95 123.141 46.3333 124.308 45.1C125.508 43.8667 126.108 42.1833 126.108 40.05ZM157.143 25.8C160.343 25.8 162.91 26.8667 164.843 29C166.777 31.1 167.743 34 167.743 37.7V54H159.243V38.85C159.243 36.9833 158.76 35.5333 157.793 34.5C156.827 33.4667 155.527 32.95 153.893 32.95C152.26 32.95 150.96 33.4667 149.993 34.5C149.027 35.5333 148.543 36.9833 148.543 38.85V54H139.993V17H148.543V29.85C149.41 28.6167 150.593 27.6333 152.093 26.9C153.593 26.1667 155.277 25.8 157.143 25.8ZM171.135 40C171.135 37.1333 171.668 34.6167 172.735 32.45C173.835 30.2833 175.318 28.6167 177.185 27.45C179.051 26.2833 181.135 25.7 183.435 25.7C185.401 25.7 187.118 26.1 188.585 26.9C190.085 27.7 191.235 28.75 192.035 30.05V26.1H200.585V54H192.035V50.05C191.201 51.35 190.035 52.4 188.535 53.2C187.068 54 185.351 54.4 183.385 54.4C181.118 54.4 179.051 53.8167 177.185 52.65C175.318 51.45 173.835 49.7667 172.735 47.6C171.668 45.4 171.135 42.8667 171.135 40ZM192.035 40.05C192.035 37.9167 191.435 36.2333 190.235 35C189.068 33.7667 187.635 33.15 185.935 33.15C184.235 33.15 182.785 33.7667 181.585 35C180.418 36.2 179.835 37.8667 179.835 40C179.835 42.1333 180.418 43.8333 181.585 45.1C182.785 46.3333 184.235 46.95 185.935 46.95C187.635 46.95 189.068 46.3333 190.235 45.1C191.435 43.8667 192.035 42.1833 192.035 40.05ZM214.47 30.75C215.47 29.2167 216.72 28.0167 218.22 27.15C219.72 26.25 221.387 25.8 223.22 25.8V34.85H220.87C218.737 34.85 217.137 35.3167 216.07 36.25C215.004 37.15 214.47 38.75 214.47 41.05V54H205.92V26.1H214.47V30.75ZM242.007 46.75V54H237.657C234.557 54 232.14 53.25 230.407 51.75C228.674 50.2167 227.807 47.7333 227.807 44.3V33.2H224.407V26.1H227.807V19.3H236.357V26.1H241.957V33.2H236.357V44.4C236.357 45.2333 236.557 45.8333 236.957 46.2C237.357 46.5667 238.024 46.75 238.957 46.75H242.007ZM263.07 25.8C266.27 25.8 268.836 26.8667 270.77 29C272.703 31.1 273.67 34 273.67 37.7V54H265.17V38.85C265.17 36.9833 264.686 35.5333 263.72 34.5C262.753 33.4667 261.453 32.95 259.82 32.95C258.186 32.95 256.886 33.4667 255.92 34.5C254.953 35.5333 254.47 36.9833 254.47 38.85V54H245.92V17H254.47V29.85C255.336 28.6167 256.52 27.6333 258.02 26.9C259.52 26.1667 261.203 25.8 263.07 25.8Z" fill="white"/>
</svg>
