<svg width="382" height="74" viewBox="0 0 382 74" fill="none" xmlns="http://www.w3.org/2000/svg">
<path d="M25.44 73.63C20.82 73.63 16.68 72.88 13.02 71.38C9.36 69.88 6.42 67.66 4.2 64.72C2.04 61.78 0.9 58.24 0.78 54.1H17.16C17.4 56.44 18.21 58.24 19.59 59.5C20.97 60.7 22.77 61.3 24.99 61.3C27.27 61.3 29.07 60.79 30.39 59.77C31.71 58.69 32.37 57.22 32.37 55.36C32.37 53.8 31.83 52.51 30.75 51.49C29.73 50.47 28.44 49.63 26.88 48.97C25.38 48.31 23.22 47.56 20.4 46.72C16.32 45.46 12.99 44.2 10.41 42.94C7.83 41.68 5.61 39.82 3.75 37.36C1.89 34.9 0.96 31.69 0.96 27.73C0.96 21.85 3.09 17.26 7.35 13.96C11.61 10.6 17.16 8.92 24 8.92C30.96 8.92 36.57 10.6 40.83 13.96C45.09 17.26 47.37 21.88 47.67 27.82H31.02C30.9 25.78 30.15 24.19 28.77 23.05C27.39 21.85 25.62 21.25 23.46 21.25C21.6 21.25 20.1 21.76 18.96 22.78C17.82 23.74 17.25 25.15 17.25 27.01C17.25 29.05 18.21 30.64 20.13 31.78C22.05 32.92 25.05 34.15 29.13 35.47C33.21 36.85 36.51 38.17 39.03 39.43C41.61 40.69 43.83 42.52 45.69 44.92C47.55 47.32 48.48 50.41 48.48 54.19C48.48 57.79 47.55 61.06 45.69 64C43.89 66.94 41.25 69.28 37.77 71.02C34.29 72.76 30.18 73.63 25.44 73.63ZM64.1611 17.56C61.4611 17.56 59.2411 16.78 57.5011 15.22C55.8211 13.6 54.9811 11.62 54.9811 9.28C54.9811 6.88 55.8211 4.9 57.5011 3.34C59.2411 1.72 61.4611 0.909995 64.1611 0.909995C66.8011 0.909995 68.9611 1.72 70.6411 3.34C72.3811 4.9 73.2511 6.88 73.2511 9.28C73.2511 11.62 72.3811 13.6 70.6411 15.22C68.9611 16.78 66.8011 17.56 64.1611 17.56ZM71.8111 22.78V73H56.4211V22.78H71.8111ZM78.3741 47.8C78.3741 42.64 79.3341 38.11 81.2541 34.21C83.2341 30.31 85.9041 27.31 89.2641 25.21C92.6241 23.11 96.3741 22.06 100.514 22.06C103.814 22.06 106.814 22.75 109.514 24.13C112.274 25.51 114.434 27.37 115.994 29.71V6.4H131.384V73H115.994V65.8C114.554 68.2 112.484 70.12 109.784 71.56C107.144 73 104.054 73.72 100.514 73.72C96.3741 73.72 92.6241 72.67 89.2641 70.57C85.9041 68.41 83.2341 65.38 81.2541 61.48C79.3341 57.52 78.3741 52.96 78.3741 47.8ZM115.994 47.89C115.994 44.05 114.914 41.02 112.754 38.8C110.654 36.58 108.074 35.47 105.014 35.47C101.954 35.47 99.3441 36.58 97.1841 38.8C95.0841 40.96 94.0341 43.96 94.0341 47.8C94.0341 51.64 95.0841 54.7 97.1841 56.98C99.3441 59.2 101.954 60.31 105.014 60.31C108.074 60.31 110.654 59.2 112.754 56.98C114.914 54.76 115.994 51.73 115.994 47.89ZM171.858 22.24C177.618 22.24 182.238 24.16 185.718 28C189.198 31.78 190.938 37 190.938 43.66V73H175.638V45.73C175.638 42.37 174.768 39.76 173.028 37.9C171.288 36.04 168.948 35.11 166.008 35.11C163.068 35.11 160.728 36.04 158.988 37.9C157.248 39.76 156.378 42.37 156.378 45.73V73H140.988V6.4H156.378V29.53C157.938 27.31 160.068 25.54 162.768 24.22C165.468 22.9 168.498 22.24 171.858 22.24ZM197.043 47.8C197.043 42.64 198.003 38.11 199.923 34.21C201.903 30.31 204.573 27.31 207.933 25.21C211.293 23.11 215.043 22.06 219.183 22.06C222.723 22.06 225.813 22.78 228.453 24.22C231.153 25.66 233.223 27.55 234.663 29.89V22.78H250.053V73H234.663V65.89C233.163 68.23 231.063 70.12 228.363 71.56C225.723 73 222.633 73.72 219.093 73.72C215.013 73.72 211.293 72.67 207.933 70.57C204.573 68.41 201.903 65.38 199.923 61.48C198.003 57.52 197.043 52.96 197.043 47.8ZM234.663 47.89C234.663 44.05 233.583 41.02 231.423 38.8C229.323 36.58 226.743 35.47 223.683 35.47C220.623 35.47 218.013 36.58 215.853 38.8C213.753 40.96 212.703 43.96 212.703 47.8C212.703 51.64 213.753 54.7 215.853 56.98C218.013 59.2 220.623 60.31 223.683 60.31C226.743 60.31 229.323 59.2 231.423 56.98C233.583 54.76 234.663 51.73 234.663 47.89ZM275.047 31.15C276.847 28.39 279.097 26.23 281.797 24.67C284.497 23.05 287.497 22.24 290.797 22.24V38.53H286.567C282.727 38.53 279.847 39.37 277.927 41.05C276.007 42.67 275.047 45.55 275.047 49.69V73H259.657V22.78H275.047V31.15ZM324.613 59.95V73H316.783C311.203 73 306.853 71.65 303.733 68.95C300.613 66.19 299.053 61.72 299.053 55.54V35.56H292.933V22.78H299.053V10.54H314.443V22.78H324.523V35.56H314.443V55.72C314.443 57.22 314.803 58.3 315.523 58.96C316.243 59.62 317.443 59.95 319.123 59.95H324.613ZM362.525 22.24C368.285 22.24 372.905 24.16 376.385 28C379.865 31.78 381.605 37 381.605 43.66V73H366.305V45.73C366.305 42.37 365.435 39.76 363.695 37.9C361.955 36.04 359.615 35.11 356.675 35.11C353.735 35.11 351.395 36.04 349.655 37.9C347.915 39.76 347.045 42.37 347.045 45.73V73H331.655V6.4H347.045V29.53C348.605 27.31 350.735 25.54 353.435 24.22C356.135 22.9 359.165 22.24 362.525 22.24Z" fill="white"/>
</svg>
