<svg width="703" height="649" viewBox="0 0 703 649" fill="none" xmlns="http://www.w3.org/2000/svg">
<path fill-rule="evenodd" clip-rule="evenodd" d="M364.318 40.0625C361.223 48.1134 358.13 56.1656 355.035 64.2167C353.051 69.3761 351.069 74.5346 349.086 79.694C348.382 81.5232 347.991 83.3996 346.631 84.6696C343.425 87.6596 337.671 89.5626 333.818 91.6661C331.237 93.0756 328.655 94.4851 326.074 95.8946C324.743 96.622 321.792 97.5352 320.859 98.7422C319.833 100.072 320.318 102.515 320.318 104.354V120.232V150.15C333.651 148.512 346.985 146.874 360.318 145.236C342.554 165.383 324.791 185.529 307.027 205.676C302.649 210.641 297.334 215.42 294.072 221.197C287.13 233.493 280.344 245.878 273.482 258.218C267.094 269.703 260.706 281.19 254.318 292.675L311.787 290.271C326.666 289.649 341.951 290.585 356.287 286.44C368.105 283.023 379.922 279.607 391.74 276.191C393.312 275.736 398.208 275.222 399.322 273.978C400.365 272.813 400.343 268.413 400.638 266.923C406.216 238.742 413.317 207.687 429.597 183.43C441.269 166.041 457.019 150.816 471.443 135.652C477.073 129.734 482.801 123.887 488.231 117.788C489.622 116.227 491.631 114.454 492.551 112.557C493.145 111.332 493.975 108.996 493.606 107.908C493.446 107.436 489.735 105.744 489.203 105.407C485.442 103.032 481.714 100.606 477.978 98.1918C467.48 91.4076 456.992 84.6067 446.434 77.9129C438.203 72.6935 429.995 67.1596 421.313 62.6745C412.314 58.0253 402.403 54.7531 392.968 51.0799C383.434 47.3673 373.882 43.6974 364.318 40.0625Z" fill="#FF5678"/>
<path fill-rule="evenodd" clip-rule="evenodd" d="M687.91 470.177C683.332 474.417 674.995 480.108 668.405 477.52C665.095 476.221 662.268 473.368 659.253 471.527C655.711 469.365 652.381 467.202 649.378 464.32C643.387 458.568 638.851 450.164 631.775 445.662C629.397 444.148 624.755 443.824 623.105 441.407C622.366 440.322 622.297 438.678 622.433 437.425C622.729 434.726 624.212 434.885 621.734 432.903H625.583C625.657 431.442 624.173 431.321 623.067 431.509C623.581 429.193 624.105 420.127 619.809 424.236C616.085 427.797 617.948 433.705 615.311 437.562C613.292 440.516 607.934 438.125 607.211 434.875C606.886 433.415 608.522 431.136 608.717 429.705C609.145 426.531 607.703 423.787 605.609 421.383C601.015 424.392 603.619 430.619 601.001 434.572C598.632 438.149 593.356 436.48 589.749 435.851C585.425 435.096 580.536 435.86 576.399 434.856C570.152 433.341 572.485 426.132 571.867 421.479C571.204 416.494 566.079 409.576 567.619 404.548C569.273 399.148 578.942 397.982 583.564 396.671C594.127 393.676 609.194 393.1 617.047 384.716C623.293 391.563 628.317 399.403 634.868 405.994C641.944 413.114 649.502 419.687 656.295 427.093C663.365 434.801 670.663 442.361 677.476 450.292C680.449 453.752 683.059 457.48 686.134 460.858C688.868 463.86 691.75 466.622 687.91 470.177ZM373.947 337.016C377.193 335.32 377.606 336.383 377.605 339.878C376.671 338.2 375.744 337.751 373.947 337.016ZM346.427 404.943V398.784C349.556 398.703 347.632 403.972 346.427 404.943ZM345.662 414.115C345.662 411.388 345.587 408.791 346.387 406.138C346.807 409.029 347.609 411.531 345.662 414.115ZM359.116 601.484C361.99 601.748 366.419 599.802 368.836 602.018C371.319 604.296 371.12 610.925 371.708 614.001C372.68 619.086 373.541 624.187 374.36 629.297C374.897 632.647 375.561 636.049 371.708 637.33C366.014 639.223 357.878 636.521 351.943 636.276C340.219 635.791 328.5 635.117 316.766 634.883C305.393 634.657 293.994 634.836 282.673 635.998C277.559 636.523 272.558 637.451 267.496 638.291C264.828 638.734 257.679 640.587 255.269 638.376C250.735 634.214 258.273 624.498 261.515 621.754C267.532 616.661 276.089 612.989 283.634 610.777C287.666 609.595 294.388 606.276 297.564 609.988C300.001 612.836 299.904 616.637 303.396 618.794C311.487 623.793 306.753 609.453 301.697 607.688C305.092 599.878 311.563 610.905 314.247 613.554C315.202 614.497 318.308 617.605 319.657 616.042C320.667 614.872 318.65 610.681 318.276 609.541C317.708 607.809 316.271 605.175 316.684 603.296C317.432 599.897 322.282 598.971 325.187 598.688C329.692 598.25 334.111 599.654 338.565 600.122C345.395 600.842 352.278 600.853 359.116 601.484ZM313.884 281.332C304.991 282.028 296.042 280.691 287.17 281.785C278.776 282.821 270.866 285.851 262.953 288.634C274.717 261.513 289.937 236.825 308.488 213.698C317.726 202.179 327.662 190.74 337.644 179.838C342.289 174.766 347.093 169.862 351.889 164.933C356.167 160.535 359.232 153.067 364.366 149.783C368.748 146.979 376.406 148.979 381.262 149.153C386.751 149.349 393.431 149.84 398.784 148.044C402.663 146.743 403.73 143.27 398.874 143.155C393.147 143.018 387.514 143.605 381.712 143.077C366.679 141.712 352.188 139.468 337.033 140.741C333.561 141.032 328.991 142.485 325.584 142.049C323.134 141.734 324.745 142.944 323.042 141.012C322.39 140.273 321.604 138.535 321.411 137.553C320.326 132.038 323.407 124.157 324.144 118.604C324.826 113.465 324.222 107.817 325.498 102.813C326.66 98.2595 330.202 97.652 334.564 97.1655C346.497 95.8336 358.675 95.1249 370.662 94.1213C398.018 91.8311 426.243 88.3761 453.413 94.0358C463.224 96.0793 475.187 99.2395 483.951 104.3C486.692 105.881 489.457 107.744 488.46 111.021C487.426 114.423 482.356 118.016 479.845 120.257C461.286 136.818 443.361 153.71 430.324 174.959C413.698 202.055 404.157 231.32 398.559 262.37C397.355 269.05 396.237 272.546 389.245 274.468C381.739 276.534 374.494 277.875 366.711 278.503C349.117 279.924 331.469 279.953 313.884 281.332ZM319.843 101.888C318.495 111.752 316.67 121.594 316.49 131.536C316.422 135.29 316.06 137.172 311.998 138.009C307.209 138.996 302.34 139.731 297.529 140.756C274.31 145.702 251.53 151.776 228.814 158.613C206.737 165.26 185.023 172.737 162.45 177.661C152.74 179.779 141.378 181.206 132.534 185.896C123.02 190.942 124.272 199.215 123.418 208.303C122.277 220.444 118.614 232.2 117.326 244.336C116.71 250.135 116.149 255.969 116.242 261.804C116.321 266.779 117.046 272.28 113.644 276.466C106.819 267.498 103.584 256.217 102.239 245.225C101.585 239.882 101.844 234.496 101.657 229.128C101.506 224.806 101.604 217.931 98.74 214.322C92.514 206.478 84.417 237.912 83.647 241.269C82.352 246.919 81.284 252.616 79.994 258.267C79.422 260.771 78.688 269.876 75.274 270.783C68.199 272.665 69.752 253.123 69.64 250.148C69.416 244.142 69.264 238.13 69.407 232.119C69.511 227.78 70.365 223.072 69.858 218.731C68.613 208.073 62.516 219.303 60.802 223.27C56.471 233.285 54.512 244.005 50.628 254.18C49.982 255.872 48.464 261.57 46.059 261.677C43.383 261.794 43.404 255.909 43.251 254.19C42.363 244.224 39.364 234.328 40.269 224.258C41.183 214.091 44.809 203.639 49.94 194.795C60.788 176.098 80.378 165.362 99.142 155.583C120.616 144.393 143.287 135.553 166.442 128.351C194.29 119.689 222.884 112.681 251.65 107.694C266.285 105.157 281.146 103.342 295.931 101.887C301.127 101.376 306.325 101.078 311.454 100.105C313.39 99.7378 320.375 97.9911 319.843 101.888ZM334.802 69.9678C327.465 70.0248 319.97 66.5285 312.822 65.0836C304.312 63.3615 296.001 60.8698 287.506 59.072C270.871 55.5521 254.227 52.1197 237.607 48.5222C230.392 46.9603 223.142 45.6009 215.955 43.9234C208.266 42.1285 199.959 40.1273 192.089 42.0607C180.16 44.9918 175.121 57.8197 170.741 67.8309C167.647 74.9021 165.223 82.7842 160.398 88.9374C158.68 91.1313 156.238 93.7478 153.123 93.0372C147.336 91.7181 148.255 84.1908 148.992 80.03C150.06 73.9919 151.573 68.0245 152.784 62.0139C153.272 59.588 157.054 43.711 150.302 46.1691C145.293 47.9924 142.643 60.0018 140.747 64.2913C139.338 67.479 137.845 70.646 136.264 73.755C134.154 77.902 128.134 91.7584 121.469 89.9714C111.931 87.4138 121.08 62.7668 122.705 57.572C123.597 54.7205 133.292 33.0954 125.109 34.8627C121.624 35.6166 118.229 41.9791 116.452 44.6163C113.301 49.2938 110.16 54.005 107.194 58.7977C104.143 63.7271 102.585 69.3377 99.559 74.1954C97.967 76.752 94.718 80.1588 91.546 77.7919C86.601 74.1049 89.532 61.2797 90.398 56.4299C92.009 47.4134 96.011 38.1703 101.502 30.7993C109.753 19.7236 125.322 16.1447 138.414 13.9931C155.313 11.2153 172.447 11.9751 189.417 13.6186C208.502 15.4675 227.296 17.4471 246.108 21.2275C265.067 25.0373 284.036 28.8167 302.703 33.8552C311.497 36.229 320.417 38.3334 329.086 41.12C338.302 44.0816 347.296 47.7673 356.769 49.9012C353.437 58.0743 350.104 66.2474 346.772 74.4214C343.583 71.3203 339.23 69.9324 334.802 69.9678ZM498.125 92.4897C501.047 90.9189 504.275 90.1778 505.341 86.7061C506.284 83.6384 504.673 80.1627 503.903 77.2179C501.749 68.9731 501.182 60.4324 503.088 52.0902C504.91 54.8238 511.73 65.3382 515.878 58.9727C518.38 55.1334 511.676 49.6103 509.719 46.9112C514.013 44.3067 520.146 37.3161 525.094 41.5319C528.292 44.2576 529.646 46.8817 533.955 48.2067C539.186 49.8157 544.111 49.4471 549.453 49.0028C553.193 48.6922 554.094 48.2018 555.555 51.0326C556.702 53.2579 557.294 56.0121 557.965 58.4016C559.285 63.1128 562.341 72.3956 558.721 76.809C555.551 80.6748 543.245 77.3604 541.536 82.3507C540.604 85.0725 545.052 85.1698 546.752 86.5164C548.857 88.1834 550.598 90.8364 551.742 93.2062C552.589 94.9588 553.877 97.8545 552.435 99.6464C550.443 102.125 546.75 100.245 545.145 98.4433C543.013 96.0498 542.321 92.7777 540.542 90.1709C537.277 85.388 537.082 89.1929 536.193 92.6273C535.27 96.1953 533.086 95.9496 529.741 96.4076C523.872 97.2127 517.941 98.3479 512.228 99.8941C509.299 100.686 506.462 101.696 503.673 102.875C501.876 103.634 498.761 105.933 496.811 105.955C493.198 105.995 490.693 100.055 488.828 97.5773C491.924 95.8778 495.013 94.1626 498.125 92.4897ZM692.154 456.197C683.13 445.55 675.315 433.982 666.411 423.242C657.63 412.649 647.471 403.387 637.617 393.792C632.966 389.264 628.51 384.296 623.376 380.284C619.546 377.29 616.599 377.244 611.992 378.57C598.901 382.338 585.573 386.875 573.185 392.498C561.65 397.735 551.143 404.459 538.633 407.379C525.864 410.361 512.587 411.318 499.5 410.579C486.076 409.821 473.415 407.076 460.649 403.041C448.559 399.219 435.953 395.882 425.613 388.308C414.773 380.368 406.398 368.947 398.638 358.205C394.709 352.768 390.809 347.057 388.162 340.894C385.865 335.546 384.364 329.233 380.242 324.874C379.231 326.283 377.973 327.491 377.459 329.145C377.225 329.897 378.603 329.873 378.462 330.471C378.195 331.596 376.671 332.745 375.785 333.357C372.602 335.559 372.583 333.806 373.418 337.924C373.904 340.324 372.984 345.739 369.002 343.97C370.468 345.695 368.139 347.872 367.378 349.293C366.855 348.702 366.204 348.497 365.426 348.675C366.882 351.525 366.022 351.601 364.611 353.865C364.353 354.279 363.44 356.444 363.571 356.261C362.129 358.28 360.463 358.788 359.622 361.303C358.931 363.368 359.108 365.638 358.338 367.7C357.407 366.435 356.476 365.17 355.545 363.906C355.735 364.901 356.115 366.374 356.557 367.276C356.835 367.84 358.027 369.157 358.011 369.465C357.946 370.615 356.486 370.339 356.07 371.33C355.289 373.191 356.418 373.465 355.992 375.281C355.504 377.365 354.194 376.531 353.571 378.307C353.453 378.644 354.373 379.971 354.227 380.699C354.022 381.727 353.074 382.302 352.739 383.216C351.887 385.542 352.197 387.244 351.014 389.474C350.556 390.339 349.889 390.915 349.566 391.898C349.283 392.763 349.892 394.604 349.346 395.379C346.708 399.113 347.079 392.681 347.279 391.085C348.958 377.691 354.345 363.867 359.275 351.347C361.725 345.127 364.109 338.713 367.181 332.755C368.417 330.356 369.844 327.88 371.887 326.045C374.471 323.723 378.137 322.794 380.477 320.201C380.108 320.61 383.014 317.907 382.549 318.796C382.965 318.002 382.239 316.926 382.497 316.158C382.818 315.203 383.425 315.003 384.101 314.167C385.316 312.667 386.759 311.92 384.851 310.009C387.683 309.394 389.037 308.491 389.603 305.509C390.016 303.328 389.182 303.471 390.638 302.017C392.099 300.556 392.839 301.697 393.76 299.168C394.861 296.141 395.592 292.026 396.252 288.859C396.828 286.094 395.43 282.027 397.801 280.075C400.804 277.603 403.491 278.65 402.953 273.678C402.428 268.831 403.96 265.895 405.5 261.309C408.573 252.153 409.761 242.486 412.455 233.221C418.206 213.448 428.365 195.621 439.289 178.216C449.383 162.133 463.495 148.431 477.122 135.235C480.853 131.621 484.543 127.955 487.893 123.993C490.779 120.581 492.097 115.936 494.871 112.697C496.556 110.73 499.693 109.889 502.046 108.846C505.97 107.106 510.646 104.836 515.075 105.188C513.315 111.02 512.741 117.835 517.935 122.208C524.236 127.512 529.947 122.001 535.723 118.977C546.251 113.463 561.308 118.525 570.488 110.261C572.675 108.293 573.285 105.149 575.557 103.311C577.225 101.963 579.598 101.621 581.476 100.617C587.181 97.5645 589.95 91.9776 587.729 85.8057C585.698 80.1637 582.544 78.2067 589.566 75.3474C595.266 73.0276 597.433 69.5323 594.853 63.3094C592.393 57.3764 587.886 56.6933 583.622 52.8107C579.492 49.05 584.237 44.6733 587.331 41.8503C591.32 38.2086 592.083 34.9266 587.458 31.1393C582.614 27.1742 575.698 27.3128 570.052 29.2737C563.666 31.4903 559.459 35.1753 556.757 41.1466C554.005 47.2257 547.184 45.5292 541.66 43.8349C536.377 42.215 535.002 38.7197 531.533 34.9561C527.675 30.7698 519.812 34.3496 515.262 36.2624C504.054 40.9706 492.916 48.4013 492.471 61.5637C492.206 69.4124 495.583 76.0836 497.339 83.4506C498.945 90.1876 487.934 89.6569 486.027 96.1737C465.686 85.5895 443.033 82.3507 420.295 81.6303C396.128 80.8636 371.613 80.2492 347.652 83.9962C353.214 74.4716 356.151 64.0269 360.99 54.2419C362.383 51.4248 362.983 51.6656 366.057 52.5168C371.962 54.1514 377.823 55.9807 383.716 57.6644C405.244 63.8156 426.349 71.2269 447.165 79.344C449.188 80.1332 453.705 82.3242 455.478 79.9416C457.524 77.1943 452.79 73.8071 450.875 72.4251C442.493 66.3811 432.106 62.7128 422.719 58.4724C402.196 49.2043 379.47 44.805 358.056 37.9216C311.827 23.0587 264.001 11.7707 215.959 4.31517C204.235 2.49576 192.386 2.22938 180.611 0.878837C170.181 -0.31739 159.732 -0.289867 149.303 0.945677C130.041 3.22903 107.71 8.15547 96.831 25.4865C87.01 41.1348 80.454 58.728 82.96 77.2896C83.713 82.8648 86.115 89.4672 93.114 88.0301C97.969 87.0334 100.547 82.9788 102.801 79.0215C106.207 73.0434 109.571 67.0652 113.262 61.2472C114.631 69.9707 109.656 78.5488 110.438 87.4354C110.97 93.4657 114.36 102.993 122.325 101.286C133.242 98.9465 137.735 82.1827 142.984 74.1403C143.25 80.3347 141.041 86.4397 141.717 92.6479C142.384 98.7804 147.259 104.57 154.106 103.729C160.564 102.937 164.761 96.1363 167.504 91.0163C171.321 83.891 174.063 76.2517 177.791 69.0792C181.285 62.356 185.424 54.352 193.766 53.0889C201.211 51.9605 209.743 54.5721 217.097 55.6494C237.496 58.6375 257.484 63.7252 277.66 67.8358C299.293 72.2423 321.437 74.9188 342.403 82.0293C335.031 91.892 315.739 89.7611 304.757 90.8197C288.161 92.4199 271.352 93.624 254.85 95.985C238.552 98.3165 222.595 102.456 206.424 105.46C190.338 108.45 174.28 111.444 158.715 116.541C129.816 126.006 100.435 137.984 74.973 154.498C63.126 162.182 52.602 170.965 45.284 183.094C37.919 195.299 34.38 209.101 33.03 223.14C32.19 231.882 33.617 239.448 35.34 247.956C36.588 254.116 36.992 264.43 42.017 268.94C51.608 277.55 59.571 242.628 61.342 238.411C62.617 245.323 60.532 284.262 75.921 281.095C82.789 279.683 84.347 270.417 85.486 264.836C87.564 254.661 89.425 244.283 92.979 234.484C95.26 247.687 96.211 261.442 101.125 274.052C104.389 282.426 113.702 297.286 120.195 282.949C125.065 272.197 123.394 259.856 123.978 248.441C124.625 235.79 128.32 223.588 129.628 211.062C130.135 206.209 129.676 200.74 134.637 198.092C138.896 195.819 145.124 195.079 149.774 193.81C163.547 190.051 177.41 186.596 191.118 182.609C204.832 178.618 218.356 173.956 231.887 169.406C244.828 165.055 258.041 162.581 271.139 158.854C278.586 156.735 285.943 154.519 293.494 152.749C297.008 151.927 300.565 151.286 304.071 150.433C306.67 149.802 310.094 147.421 312.766 147.463C315.516 147.507 316.549 149.796 319.703 149.975C323.098 150.168 326.55 149.432 329.926 149.177C338.151 148.557 346.894 147.554 355.1 148.675C350.168 154.425 343.507 158.4 337.669 163.163C330.936 168.657 324.42 174.589 318.669 181.076C307.097 194.13 296.16 207.927 285.999 222.068C275.976 236.019 267.906 251.285 260.89 266.882C257.394 274.654 254 282.596 251.585 290.765C250.593 294.121 249.783 297.49 247.992 300.542C246.349 303.341 244.034 305.754 245.976 309.134C247.313 308.312 248.514 307.29 249.723 306.302C248.326 315.975 245.311 325.332 243.761 334.976C242.233 344.477 242.295 354.248 242.394 363.843C242.602 383.938 244.122 403.578 248.269 423.289C252.463 443.22 257.851 463 264.645 482.227C271.185 500.739 277.748 520.153 286.877 537.601C296.627 556.237 308.226 575.831 322.339 591.606C313.12 595.318 301.388 594.624 291.626 596.119C281.422 597.682 272.595 600.632 263.899 606.181C255.101 611.798 250.325 619.028 249.109 629.268C248.245 636.557 245.678 646.647 255.406 648.562C262.403 649.939 270.225 647.678 277.236 647.118C289.5 646.141 301.781 645.531 314.073 645.004C326.332 644.478 338.594 644.015 350.857 643.642C356.625 643.466 362.396 643.377 368.162 643.174C370.746 643.083 372.313 643.044 374.63 643.778C376.462 644.359 376.328 645.565 378.368 644.074C381.658 641.669 380.981 634.086 380.889 630.752C380.749 625.606 380.253 620.401 379.232 615.353C378.626 612.353 371.27 593.016 376.99 592.202C370.345 585.025 367.691 574.776 364.706 565.78C360.966 554.509 357.683 543.271 355.106 531.679C349.601 506.918 347.168 481.887 347.168 456.552C372.686 472.012 399.685 480.387 429.741 481.32C459.623 482.249 492.452 479.837 520.827 470.066C533.967 465.54 545.737 459.598 557.003 451.592C561.041 448.723 565.367 442.223 570.667 442.334C576.992 442.468 584.075 444.821 590.356 445.828C602.368 447.752 618.046 448.838 628.216 456.142C633.74 460.109 637.699 465.661 642.629 470.232C646.379 473.71 651.338 475.598 655.06 479.075C659.076 482.827 657.481 487.729 664.14 488.033C669.832 488.291 676.073 486.04 680.982 483.398C690.776 478.127 701.206 466.875 692.154 456.197Z" fill="black"/>
<path fill-rule="evenodd" clip-rule="evenodd" d="M598.017 205.463C612.35 215.47 628.79 222.306 643.768 231.319C647.517 233.575 659.197 238.258 659.084 242.443C659.018 244.889 655.508 247.957 653.971 249.652C651.338 252.557 648.861 255.492 646.431 258.565C635.309 272.635 624.835 286.839 612.781 300.203C610.966 302.213 605.499 311.811 603.734 307.044C602.934 304.882 603.593 302.453 601.508 300.438C600.435 299.4 596.288 298.828 597.496 296.602C598.301 296.958 599.107 297.315 599.913 297.67C599.287 295.89 599.333 293.941 598.395 292.26C597.812 291.215 596.673 290.72 596.278 289.544C595.732 287.918 596.658 286.029 596.503 284.353C596.35 282.682 595.469 281.102 594.943 279.526C591.824 270.18 590.705 260.759 589.108 251.116C587.528 241.575 585.067 232.332 584.101 222.685C583.08 212.495 581.829 202.325 580.16 192.217C583.139 192.628 585.429 195.809 587.536 197.608C590.848 200.435 594.444 202.968 598.017 205.463ZM586.781 304.117C586.097 303.589 585.562 302.94 585.176 302.171C592.201 298.751 587.962 304.586 586.781 304.117ZM582.509 296.821C579.447 297.651 577.247 297.819 574.886 296.58C574.662 296.463 574.92 295.558 574.516 295.372C574.163 295.211 573.624 295.411 573.322 295.259C572.294 294.745 570.494 295.872 570.319 293.904C574.227 292.728 578.07 290.559 582.196 290.193C587.93 289.686 587.665 295.424 582.509 296.821ZM569.093 285.478C564.915 286.439 561.473 288.682 557.034 288.096C552.867 287.547 549.246 285.423 545.959 282.976C554.182 280.687 562.805 280.275 571.021 278.061C573.696 277.341 577.211 275.441 580.094 276.206C583.297 277.057 583.499 280.006 584.459 282.69C579.333 283.596 574.168 284.313 569.093 285.478ZM542.962 274.092C538.948 275.035 534.845 277.096 531.489 273.539C530.947 272.965 530.473 273.538 530.537 271.769C530.604 269.905 532.326 268.704 533.807 268.047C537.289 266.504 542.17 267.501 545.868 267.274C551.767 266.914 557.771 265.709 563.606 264.781C567.646 264.139 571.819 262.714 575.948 262.995C579.136 263.212 582.982 265.883 578.336 267.831C574.105 269.606 567.761 269.334 563.177 270.102C556.401 271.239 549.649 272.521 542.962 274.092ZM539.041 255.53C539.301 255.791 539.561 256.051 539.821 256.312C539.778 256.302 541.36 255.043 541.779 255.006C543.814 254.832 545.861 254.97 547.899 254.857C552.595 254.597 557.328 253.793 561.94 252.907C565.697 252.185 569.524 250.942 573.391 251.254C576.739 251.523 577.091 252.197 577.31 255.373C568.764 255.373 559.961 255.196 551.562 256.974C546.094 258.131 540.068 261.577 537.329 255.365C537.9 255.42 538.47 255.475 539.041 255.53ZM544.384 242.085C546.503 243.671 552.28 241.033 554.82 240.77C557.578 240.483 560.173 240.185 562.846 239.51C565.216 238.91 573.057 235.916 574.875 238.779C577.662 243.166 566.377 243.971 564.588 244.188C557.085 245.099 549.3 245.907 541.999 247.842C542.794 245.923 543.589 244.004 544.384 242.085ZM554.676 227.185C555.224 229.212 572.192 221.74 572.501 227.171C572.739 231.337 555.713 233.413 552.652 233.048C553.369 231.129 555.276 229.411 554.676 227.185ZM560.373 214.439C560.734 210.349 561.292 210.373 564.629 209.987C567.174 209.693 570.672 208.227 570.01 212.685C569.443 216.503 560.01 218.566 560.373 214.439ZM566.438 200.366C567.241 198.17 569.048 201.126 569.086 202.243C569.187 205.214 566.895 204.571 564.689 204.571C565.303 203.183 565.887 201.78 566.438 200.366ZM594.365 183.884C593.915 183.351 591.389 183.147 590.67 182.889C588.902 182.252 589.153 180.894 586.891 182.233C586.778 182.121 586.993 181.115 586.87 181.068C586.808 181.045 585.223 180.457 584.708 180.133C583.465 179.35 582.345 178.585 581.203 177.603C579.989 176.56 578.773 175.046 577.386 174.215C576.801 173.866 576.323 173.369 575.618 173.262C573.789 172.985 574.313 174.237 572.714 174.486C571.729 174.639 571.012 173.509 569.724 173.996C568.611 174.417 567.965 175.951 567.469 176.864C565.666 180.188 564.275 183.765 562.51 187.123C553.484 204.298 543.225 220.821 534.482 238.156C530.271 246.507 525.877 254.916 522.913 263.791C520.776 270.192 515.95 279.542 520.102 285.938C523.121 290.589 529.166 292.597 533.989 294.844C541.246 298.225 547.936 302.644 555.273 305.922C564.022 309.831 572.518 313.92 581.046 318.286C584.683 320.147 587.965 322.829 591.59 324.592C593.807 325.67 597.231 323.83 597.953 326.302C600.732 322.994 605.23 325.199 608.445 322.87C610.336 321.5 611.718 318.801 613.295 317.113C615.661 314.583 618.229 312.236 620.643 309.75C630.224 299.876 639.071 289.593 647.788 278.988C656.114 268.861 665.841 259.293 672.874 248.208C675.667 243.807 676.173 239.192 674.33 234.33C672.984 230.784 669.742 225.429 665.111 227.777C666.867 224.911 660.093 221.85 658.038 221.29C658.007 221.282 657.602 223.484 657.029 223.429C657.233 223.448 655.307 218.551 654.461 217.922C651.949 216.054 648.893 213.874 646.152 212.335C643.638 210.925 640.985 210.226 638.55 208.647C635.598 206.735 632.888 204.466 629.925 202.566C627.064 200.732 623.875 198.564 620.713 197.303C617.971 196.209 615.509 195.994 613.042 194.201C609.99 191.983 607.328 190.478 603.808 188.95C600.763 187.628 596.543 186.473 594.365 183.884Z" fill="black"/>
<path fill-rule="evenodd" clip-rule="evenodd" d="M178.709 449.514C179.269 448.221 179.827 446.929 180.387 445.637C181.079 447.89 181.273 449.011 178.709 449.514ZM179.454 455.484C178.241 455.697 178.719 451.957 178.719 451.306C180.814 452.472 179.079 453.869 179.454 455.484ZM177.563 444.695C178.597 444.094 179.631 443.494 180.665 442.894C179.225 445.516 179.79 443.878 180.384 445.629C179.298 445.936 178.242 445.578 177.563 444.695ZM171.435 465.191C167.559 479.014 155.248 489.915 142.245 495.562C134.773 498.806 127.427 499.618 119.358 499.256C116.246 499.117 112.584 498.123 109.589 498.308C107.283 498.45 107.387 498.548 105.477 500.467C104.632 498.938 105.244 497.864 103.549 496.974C101.434 495.863 100.556 497.157 99.5072 498.695C98.1342 497.296 97.5722 496.566 95.7932 495.735C95.8492 495.762 94.0902 495.696 94.1622 495.718C93.8442 495.621 91.9312 494.412 91.3322 494.192C88.8742 493.286 86.0322 492.913 83.7642 491.613C81.7802 490.478 80.1462 487.29 77.8762 489.739C77.8742 485.646 72.2652 483.949 69.6362 481.805C65.5282 478.455 62.2622 473.495 60.2142 468.698C58.0302 463.582 57.3012 458.677 56.2792 453.404C55.5652 449.72 50.8892 444.395 53.6972 440.677C54.3662 442.236 54.0522 443.833 55.1632 445.246C56.1632 443.352 56.7132 441.233 57.1652 439.16C57.3872 438.144 58.6732 435.164 58.5272 434.279C58.2302 432.469 55.9502 432.371 57.2142 430.151C59.8362 432.955 61.9522 428.031 59.9712 426.068C58.9932 427.152 58.6342 428.384 58.1832 429.727C55.6052 424.611 62.7402 426.259 61.1792 421.641C63.7832 421.148 65.2802 420.504 66.2702 417.975C67.3712 415.16 66.5612 414.547 69.0612 412.687C69.9212 412.048 72.3532 411.129 72.7982 410.078C73.6592 408.046 71.4682 407.443 73.3872 405.54C74.0352 406.657 76.5612 408.87 77.9442 406.764C78.2212 406.345 77.0582 406.047 77.9042 405.08C79.1572 403.648 80.5592 402.245 82.6782 402.546C81.0002 398.422 91.7222 398.096 94.4682 397.123C97.2202 396.149 99.5552 395.509 102.473 395.283C105.388 395.057 105.533 394.217 108.001 392.492C108.21 394.96 108.814 394.418 110.599 394.853C111.028 394.13 111.468 394.048 111.918 394.609C112.366 395.028 112.914 395.225 113.56 395.201C114.54 395.251 115.652 395.125 116.679 395.146C119.09 395.192 121.577 394.995 123.942 395.045C124.552 394.945 125.122 394.736 125.656 394.419C125.879 394.831 126.103 395.245 126.325 395.659C127.578 395.813 127.675 397.357 129.216 395.669C129.672 397.815 130.982 396.698 132.366 397.28C133.628 397.812 133.829 398.661 134.994 399.254C135.76 399.864 136.581 399.945 137.459 399.497C138.294 400.106 139.142 400.697 140.002 401.27C141.587 402.149 143.455 402.688 145.125 403.383C146.236 403.833 147.34 404.302 148.435 404.788C148.468 406.087 149.061 406.546 150.213 406.164C151.254 407.02 151.547 406.986 152.557 408.444C154.845 411.748 156.875 414.314 159.765 417.267C172.326 430.104 176.185 448.253 171.435 465.191ZM175.29 410.605C169.619 403.14 161.592 394.593 154.379 389.878C150.723 387.488 145.591 383.198 141.12 381.933C140.06 381.634 138.963 381.614 137.921 381.299C137.116 381.057 136.678 380.245 135.76 380.098C135.118 379.996 135.047 381.409 134.365 381.279C132.939 381.006 132.035 379.615 131.028 378.745C128.865 382.408 127.691 376.247 124.515 380.389C120.735 374.563 111.855 375.837 105.819 376.131C104.029 376.218 103.188 376.844 101.601 377.308C100.124 377.739 99.9782 377.628 98.3652 377.616C94.3482 377.586 90.7822 378.082 87.0692 379.816C80.8312 382.729 75.1052 387.267 69.1802 390.777C62.5582 394.7 56.5892 399.693 51.5232 405.43C33.2092 426.176 28.3122 456.457 42.9152 480.508C66.1102 518.705 125.941 522.787 159.844 496.87C186.037 476.844 196.005 437.865 175.29 410.605Z" fill="black"/>
<path fill-rule="evenodd" clip-rule="evenodd" d="M462.379 303.114C461.728 304.641 455.649 304.126 455.516 302.327C455.318 299.637 463.51 300.461 462.379 303.114ZM468.836 302.115C472.281 302.391 477.941 304.691 481.261 303.301C486.328 301.18 481.007 297.924 478.289 296.951C475.523 295.961 471.403 296.487 469.981 293.644C468.911 291.507 471.555 285.538 468.275 286.498C464.833 287.504 465.834 296.054 460.433 293.172C457.857 291.797 458.908 283.42 454.593 287.7C453.412 288.87 453.309 291.02 451.745 291.893C450.149 292.784 448.147 291.856 446.462 291.933C442.001 292.139 440.58 296.24 445.1 297.867C446.773 298.47 453.079 299.205 449.259 301.892C446.852 303.585 441.505 300.033 439.438 302.979C436.597 307.027 444.207 307.118 446.251 308.329C449.715 310.38 446.854 315.17 447.13 318.58C447.553 323.792 450.633 322.703 451.752 318.292C452.701 314.55 451.525 309.164 457.264 310.651C466.61 313.073 452.067 324.736 458.913 327.72C463.278 329.623 463.896 319.336 464.235 317.565C465.49 311.028 469.226 312.553 474.886 312.754C481.498 312.988 483.094 308.18 476.092 306.803C473.858 306.364 470.785 306.919 468.845 305.52C467.697 304.694 466.119 301.899 468.836 302.115Z" fill="black"/>
<path fill-rule="evenodd" clip-rule="evenodd" d="M224.71 515.7C219.359 513.817 210.407 514.224 209.083 521.017C208.529 523.861 209.608 526.868 211.606 528.934C213.923 531.33 217.613 531.552 217.416 527.38C217.279 524.494 214.484 521.986 219.398 521.404C222.456 521.043 226.979 523.29 227.131 526.611C227.475 534.095 214.295 534.682 209.438 533.387C199.798 530.82 202.417 520.895 209.037 516.366C210.747 515.195 215.654 513.392 215.878 510.962C216.176 507.738 212.12 508.396 210.132 508.821C195.519 511.947 192.334 536.01 207.603 540.546C214.537 542.605 224.302 540.479 228.481 534.306C232.399 528.519 232.452 518.425 224.71 515.7Z" fill="black"/>
<path fill-rule="evenodd" clip-rule="evenodd" d="M30.9571 345.363C26.3891 347.524 21.8211 349.686 17.2541 351.847C15.7441 348.671 13.1931 339.995 9.36311 338.887C3.16311 337.093 7.11111 346.551 8.18111 348.713C9.06011 350.49 11.0991 353.242 10.6041 355.359C9.94011 358.211 5.84611 359.222 3.70311 360.693C-1.59989 364.336 -1.5579 371.986 6.1221 368.745C10.4681 366.909 15.8491 361.821 19.1801 367.598C20.7181 370.264 24.3621 385.158 28.1681 375.418C30.5231 369.387 19.1881 363.122 24.7761 358.021C26.5751 356.379 28.6811 356.241 30.4781 355.297C34.8181 353.018 32.3711 348.806 30.9571 345.363Z" fill="black"/>
<path fill-rule="evenodd" clip-rule="evenodd" d="M700.643 129.57C697.92 128.591 694.551 126.679 691.524 127.331C688.307 128.023 687.012 131.19 684.673 133.094C678.314 138.271 674.61 130.555 671.116 126.326C667.816 122.333 663.79 121.364 659.134 123.818C657.279 124.796 649.464 129.277 650.827 132.148C651.807 134.214 655.668 132.359 656.985 131.908C659.844 130.93 662.499 130.074 665.423 131.5C670.908 134.174 672.331 141.506 678.967 142.649C685.829 143.831 686.054 137.413 690.951 134.997C694.234 133.378 696.521 136.244 699.688 135.673C702.706 135.129 704.102 130.812 700.643 129.57Z" fill="black"/>
<path fill-rule="evenodd" clip-rule="evenodd" d="M645.243 155.438C647.67 155.956 649.254 151.329 650.773 150.155C653.293 148.21 657.662 147.818 660.228 149.776C665.239 153.598 663.512 161.848 670.647 163.999C677.024 165.922 680.028 157.666 685.396 155.611C688.517 154.415 691.943 153.633 690.725 149.344C689.884 146.379 687.406 145.617 684.712 146.756C680.082 148.712 678.51 156.681 673.021 156.824C667.342 156.971 666.726 148.924 664.288 145.419C660.571 140.076 652.93 138.786 648.588 143.894C647.277 145.435 640.621 154.454 645.243 155.438Z" fill="black"/>
<path fill-rule="evenodd" clip-rule="evenodd" d="M532.987 64.2118C536.363 66.4824 543.091 66.4037 546.201 63.5876C549.366 60.7224 545.141 60.282 542.563 60.3695C540.58 60.4373 536.868 61.4036 537.998 58.037C539.001 55.0499 544.514 56.5705 544.974 53.2914C540.825 52.5601 536.255 52.8235 533.186 56.0289C530.967 58.3457 529.827 62.0857 532.987 64.2118Z" fill="black"/>
</svg>
