<svg width="335" height="199" viewBox="0 0 335 199" fill="none" xmlns="http://www.w3.org/2000/svg">
<path fill-rule="evenodd" clip-rule="evenodd" d="M170.923 79.5209C184.341 78.5272 197.144 83.1828 207.869 90.439C221.692 99.7912 233.408 113.166 241.338 127.259C242.182 127.864 243.013 128.485 243.838 129.11C248.252 132.458 252.564 135.994 256.386 139.929C258.52 142.126 264.117 147.468 261.687 150.837C261.171 151.552 260.325 151.963 259.476 152.246C257.098 153.039 254.619 153.441 252.274 154.368C249.378 155.513 246.376 157.115 244.521 159.559C243.993 160.254 243.856 161.075 243.147 161.381C242.395 161.706 240.977 161.579 240.155 161.654C238.502 161.805 236.85 161.956 235.197 162.106C231.314 162.461 227.256 162.5 223.458 163.373L205.985 167.389C202.411 168.211 198.304 168.664 194.915 170.014C189.857 172.029 185.032 174.979 180.193 177.411C177.853 178.586 175.513 179.762 173.173 180.938C172.03 181.512 171.248 181.52 169.909 181.616L160.245 182.308C158.686 182.42 157.937 183.004 157.733 181.552L155.487 165.584L154.299 157.14C154.229 156.638 154.25 154.15 153.807 153.85C153.53 153.662 151.903 154.067 151.602 154.101L147.216 154.601C144.057 154.962 140.898 155.322 137.738 155.682C137.482 155.711 136.062 155.696 135.902 155.891C135.715 156.12 136.071 157.433 136.103 157.715C136.438 160.68 136.773 163.645 137.108 166.61C137.147 166.954 137.596 168.549 137.36 168.831C137.195 169.027 136.005 169.051 135.763 169.087C132.716 169.55 129.668 170.013 126.621 170.477C124.438 170.809 121.586 170.792 119.523 171.556C118.338 171.995 117.166 173.116 116.143 173.817L101.28 184C99.0252 185.544 95.987 185.151 93.2418 185.345L61.5747 187.592C61.6009 186.673 61.6275 185.755 61.6537 184.837C61.7931 179.974 61.932 175.11 62.0714 170.247L62.2538 163.886C62.2653 163.484 62.0926 162.306 62.3752 162.008C62.7509 161.613 64.4298 161.442 64.9509 161.299C66.6988 160.817 68.4463 160.335 70.1938 159.854C75.3212 158.441 80.4478 157.028 85.5747 155.615C90.642 154.219 95.7087 152.822 100.776 151.426C102.51 150.948 104.243 150.47 105.977 149.993C106.377 149.882 107.776 149.736 108.054 149.42C108.405 149.023 108.248 147.328 108.304 146.825C108.579 144.367 108.971 141.921 109.449 139.492C112.894 121.965 120.945 104.163 135.874 92.4708C145.742 84.7419 158.121 80.4688 170.923 79.5209ZM173.289 114.667C171.961 113.215 169.729 110.846 167.382 111.239C165.475 111.559 164.436 113.76 163.771 115.224C161.099 121.106 160.27 127.848 159.439 134.134C158.917 138.079 158.498 142.04 158.229 146.007C167.749 145.325 177.268 144.643 186.787 143.962C186.338 141.138 185.977 138.288 185.436 135.477C185.165 134.069 184.415 132.8 183.774 131.499C180.907 125.679 177.777 119.573 173.289 114.667Z" fill="#FF5678"/>
<path fill-rule="evenodd" clip-rule="evenodd" d="M305.43 0L305.662 0.00374476C311.979 0.160223 317.55 3.94479 321.871 7.94997C324.007 9.93035 325.956 12.2598 326.873 14.9704C327.931 18.1017 327.583 21.5459 326.777 24.6885C324.998 31.6334 322.823 38.614 320.377 45.3824C319.174 48.7119 317.429 51.9765 316.521 55.3843C315.772 58.1919 318.925 60.2368 319.046 63.1219C319.167 66.0325 317.064 68.7669 314.174 69.807C312.943 70.2501 311.453 69.8799 310.318 70.334C309.281 70.7489 308.917 71.9737 308.718 72.9139C308.446 74.1961 308.495 75.4774 308.572 76.771C308.62 77.5624 308.408 78.854 308.823 79.5599C309.107 80.0447 309.626 80.2032 310.074 80.5348C310.684 80.9876 311.09 81.5509 311.625 82.0712C312.507 82.9298 313.356 83.3949 313.596 84.6474C313.723 84.3629 313.85 84.0783 313.978 83.7941C314.635 84.9139 315.123 85.4509 314.497 86.5138C316.437 86.3366 317.586 89.6126 318.095 90.855C319.026 93.1287 319.666 95.4912 320.599 97.7662C321.878 100.885 323.559 103.963 324.375 107.227C325.061 109.97 325.603 112.787 326.213 115.55C326.556 117.105 326.855 118.684 327.483 120.167C327.728 120.743 328.181 121.131 328.462 121.644C328.846 122.346 328.696 122.717 328.714 123.487C328.746 124.858 329.676 125.749 329.968 127.081C330.28 128.504 330.535 129.944 330.85 131.37C331.485 134.243 332.66 137.112 332.943 140.023C333.272 143.402 333.977 146.74 334.331 150.12C334.641 153.074 334.114 156.245 334.777 159.102C335.364 161.638 334.636 163.957 334.377 166.476C334.311 167.115 335.369 170.921 333.669 170.19C333.988 171.088 334.436 171.515 334.46 172.5C334.482 173.42 334.227 174.367 334.019 175.26C333.616 176.985 333.348 178.865 332.56 180.482C331.669 182.31 330.312 182.529 328.466 183.156C327.216 183.581 324.966 185.096 323.981 183.475C323.394 185.139 322.247 183.989 320.962 183.896C320.971 183.896 320.227 184.153 320.088 184.17C319.636 184.227 319.102 184.029 318.652 183.994C317.531 183.907 316.432 184.047 315.335 184.258C312.809 184.745 310.364 185.419 307.801 185.759C302.792 186.423 297.885 186.109 292.869 186.399C283.054 186.968 273.077 186.491 263.254 186.245C262.2 186.218 261.064 186.356 260.023 186.205C258.902 186.042 258.657 185.548 257.783 185.053C256.331 184.231 254.719 185.031 253.212 185.331C248.787 186.213 244.167 186.278 239.707 187.131C230.646 188.863 222.298 192.282 213.619 195.166C209.856 196.416 205.44 198.44 201.383 198.528C196.465 198.627 197.627 194.118 198.53 191.22C195.689 191.922 191.228 195.13 188.34 193.268C184.898 191.049 189.277 187.361 189.483 184.753C183.333 185.941 176.355 188.548 170.112 186.429C168.911 186.022 167.866 185.16 166.576 185.02C165.235 184.874 163.818 185.315 162.463 185.307C159.375 185.289 156.377 184.906 153.29 185.26C146.408 186.049 139.624 186.481 132.686 186.652C125.701 186.823 118.717 187.208 111.729 187.192C108.182 187.183 104.57 186.792 101.03 186.968C99.6404 187.036 96.6492 187.976 95.6727 186.661C94.6923 187.756 93.8595 187.024 92.6018 187.146C92.8349 187.123 91.9467 187.601 91.8131 187.648C91.152 187.876 90.5339 187.807 89.8436 187.8C88.0049 187.783 86.2872 188.584 84.4578 188.506C83.9952 188.487 83.6454 188.361 83.2529 188.214C83.1599 188.179 83.1821 187.806 83.0331 187.775C82.1381 187.588 82.3694 188.099 81.8013 188.356C81.1714 188.641 80.2394 188.18 80.5978 189.057C78.8887 188.987 77.2694 189.523 75.7144 188.579C76.4495 190.092 73.8814 188.836 73.2101 188.811C72.0947 188.769 71.1178 189.288 70.0053 189.408C68.6711 189.551 67.3305 188.975 66.025 189.327C65.0022 189.602 64.6521 190.264 63.5876 189.926C62.6833 189.638 62.1184 189.013 61.6795 188.33C61.074 187.387 60.9965 186.967 59.5362 186.95C58.4535 186.938 57.3649 187.155 56.2717 187.153C55.0191 187.15 53.6425 187.027 52.4991 187.581C51.2672 188.178 50.5436 189.087 49.1775 189.555C43.0342 191.658 36.2904 191.101 29.8806 191.066C27.1764 191.051 25.1918 191.282 24.4326 188.41C23.7912 185.984 23.5341 183.446 22.9221 181C22.1723 178.002 21.348 175.221 19.6842 172.541C18.0704 169.942 16.7125 167.258 15.3072 164.558C12.3846 158.944 8.31641 154.167 3.78058 149.604C2.05747 147.87 0.0826126 145.939 0.00241863 143.443C-0.0563711 141.287 0.96356 139.054 2.30132 137.337C3.49579 135.804 5.46383 134.075 7.69008 134.433C9.03072 134.648 9.90951 135.655 10.9101 136.41C12.0036 137.235 13.1948 137.798 14.5129 138.248C17.5863 139.297 20.1636 140.446 22.8252 142.257C25.5183 144.09 28.0358 146.143 30.3647 148.367C34.8356 152.635 39.4166 157.068 41.9855 162.595C42.9979 164.772 43.6447 166.872 44.3349 169.13C45.013 171.346 46.8589 170.736 48.9347 170.417C51.4644 170.028 54.0067 169.82 56.5533 169.574C57.5118 169.481 58.8632 169.454 59.4403 168.611C60.0767 167.681 59.3477 166.476 59.2899 165.512C59.259 164.996 59.4425 164.617 59.4885 164.114C59.5413 163.543 59.3599 163.021 59.3592 162.452C59.3585 161.228 59.9737 160.138 60.9961 159.397C62.9092 158.009 65.6996 157.182 67.9647 156.418C71.0572 155.376 74.3709 154.864 77.5556 154.12C81.1415 153.282 84.749 152.527 88.3543 151.766C91.8968 151.018 95.4339 150.249 99.0144 149.673C101.115 149.336 103.393 149.459 105.429 148.842C107.593 148.186 107.234 146.159 107.227 144.363C107.217 141.398 107.611 138.344 108.078 135.412C109.07 129.179 111.435 123.079 113.584 117.123C115.655 111.386 118.22 105.88 122.455 101.224C126.578 96.6919 131.638 92.5904 136.886 89.2224C142.355 85.713 148.441 83.1776 154.149 80.0447C152.902 79.1563 151.413 78.3983 150.697 77.0301C149.887 75.4857 150.23 73.6391 150.265 71.9884C150.303 70.1253 150.364 68.49 151.079 66.7153C151.47 65.7433 152.982 63.8997 152.75 62.8428C152.362 61.068 148.192 59.7717 146.656 59.0415C144.248 57.896 141.835 56.7324 139.616 55.2863C137.486 53.8991 135.482 52.2293 134.191 50.0998C133.825 49.4956 133.524 48.861 133.29 48.2023C133.03 47.4674 133.212 47.217 132.423 47.1632C131.163 47.0769 129.275 48.2538 128.214 48.7738C122.743 51.4543 116.734 55.0616 110.278 54.8222C107.936 54.7356 105.302 54.0506 104.474 51.7763C103.384 48.7821 105.661 45.689 107.658 43.5264C103.762 44.0965 96.577 45.8782 93.5025 42.6417C91.4536 40.4851 92.999 37.062 94.7171 35.1919C96.9871 32.7217 100.223 31.2178 103.213 29.646C99.5445 28.344 95.4838 27.5114 92.2581 25.3328C89.1728 23.2494 89.5542 20.0486 91.9909 17.5911C94.596 14.9641 99.1513 13.6186 102.734 12.6433C107.128 11.447 111.494 11.543 116.022 11.6232C124.149 11.767 131.13 14.5562 137.796 18.773C141.321 21.0029 144.795 23.4092 147.921 26.1098C150.852 28.6426 153.98 30.9978 156.869 33.5579C159.668 36.0385 161.87 39.1119 164.824 41.4293C167.336 43.3997 170.09 46.1925 173.282 47.0672C176.666 47.9947 179.712 49.5287 183.125 50.4419C186.996 51.4774 190.322 53.209 193.909 54.861C208.966 61.7942 225.129 66.3063 241.003 71.2839C249.122 73.8297 257.295 75.6242 265.584 77.5684C269.747 78.5447 273.612 79.0657 277.908 78.8891C278.898 78.8487 279.844 78.8246 280.821 78.9527C281.537 79.0463 282.082 79.2984 282.722 78.8998C283.642 78.3274 283.988 76.8375 284.536 75.9893C281.479 75.1069 278.487 74.1523 277.092 71.2357C276.213 69.3978 275.757 67.2542 275.372 65.2822C275.165 64.221 275.16 63.15 274.984 62.0881C274.887 61.5017 274.587 60.8888 274.61 60.2896C274.541 60.623 272.263 59.5266 271.933 59.323C270.659 58.5369 270.427 56.9524 270.437 55.615C270.449 54.1044 270.939 52.444 272.041 51.2985C272.562 50.7561 273.183 50.3496 273.941 50.1453C274.479 50.0002 275.189 50.1901 275.663 50.044C277.768 49.3963 278.003 44.5478 278.302 42.7828C278.959 38.8936 279.615 35.1805 281.035 31.4525C283.624 24.6557 286.956 18.0502 290.925 11.8619C294.325 6.55938 297.723 0.0756312 305.199 0H305.43ZM240.794 163.272C237.768 163.76 234.869 164.757 231.945 165.602C229.215 166.391 226.448 166.893 223.647 167.406C218.073 168.427 212.377 169.362 206.883 170.693C205.337 171.068 204.523 171.913 203.173 172.502C202.173 172.938 201.233 172.496 200.193 172.459C197.927 172.378 195.413 173.066 193.234 173.579C188.089 174.789 183.525 176.891 178.869 179.214C178.453 179.422 175.636 180.622 175.77 181.119C175.878 181.525 179.459 180.436 180.028 180.355C182.911 179.946 185.728 179.1 188.59 178.574C190.939 178.143 193.314 177.85 195.653 177.371C198.256 176.838 203.801 174.985 204.022 178.987C204.26 183.313 199.129 184.643 196.045 186.661C196.388 187.213 201.337 185.393 201.95 185.209C204.054 184.578 206.006 183.439 208.148 182.954C211.875 182.111 211.424 185.943 209.366 187.648C207.08 189.542 203.299 190.114 202.033 193.029C203.696 193.587 205.869 192.539 207.396 192.017C209.402 191.333 211.414 190.659 213.432 190.006C217.961 188.541 222.263 186.522 226.816 185.127C236.158 182.263 246.032 181.442 255.797 180.933C254.927 177.79 253.975 174.666 253.194 171.503C252.859 170.149 252.553 168.789 252.299 167.42C252.123 166.467 252.273 164.189 251.568 163.438C250.71 162.523 248.476 163.808 247.26 163.784C246.068 163.76 245.199 163.187 244.099 163.007C243.054 162.835 241.817 163.108 240.794 163.272ZM65.2672 181.463C65.2672 182.966 64.9875 184.788 67.1099 184.963C68.8266 185.105 72.1848 185.288 73.5542 184.152C72.2419 183.556 70.7505 183.452 69.3567 183.109C67.9043 182.751 66.5633 182.163 65.2672 181.463ZM100.299 154.091C99.6533 154.095 98.5641 154.764 97.9751 154.95C96.8973 155.291 95.802 155.579 94.7016 155.85C91.3955 156.666 87.1387 156.793 85.6206 160.097C84.8629 161.746 84.3375 165.986 81.7043 165.971C79.3638 165.957 77.9622 162.812 76.2926 161.693C74.5669 160.537 71.8311 161.324 69.9701 161.826C68.0789 162.336 65.1441 162.99 65.3563 165.222C65.5089 166.826 65.8199 168.286 65.8052 169.925C65.7869 172.011 65.5976 174.092 65.5976 176.179C66.9254 174.485 68.0835 171.08 70.4359 170.399C72.8122 169.711 74.1565 173.577 74.7745 175.058C75.5405 176.894 76.5034 178.975 76.5619 180.965C76.5802 181.589 76.173 183.305 76.6395 183.819C77.0536 184.275 78.6463 183.944 79.1609 183.894C82.3461 183.586 85.5143 183.202 88.7095 182.944C90.3504 182.812 90.7971 182.477 90.6366 180.833C90.5106 179.543 90.4714 178.313 90.6452 177.017C91.421 171.232 95.2471 165.941 101.717 164.936C105.615 164.331 110.168 164.774 114.059 165.355C115.56 165.579 117.188 166.256 118.712 166.197C119.838 166.153 119.476 166.094 119.706 165.107C119.867 164.417 120.212 163.829 120.776 163.351C121.221 162.973 121.787 163.186 122.206 162.692C122.51 162.335 122.465 161.848 122.608 161.436C122.888 160.635 123.393 159.553 124.4 159.351C126.02 159.025 127.742 161.044 128.56 162.086C129.404 163.163 129.66 166.378 131.018 166.799C132.586 167.284 134.451 165.371 134.778 164.166C135.217 162.545 134.664 160.791 134.399 159.186C134.38 159.071 134.303 158.005 134.218 157.935C133.989 157.748 132.266 157.8 131.96 157.786C130.459 157.719 128.955 157.716 127.452 157.712C121.56 157.699 115.788 157.159 109.935 156.584C110.785 157.875 112.24 159.993 110.746 161.355C109.639 162.364 107.641 161.858 106.25 162.066C104.286 162.36 100.974 164.095 99.102 162.826C96.4639 161.038 99.4483 157.964 100.428 156.274C100.638 155.911 101.416 154.636 101.086 154.211C100.8 153.843 100.717 154.088 100.299 154.091ZM56.3608 173.971C55.0137 174.354 53.6565 174.722 52.2804 175.005C50.6661 175.338 48.1629 175.015 47.3775 176.668C46.7799 177.926 47.0765 179.954 47.5621 181.206C48.118 182.64 49.4227 183.009 50.9627 183.118C52.7598 183.246 54.5806 182.976 56.3565 182.747C57.0564 182.657 57.8027 182.494 58.5138 182.493C58.9358 182.492 59.7876 182.852 60.1629 182.558C60.6488 182.177 60.3288 180.014 60.2908 179.495C60.1963 178.211 59.9345 176.944 59.863 175.657C59.812 174.733 60.1863 173.478 59.023 173.281C58.2987 173.158 56.9904 173.793 56.3608 173.971ZM165.142 148.548C164.135 148.71 163.134 148.826 162.112 148.812C161.482 148.803 160.728 148.604 160.146 148.925C159.07 149.519 159.231 151.084 159.267 152.061C159.312 153.246 159.423 154.449 159.559 155.628C159.689 156.755 160.353 158.612 159.415 159.578C158.753 158.903 158.427 156.698 157.149 156.779C155.745 156.867 156.394 158.957 156.518 159.705C157.207 163.841 157.992 167.98 158.607 172.128C158.899 174.101 159.277 176.058 159.473 178.04C159.604 179.37 159.648 180.568 161.245 180.843C162.724 181.099 164.387 180.663 165.883 180.629C167.423 180.595 168.305 180.497 169.191 179.201C167.069 178.769 163.709 179.034 162.514 176.945C161.12 174.507 164.059 172.315 165.506 170.649C166.616 169.37 168.885 165.117 170.946 167.643C171.688 168.552 171.822 169.94 172.197 170.998C172.806 172.717 173.551 174.411 174.281 176.088C180.964 172.876 187.822 169.98 195.11 168.177C193.252 165.253 190.952 162.62 189.561 159.451C188.002 155.899 186.711 152.25 185.118 148.71C182.591 150.082 179.89 146.754 177.375 146.62C173.4 146.409 169.038 147.919 165.142 148.548ZM125.554 172.494C124.169 173.262 122.131 174.756 121.798 176.301C121.223 178.971 124.497 177.186 125.508 176.601C127.623 175.378 129.696 174.987 132.126 175.741C135.241 176.708 138.113 178.34 141.457 177.1C143.121 176.483 146.812 175.164 145.816 172.798C145.129 171.167 143.12 172.566 142.058 173.151C139.277 174.682 136.975 173.712 134.197 172.607C131.418 171.501 128.289 170.977 125.554 172.494ZM26.8812 158.789C25.7689 160.257 28.03 159.94 29.0227 160.083C31.0985 160.382 33.2364 161.923 32.6643 164.103C32.1065 166.229 29.9212 167.559 29.505 169.79C29.1473 171.707 29.4921 174.133 31.4799 175.185C32.5964 175.776 35.0367 176.019 36.1604 175.34C37.8763 174.304 35.7452 172.76 34.61 172.247C33.1056 171.567 31.8907 171.198 32.6352 169.411C33.5427 167.232 35.3053 165.56 35.1487 163.066C35.0194 161.001 33.8483 158.653 31.7147 157.795C30.187 157.181 27.923 157.414 26.8812 158.789ZM178.746 152.457C180.669 152.38 180.745 154.543 180.648 155.607C180.516 157.062 180.799 158.613 180.832 160.072C180.875 162.005 181.31 168.335 177.639 167.395C175.278 166.79 173.335 164.684 171.437 163.33C169.691 162.084 165.252 160.59 164.965 158.228C164.64 155.56 168.14 155.061 170.145 154.637C173.008 154.032 175.788 152.575 178.746 152.457ZM169.379 82.1451C166.33 82.4189 163.298 82.8406 160.396 83.7834C158.433 84.4214 155.417 84.8788 154.025 86.4442C152.822 87.798 153.344 89.7279 152.953 91.3275C152.424 93.4914 150.819 93.1955 149.263 91.8444C147.4 90.2268 146.862 89.0555 144.269 90.5735C138.902 93.7158 134.647 98.355 130.389 102.653C133.681 103.581 140.14 103.806 141.233 107.635C141.831 109.729 140.029 111.252 138.41 112.394C136.32 113.87 134.137 115.234 132.093 116.769C130.184 118.201 125.906 123.903 124.696 118.89C123.946 115.787 125.35 112.58 124.754 109.514C122.166 113.4 119.537 117.277 117.164 121.282C115.144 124.691 113.969 128.338 113 132.107C114.511 132.199 116.083 131.486 117.576 131.907C119.014 132.313 119.687 133.58 119.788 134.892C119.96 137.116 118.856 139.38 118.301 141.517C117.92 142.984 117.483 146.314 115.563 146.791C113.375 147.335 112.002 144.202 111.027 142.929C110.098 144.258 110.114 146.202 109.978 147.726C109.885 148.773 109.257 150.731 110.523 151.311C111.707 151.853 114.205 151.173 115.471 151.124C117.821 151.031 120.217 150.853 122.568 150.918C124.789 150.979 128.057 152.085 128.925 149.543C129.516 147.813 130.036 141.594 133.187 144.968C134.587 146.466 135.682 148.174 137.034 149.701C138.398 151.241 139.638 151.342 141.675 151.264C145.707 151.11 149.645 151.831 153.59 152.413C157.052 152.923 156.598 150.188 156.546 147.752C156.468 143.977 157.272 140.029 157.71 136.275C158.753 127.347 160.894 118.527 164.187 110.083C161.432 109.21 156.494 112.734 154.457 110.058C152.783 107.858 154.934 104.828 155.81 102.771C156.902 100.206 157.454 97.5258 159.235 95.2522C159.797 94.5343 160.597 93.5724 161.685 93.8141C162.619 94.0217 162.991 95.1304 163.516 95.756C165.184 97.7414 167.315 99.2303 168.797 101.396C169.704 102.721 170.409 104.136 170.704 105.692C170.785 106.119 170.682 106.995 171.005 107.354C172.008 108.466 175.166 108.449 176.569 109.131C181.361 111.459 183.045 118.236 184.905 122.509C185.43 123.712 185.949 124.918 186.228 126.194C186.414 127.047 186.405 128.131 186.902 128.895C187.986 130.565 191.355 129.074 193.008 128.815C195.778 128.382 198.535 127.969 201.317 127.605C203.014 127.383 205.485 126.811 206.778 128.211C208.119 129.662 207.348 131.948 206.675 133.505C205.576 136.047 204.173 138.475 203.013 140.993C202.089 143.002 201.628 145.59 199.851 147.137C198.312 148.479 195.765 148.863 193.952 147.772C192.918 147.149 190.263 141.123 189.562 141.392C190.827 146.046 192.682 150.792 194.641 155.234C195.242 156.599 196.276 159.381 197.796 160.121C199.056 160.734 201.915 159.575 203.205 159.35C204.427 159.137 206.841 158.213 208.01 158.89C209.426 159.711 209.599 161.901 209.758 163.261C209.876 164.269 209.662 165.021 210.979 164.971C211.907 164.936 212.844 164.515 213.734 164.303C215.802 163.811 217.948 163.486 220.053 163.17C224.921 162.438 229.787 161.708 234.653 160.958C238.836 160.313 242.965 160.317 246.744 158.469C248.66 157.533 250.857 157.247 252.897 156.621C254.92 156 256.937 155.597 259.055 155.364C263.684 154.854 268.188 154.355 272.763 153.482C275.266 153.004 277.765 152.504 280.255 151.969C282.472 151.492 284.615 150.735 286.821 150.268C288.656 149.879 290.163 150.171 290.949 148.232C291.513 146.842 291.382 145.283 291.527 143.828C292.188 137.178 289.687 130.49 289.175 123.876C289.009 121.734 288.958 119.586 288.786 117.446C288.707 116.465 288.754 113.61 287.525 113.081C287.414 113.865 287.501 115.185 286.544 115.574C287.011 115.384 286.397 117.7 286.364 117.933C286.234 118.858 286.56 119.848 286.388 120.755C286.524 121.074 286.465 121.315 286.21 121.477C286.036 121.608 285.909 121.774 285.83 121.974C285.818 122.621 286.021 122.24 286.031 122.463C286.127 124.688 285.723 126.996 285.896 129.275C286.079 131.685 286.657 134.049 287.096 136.425C287.49 138.559 287.914 140.696 288.243 142.839C288.473 144.343 288.644 146.069 287.775 147.438C286.125 150.037 281.347 149.754 278.565 150.179C273.94 150.886 269.309 151.524 264.667 152.124C262.885 152.355 261.081 152.881 259.278 152.907C257.352 152.935 256.322 152.211 255.107 150.888C252.661 148.222 251.083 145.194 249.046 142.294C247.901 140.665 246.949 140.236 245.022 139.739C243.233 139.277 241.797 138.061 240.341 137.05C237.282 134.926 233.333 132.617 231.326 129.489C229.214 126.198 232.19 125.105 235.04 124.207C234.346 122.491 232.986 121.113 231.866 119.637C230.592 117.958 229.437 116.215 228.066 114.6C225.27 111.307 222.478 108.032 219.765 104.678C217.446 101.812 215.102 99.0962 212.143 96.7741C209.17 94.4417 205.861 92.5302 202.597 90.5775C200.892 89.5574 197.898 86.9511 195.743 87.2176C193.653 87.4764 192.826 91.1015 192.304 92.6251C191.704 94.3735 191.493 96.8113 190.096 98.1878C188.044 100.211 185.914 97.0242 184.934 95.5557C183.141 92.8659 181.306 90.2 179.515 87.5078C178.699 86.2804 177.521 85.1125 177.036 83.7209C177.031 83.7042 176.804 82.5075 177.033 82.675L177.049 82.6884L177.033 82.6724C176.521 82.1999 174.629 82.102 173.922 82.0448L173.857 82.0394C172.369 81.9087 170.863 82.0117 169.379 82.1451ZM149.392 157.571C147.677 157.561 145.968 157.747 144.262 157.877C142.763 157.991 141.39 157.777 139.894 157.693C138.043 157.59 137.127 157.77 137.553 159.55C137.863 160.845 138.236 162.57 139.664 163.117C141.593 163.857 144.192 163.757 146.248 164.037C147.757 164.243 149.262 164.429 150.764 164.663C151.762 164.819 152.275 164.982 152.742 163.929C153.133 163.046 152.881 161.867 152.748 160.956C152.645 160.257 152.707 159.026 152.352 158.404C151.822 157.475 150.434 157.577 149.392 157.571ZM229.304 139.823C231.822 141.967 233.517 144.707 235.418 147.305C236.579 148.892 238.851 151.421 237.202 153.345C235.796 154.985 232.528 154.609 230.562 154.688C227.473 154.812 224.95 156.112 222.01 156.782C214.606 158.471 220.755 146.884 221.781 144.466C222.501 142.769 223.243 141.08 224.113 139.445C224.506 138.708 225.289 136.558 226.265 136.277C227.68 135.868 228.408 139.061 229.304 139.823ZM165.687 115.461C164.51 117.556 164.319 120.455 163.761 122.742C162.055 129.736 161.058 136.859 160.274 143.987C164.174 142.547 168.29 142.448 172.408 142.095C175.391 141.84 178.131 141.547 181.115 141.666C181.623 141.686 183.086 141.926 183.505 141.524C184.068 140.984 183.386 139.476 183.22 138.908C182.316 135.82 181.918 132.63 180.89 129.562C179.842 126.433 178.568 123.309 177.213 120.284C176.222 118.072 174.86 115.914 172.458 114.829C170.355 113.879 166.992 113.138 165.687 115.461ZM149.626 129.074C151.233 131.329 153.268 133.301 154.837 135.578C155.95 137.192 157.253 140.179 154.58 141.205C153.642 141.565 152.535 141.41 151.552 141.426C150.031 141.45 148.526 141.572 147.003 141.538C145.563 141.506 144.137 141.343 142.7 141.273C141.795 141.23 140.657 141.295 139.86 140.81C137.722 139.512 139.268 136.861 139.956 135.165C140.688 133.363 141.675 131.659 142.628 129.952C143.288 128.767 144.276 126.354 145.778 125.871C147.557 125.3 148.885 128.033 149.626 129.074ZM227.539 103.521C231.07 107.344 234.137 111.514 237.024 115.773C238.433 117.852 239.802 119.954 241.168 122.057C242.062 123.434 242.733 125.194 243.822 126.44C246.306 129.284 246.997 123.08 247.363 121.732C248.713 116.76 250.386 111.827 251.874 106.886H250.349C244.271 106.883 238.443 106.8 232.525 105.132C230.85 104.661 229.322 103.636 227.539 103.521ZM214.701 104.485C216.623 105.807 228.931 113.569 223.754 116.564C222.683 117.184 220.932 116.903 219.721 116.992C218.17 117.106 216.594 117.246 215.061 117.501C213.077 117.833 211.149 118.411 209.156 118.704C207.571 118.937 205.471 119.209 204.054 118.29C201.719 116.774 203.137 113.797 203.908 111.87C205.004 109.132 206.042 105.466 208.762 103.835C209.395 103.455 210.17 102.1 210.851 101.976C211.917 101.781 213.921 103.949 214.701 104.485ZM282.604 40.0986C281.676 40.7596 281.633 42.1325 281.393 43.1014C280.583 46.3607 279.453 49.5334 278.783 52.8275C278.129 56.0403 277.924 59.2033 278.244 62.4592C278.459 64.6309 278.483 67.3031 279.901 69.1524C281.598 71.3651 284.958 71.2518 287.499 71.9071C289.944 72.5377 292.368 74.4907 289.701 76.5209C288.754 77.2421 287.509 77.3595 286.572 78.0543C285.417 78.9119 284.753 80.4486 284.262 81.7051C283.858 82.7396 283.87 82.9372 285.077 83.3026C285.629 83.4695 286.186 83.5755 286.767 83.5307C288.088 83.4283 289.267 82.6159 290.374 82.0053C293.196 80.4482 296.455 78.3695 299.825 78.1345C300.902 78.0596 302.126 78.4699 303.173 78.1442C304.149 77.8403 303.849 77.6544 304.019 76.8094C304.69 73.4605 304.963 70.1735 306.797 67.1439C307.702 65.649 310.095 62.591 311.7 64.9184C312.369 65.8904 312.612 66.3652 314.098 66.0669C315.307 65.8245 316.636 64.9341 316.396 63.6338C316.17 62.4071 314.437 61.5719 313.387 61.0342C311.988 60.3187 311.007 60.4013 309.484 60.2318C305.299 59.766 308.233 54.0676 308.837 51.9294C309.216 50.5856 309.659 48.8486 308.664 47.6353C307.149 45.7896 303.848 46.3965 301.769 46.6583C298.893 47.0204 295.754 47.2133 293.063 45.9983C290.215 44.713 289.002 41.8141 286.332 40.4048C285.346 39.8839 283.617 39.3757 282.604 40.0986ZM295.099 63.6395C297.077 63.6148 296.116 66.2411 295.574 67.1242C294.433 68.9865 291.988 69.7067 289.842 69.02C288.144 68.4766 286.307 66.0766 288.966 65.6788C290.242 65.4882 291.504 65.5657 292.712 65.001C293.401 64.6794 294.291 63.6496 295.099 63.6395ZM290.136 49.6735C291.365 50.3683 289.267 54.8059 288.914 55.7039C288.338 57.1698 287.826 58.116 289.29 59.2458C290.308 60.0315 292.315 60.7096 291.357 62.2754C290.47 63.7241 287.426 63.1166 286.188 62.4078C284.39 61.3769 284.92 59.4026 285.316 57.7823C285.576 56.7207 287.947 48.4364 290.136 49.6735ZM96.5644 20.5371C100.355 22.0447 104.232 23.4065 108.243 24.315C111.748 25.1091 115.195 25.9654 118.808 25.7788C122.151 25.6066 122.549 28.6636 120.64 30.7808C119.603 31.9309 118.4 31.9022 116.888 31.9467C115.119 31.9988 113.511 32.4559 111.805 32.8651C109.206 33.4884 106.574 34.0176 104.056 34.8973C102.756 35.3514 101.474 35.8854 100.314 36.6029C99.5858 37.0543 97.9597 37.8674 98.8198 38.498C100.063 39.4091 103.754 38.161 105.233 38.0787C108.678 37.8875 112.117 37.5979 115.542 37.1964C117.22 36.9994 119.022 36.8048 120.611 36.2374C121.65 35.8663 122.801 34.9448 123.979 35.1789C126.462 35.6727 125.232 39.1393 124.104 40.2671C122.429 41.9419 119.887 42.6815 117.724 43.633C116.212 44.2984 114.71 45.0029 113.241 45.7475C112.548 46.0992 109.316 47.4169 109.418 48.4173C109.525 49.4689 112.077 48.9386 112.708 48.843C116.919 48.2053 120.719 46.6894 124.61 45.138C126.313 44.4589 128.04 43.8072 129.707 43.0543C130.872 42.528 132.017 41.7262 133.304 41.4871C136.337 40.9231 136.205 44.0777 137.399 45.7819C140.949 50.8468 147.809 53.0074 153.147 55.9343C155.166 57.0414 157.092 58.3162 158.944 59.65C160.268 60.6022 160.797 61.9129 162.275 60.6571C163.506 59.6102 164.1 58.0748 164.889 56.7434C165.808 55.1934 167.036 53.8249 167.978 52.2875C169.37 50.0162 169.787 47.8499 166.73 47.014C163.521 46.1367 160.981 44.8284 158.253 42.9617C151.56 38.3803 146.005 32.5301 139.331 27.9137C133.147 23.6366 126.59 19.623 118.838 18.4745C111.491 17.3855 103.431 17.6536 96.5644 20.5371ZM297.108 53.4353C296.951 54.6965 296.617 57.3864 294.735 57.4871C292.45 57.6091 293.985 51.145 295.279 50.4174C297.352 49.2526 297.241 52.3667 297.108 53.4353ZM275.841 52.9204C272.988 53.1404 272.175 56.0497 275.027 57.0798L275.841 52.9204ZM286.42 50.3673C286.053 51.6877 286.184 53.8065 285.046 54.8199C283.441 56.2479 282.743 54.1522 282.755 52.9572C282.766 51.7753 283.395 48.8189 285.095 48.6631C286.546 48.53 285.338 50.0968 286.42 50.3673ZM317.208 20.9912C316.165 23.0117 317.287 25.0058 317.911 26.9918C316.631 27.376 314.905 27.0855 314.123 28.3453C313.631 29.1394 313.717 30.3351 313.864 31.195C313.985 31.9005 314.606 32.8504 314.089 33.5051C313.412 34.362 311.732 33.9658 310.985 34.9191C309.85 36.3688 310.487 39.6803 312.08 40.7716C314.318 42.3046 312.982 38.5425 312.845 37.8574C312.502 36.1411 314.412 36.3745 315.716 35.6814C316.416 35.3096 316.541 35.2377 316.702 34.444C316.85 33.7127 316.771 33.1326 316.584 32.3445C315.949 29.6707 317.059 30.1074 319.341 29.5182C321.309 29.0097 321.151 27.5455 320.651 26.0065C320.259 24.8001 319.09 22.8211 320.357 21.7926C320.859 21.3844 321.622 21.6425 321.731 20.7906C321.804 20.2155 320.975 19.2726 320.54 18.9419C319.04 17.8017 317.818 19.8096 317.208 20.9912Z" fill="black"/>
</svg>
