<svg width="546" height="474" viewBox="0 0 546 474" fill="none" xmlns="http://www.w3.org/2000/svg">
<path fill-rule="evenodd" clip-rule="evenodd" d="M136.398 263.362C139.506 289.25 142.614 315.139 145.723 341.027L148.232 361.933C148.549 364.572 148.25 369.775 149.457 372.137C149.884 372.97 151.004 373.365 151.828 373.856C154.664 375.548 157.501 377.239 160.337 378.93C184.328 393.234 208.319 407.539 232.309 421.843C255.334 435.571 278.358 449.299 301.382 463.027C303.765 464.448 307.619 468.155 310.191 467.178C312.636 466.25 315.135 463.96 317.354 462.516C321.615 459.743 325.876 456.97 330.137 454.196C355.92 437.416 381.703 420.635 407.486 403.855C418.124 396.931 428.761 390.008 439.399 383.085C442.309 381.19 445.221 379.296 448.131 377.402C449.653 376.411 449.851 376.446 450.451 374.764C452.691 368.477 453.728 361.276 455.313 354.753C457.06 347.564 458.807 340.376 460.553 333.187C461.332 329.979 460.967 329.565 459.696 326.469C457.182 320.34 454.669 314.212 452.155 308.084C446.575 294.482 440.996 280.881 435.416 267.279C433.16 261.778 427.725 257.908 423.812 253.862L363.06 191.048C361.516 189.452 359.973 187.857 358.43 186.261C358.176 195.85 356.47 206.159 358.973 215.423C363.08 230.626 367.186 245.829 371.293 261.031C373.278 268.38 375.263 275.728 377.248 283.076C377.617 284.441 379.862 289.855 379.262 291.056C378.929 291.721 376.093 292.395 375.479 292.654C372.84 293.769 370.201 294.884 367.562 295.999C360.209 299.105 352.857 302.212 345.504 305.318C338.891 308.112 332.278 310.906 325.664 313.7C323.422 314.648 320.788 316.402 318.42 316.256C316.301 316.125 313.892 314.961 311.842 314.374C308.238 313.344 304.633 312.312 301.029 311.281C293.949 309.256 286.868 307.231 279.788 305.205C271.822 302.926 265.095 296.234 258.283 291.28C246.573 282.766 234.864 274.251 223.155 265.737C220.474 263.788 220.464 262.676 219.396 259.117C216.996 251.119 214.595 243.121 212.194 235.122C210.912 230.852 209.336 226.563 208.368 222.191C206.771 214.976 205.824 207.506 204.559 200.211C204.178 198.01 203.796 195.808 203.415 193.607C198.511 195.817 193.608 198.027 188.703 200.238C187.993 200.558 184.529 201.513 184.221 202.298C184.026 202.794 185.056 205.045 185.204 205.529C189.27 218.903 193.336 232.276 197.402 245.65C198.682 249.857 199.96 254.063 201.239 258.27C198.183 252.936 195.126 247.602 192.07 242.268C189.669 251.239 187.267 260.21 184.865 269.181C179.189 261.907 173.513 254.633 167.836 247.36C165.871 254.633 163.906 261.907 161.941 269.181C155.829 260.21 149.716 251.239 143.603 242.268C142.876 246.949 142.149 251.631 141.422 256.312C141.203 257.725 141.247 261.779 140.4 262.898C139.702 263.819 137.694 263.362 136.398 263.362Z" fill="#FF5678"/>
<path fill-rule="evenodd" clip-rule="evenodd" d="M523.438 319.322C523.094 331.508 523.332 347.327 517.327 358.042C516.357 359.771 513.074 365.158 512.707 360.419C512.348 355.767 513.379 351.16 512.358 346.454C511.811 343.936 509.974 338.435 506.834 340.71C505.234 341.869 504.812 344.731 504.186 346.538C503.259 349.211 502.222 351.842 501.247 354.495C497.841 363.755 494.312 374.806 486.741 380.934C487.732 372.949 490.433 364.423 488.617 356.351C487.999 353.6 486.124 348.577 482.897 350.189C479.752 351.759 477.714 358.767 476.23 361.887C471.73 371.348 467.127 380.631 462.061 389.738C459.513 394.319 456.76 398.506 453.426 402.424C451.341 404.875 448.742 409.018 445.456 409.383C445.456 402.398 447.525 395.649 449.415 389.072C451.447 381.999 453.3 374.866 455.295 367.78C457.026 361.633 458.446 355.533 459.598 349.229C460.076 346.623 460.453 343.923 462.454 342.24C464.253 340.727 467.094 340.006 469.099 338.894C474.365 335.972 479.781 332.82 484.673 329.188C486.682 327.697 488.411 325.771 490.514 324.433C492.91 322.91 495.148 321.627 497.365 319.77C506.931 311.757 515.555 301.9 521.366 290.166C522.309 294.88 523.559 299.486 523.697 304.346C523.838 309.328 523.578 314.342 523.438 319.322ZM444.705 375.335C443.175 372.466 440.844 373.641 438.79 375.025C435.603 377.171 432.408 379.303 429.204 381.422C422.685 385.735 416.287 390.274 409.918 394.854C396.953 404.173 383.536 411.801 369.868 419.69C356.657 427.314 343.969 436.386 331.591 445.557C328.616 447.761 325.662 450.017 322.806 452.407C320.271 454.528 318.243 457.508 315.574 459.397C312.794 461.364 310.884 459.768 308.225 458.317C304.901 456.503 301.436 454.983 298.037 453.347C284.323 446.744 270.57 439.89 257.229 432.395C243.968 424.947 231.404 416.364 218.699 407.84C212.647 403.781 206.7 399.464 200.731 395.255C194.379 390.777 187.803 387.422 181.14 383.614C178.192 381.929 175.58 379.641 172.553 378.11C169.369 376.5 166.007 375.345 163.156 373.022C161.879 371.981 160.801 370.736 159.34 370C158.141 369.395 156.78 369.293 155.596 368.651C153.187 367.345 152.497 364.693 152.031 361.936C149.03 344.234 147.435 326.042 145.696 308.143C144.719 298.077 143.629 288.051 142.278 278.039C141.669 273.525 142.894 270.028 143.537 265.637C144.288 260.508 144.584 255.272 145.087 250.108C147.461 254.992 149.514 260.117 152.534 264.573C154.76 267.857 158.563 272.515 162.662 272.405C169.033 272.234 168.742 260.098 168.999 255.28C171.901 258.157 172.781 262.844 175.19 266.185C177.389 269.236 180.383 273.021 183.76 274.387C190.872 277.264 190.187 262.603 189.796 258.446C189.6 256.36 188.54 253.061 191.055 254.012C193.372 254.888 195.626 258.518 197.573 260.183C200.939 263.062 204.631 265.454 208.084 268.202C212.368 271.612 216.991 274.076 221.359 277.252C224.091 279.238 227.071 279.684 230.049 281.145C234.412 283.285 238.267 286.476 242.42 289.042C250.644 294.121 259.768 298.676 268.764 301.738C271.675 302.729 275.553 305.522 277.761 302.652C279.121 300.886 280.014 298.188 281.168 296.208C282.628 293.701 284.178 291.261 285.788 288.87C291.511 280.374 297.863 272.351 304.916 265.185C313.122 256.849 322.095 249.346 331.693 243.098C335.816 240.414 353.035 228.381 356.82 236.85C353.71 236.634 351.014 237.898 348.354 239.48C347.705 239.866 344.358 242.521 345.141 240.181C344.168 240.383 343.316 241.791 342.579 242.418C341.307 243.5 339.377 244.749 337.903 245.646C336.446 246.531 334.647 246.748 333.319 247.821C332.834 248.213 332.54 248.849 332.078 249.273L330.752 249.285C330.554 250.1 330.355 250.915 330.157 251.73C329.408 249.063 328.339 252.532 327.087 253.658C326.334 254.335 325.143 255.033 324.257 255.47C323.595 255.797 323.493 255.037 322.849 255.615C322.278 256.128 321.914 257.257 321.3 257.9C320.546 258.687 319.581 259.299 318.741 259.971C317.131 261.259 315.428 262.27 313.797 263.49C311.603 265.133 310.452 267.957 308.322 269.674C307.313 270.487 305.746 270.583 305.199 271.104C303.83 272.411 304.281 274.393 301.727 274.48C301.959 274.893 302.099 275.341 302.147 275.825C301.538 275.708 300.997 275.428 300.524 274.984C300.63 277.814 298.125 278.824 296.623 280.566C295.757 281.57 294.678 282.981 294.068 284.19C293.966 284.392 293.772 286.004 293.73 286.026C293.499 286.15 292.087 284.773 292.221 284.888C291.827 287.502 289.549 289.974 288.552 292.394C288.026 293.669 287.493 295.718 286.457 296.615C286.175 296.859 285.309 296.604 284.593 297.452C284.068 298.073 283.462 299.221 283.248 300.046C283.106 300.596 283.277 302.02 283.073 302.351C282.698 302.954 282.115 302.348 281.528 302.794C280.444 303.619 280.416 304.908 278.829 305.077C279.923 308.029 286.528 308.939 288.928 309.778C295.717 312.151 302.839 314.521 309.185 318.155C310.826 319.095 312.379 319.869 312.67 322.035C313.075 325.047 311.693 329.054 311.429 332.097C310.714 340.316 310.568 348.776 310.718 357.03C310.859 364.848 311.087 372.739 311.415 380.547C311.719 387.787 313.033 394.883 313.743 402.071C313.937 404.045 313.808 412.942 316.862 412.494C319.413 412.12 317.802 406.043 317.754 404.301C317.648 400.445 318.379 396.508 318.348 392.618C318.333 390.748 319.07 389.137 319.14 387.348C319.21 385.58 318.419 384.182 318.656 382.349C318.884 380.591 323.566 370.474 319.07 371.659C319.333 370.213 319.563 368.755 319.911 367.33C320.392 367.81 320.78 368.371 321.072 369.011C321.472 365.904 321.338 362.802 321.587 359.693C321.698 358.285 322.212 356.742 322.037 355.322C322.07 354.733 322.003 354.156 321.835 353.59C321.558 353.265 321.216 353.094 320.809 353.077C320.595 352.3 320.54 352.086 320.92 351.323C321.083 350.806 321.406 350.483 321.891 350.355C322.813 350.233 322.918 349.645 322.206 348.589C322.578 346.506 322.625 345.191 322.358 343.112C322.132 341.366 322.961 337.984 322.117 336.429C321.131 334.612 320.641 336.375 320.457 333.855C320.418 333.322 320.387 332.211 320.58 331.679C320.792 331.1 321.427 331.337 321.509 331.131C322.061 329.731 322.098 326.974 320.144 327.214C320.22 326.213 320.297 325.213 320.373 324.213C321.784 326.018 321.291 324.49 322.092 323.487C323.17 322.136 324.224 321.903 325.765 321.368C329.873 319.946 333.83 317.805 337.843 316.068C346.342 312.39 354.999 309.106 363.249 304.759C380.601 295.615 397.608 285.692 415.066 276.789C413.819 274.219 414.595 274.094 415.506 271.68C416.723 272.619 416.467 271.964 417.333 271.907C417.254 271.101 417.48 270.858 418.009 271.178C418.43 271.321 418.862 271.372 419.304 271.33C420.385 271.536 421.268 272.196 422.25 272.447C422.573 272.711 422.927 272.909 423.313 273.042C423.661 272.954 423.957 272.763 424.202 272.47C425.792 272.797 426.328 274.127 426.398 276.053C426.409 276.389 425.486 276.732 425.751 277.182C426.212 277.969 427.455 277.781 428.167 277.882C428.011 278.699 427.855 279.516 427.7 280.333C430.821 278.734 430.007 283.74 430.953 285.385C431.217 285.844 431.804 285.477 432.11 286.009C432.508 286.703 432.389 287.685 432.729 288.376C433.497 289.939 434.266 289.75 435.031 291.54C439.033 300.886 444.355 309.593 448.196 319.14C450.025 323.684 451.674 328.305 453.583 332.809C455.34 336.954 456.344 340.478 455.092 345.005C452.187 355.506 449.082 366.198 445.276 376.341C445.086 376.006 444.896 375.671 444.705 375.335ZM242.13 453.718C241.857 454.233 241.585 454.748 241.312 455.264C240.707 451.398 242.32 453.191 242.13 453.718ZM229.32 446.479C228.447 446.189 228.824 444.606 228.852 443.929C229.405 444.693 229.946 445.472 230.406 446.311C230.044 446.367 229.682 446.423 229.32 446.479ZM194.212 431.618C195.129 431.047 195.789 430.637 196.828 429.989C195.772 432.276 195.772 432.276 194.212 431.618ZM138.98 230.182C137.579 234.001 141.85 257.58 137.874 258.349C137.303 256.28 137.232 250.582 134.871 249.901C131.941 249.057 132.23 254.923 131.83 256.737C125.815 252.09 123.143 243.116 120.27 236.004C116.608 226.938 113.726 217.51 110.974 208.064C108.62 199.988 106.674 191.769 104.296 183.706C102.802 178.643 101.192 173.566 100.187 168.347C99.9689 167.213 99.1103 164.337 99.8399 163.259C100.9 161.692 104.717 163.487 105.947 163.899C113.927 166.565 122.204 167.713 130.402 169.262C139.511 170.983 148.599 172.761 157.763 174.095C160.053 174.428 162.344 174.744 164.636 175.051C166.123 175.25 168.373 175.051 169.785 175.791C172.644 177.289 173.252 183.021 174.314 185.994C178.274 197.088 182.936 207.831 187.106 218.825C190.863 228.728 193.71 239.264 199.111 248.281C195.083 246.298 189.979 235.815 185.479 241.857C183.544 244.456 184.032 247.879 184.187 250.988C184.411 255.483 184.481 260.012 184.481 264.514C180.077 263.244 177.118 257.692 174.806 253.759C171.647 248.387 169.658 243.325 168.26 237.167C167.654 234.501 166.048 234.435 164.621 232.839C163.704 231.813 163.243 230.431 161.928 231.923C160.275 233.798 161.374 238.991 161.66 241.205C162.338 246.473 164.561 254.581 162.4 259.532C159.483 266.213 151.666 249.402 150.75 246.975C150.284 245.739 141.968 222.037 138.98 230.182ZM133.519 115.687C134.011 115.771 134.503 115.855 134.996 115.938C134.599 116.327 133.773 117.692 133.098 117.331C133.238 116.783 133.379 116.236 133.519 115.687ZM159.606 109.47C159.452 109.659 159.297 109.847 159.142 110.035C158.436 109.054 158.686 107.625 158.686 106.491C159.62 107.117 159.848 108.37 159.606 109.47ZM161.714 120.349V123.554C159.758 122.613 159.72 122.127 161.714 120.349ZM164.089 124.424C162.719 124.006 162.555 123.669 162.748 121.331C163.316 122.641 163.69 123.504 164.089 124.424ZM171.976 148.158C171.402 149.799 168.045 145.888 168.168 144.718C168.285 143.602 168.801 143.268 169.512 143.986C169.747 144.224 169.398 145.083 169.548 145.381C170.09 146.461 171.182 147.344 171.976 148.158ZM172.013 158.044C171.173 160.376 169.673 156.704 171.871 156.603C172.015 157.072 172.063 157.553 172.013 158.044ZM170.382 154.367C170.056 153.885 169.74 153.396 169.433 152.899C170.565 153.153 171.463 154.984 172.657 153.762C172.516 155.626 171.324 155.677 170.382 154.367ZM97.1932 124.077C95.373 121.871 107.242 120.322 108.673 119.943C119.064 117.192 128.874 113.21 138.589 108.324C143.223 105.994 147.834 103.635 152.36 101.051C154.314 99.9361 156.993 98.9906 158.625 97.3162C159.791 96.1211 159.744 95.217 161.258 94.5049C162.544 93.9019 162.608 94.4714 163.197 93.3804C163.551 92.7257 163.951 90.3269 163.744 89.617C163.18 87.68 162.346 89.2504 161.176 87.9156C160.333 86.9533 160.537 84.217 160.767 83.0837C161.066 83.6234 161.237 84.2097 161.283 84.8411C162.553 84.1457 162.041 81.7577 163.43 81.3664C164.894 80.9547 164.743 82.2211 165.125 83.5158C166.231 81.7119 165.344 80.1735 164.745 78.4118C167.789 77.779 171.059 77.1659 174.076 78.2904C176.258 79.1028 178.125 81.1009 180.428 81.4872C182.684 81.8647 183.118 80.6769 184.781 79.4716C186.131 78.4933 187.29 79.6455 187.985 78.9064C187.556 81.4013 183.874 81.0602 184.327 84.1777C184.531 85.5808 186.079 86.8413 186.784 87.9331C187.669 89.3035 188.374 90.8186 188.977 92.3628C191.321 98.3694 192.323 105.34 193.307 111.763C195.734 127.618 196.041 143.786 198.325 159.692C199.413 167.269 200.503 174.849 201.068 182.5C201.21 184.413 202.262 188.752 201.401 190.592C200.673 192.145 199.054 192.15 197.633 192.526C194.852 193.26 192.241 194.257 189.573 195.362C187.182 196.352 186.487 196.959 184.952 194.461C183.467 192.043 182.733 189.161 181.67 186.51C180.317 183.133 178.682 179.875 177.113 176.617C180.196 176.617 181.97 174.769 181.888 171.29C181.799 167.436 178.946 166.522 177.769 163.355C176.625 165.005 176.529 165.052 175.713 163.485C174.781 161.693 174.151 158.415 173.581 156.383C173.989 156.867 174.397 157.35 174.805 157.833C175.834 156.261 174.222 153.782 173.683 152.301C172.851 150.014 172.704 147.542 171.915 145.261C171.485 144.017 170.488 143.037 170.244 141.739C170.081 140.87 170.734 140.043 170.579 139.16C170.309 137.624 168.745 135.976 168.258 134.413C167.509 132.01 166.696 129.894 165.768 127.553C164.511 124.384 164.803 121.058 164.573 117.685C164.335 114.188 163.326 110.842 162.97 107.36C162.723 104.955 163.494 101.926 161.856 99.9994C161.664 103.202 162.49 103.153 159.781 103.729C156.696 104.384 154.459 106.936 151.542 107.698C150.941 107.855 150.503 104.938 150.737 108.917C149.338 107.77 146.352 109.194 147.466 109.875C146.622 110.878 144.959 110.184 144.681 111.687C141.812 108.589 137.211 119.134 133.794 113.633C133.23 117.361 130.799 119.565 127.536 120.058C125.896 120.305 124.884 120.913 123.428 121.459C123.133 121.569 123.024 122.041 122.674 122.168C122.14 122.362 121.355 121.778 120.97 121.891C120.186 122.122 119.315 123.268 118.22 123.496C116.965 123.757 115.596 123.637 114.34 123.475C112.77 123.273 112.078 123.066 110.541 123.641C109.157 124.158 107.676 125.606 106.392 124.03C104.375 127.904 99.5674 126.957 97.1932 124.077ZM190.423 77.3193C188.897 77.1164 189.957 75.6587 190.664 75.2209C192.584 74.0323 192.071 77.539 190.423 77.3193ZM105.92 91.2237C114.877 76.8727 130.198 67.0125 143.678 58.7161C151.042 54.1846 158.557 49.7921 166.288 46.0832C170.132 44.24 174.021 42.4682 177.946 40.8491C180.042 39.9842 182.163 39.1979 184.286 38.4153C184.873 38.1992 185.941 37.5359 186.555 37.6006C186.449 37.589 188.082 38.0821 187.761 38.2371C188.813 37.7286 189.313 36.4026 190.55 35.8724C191.939 35.276 193.71 35.0294 195.199 34.9755C196.516 34.9275 197.656 35.532 198.911 35.5793C199.735 35.6098 200.436 35.1749 201.244 35.1108C201.657 35.0788 201.62 35.7655 201.869 35.8055C201.977 35.8229 203.078 35.364 203.088 35.372C203.489 35.6578 203.844 36.7736 204.206 37.2093C205.245 38.4589 206.77 39.3296 208.155 39.9871C209.841 40.7872 213.953 41.5917 212.047 44.5521C213.401 44.3361 214.031 45.6948 212.336 46.0388C211.418 46.2258 211.026 45.2918 210.344 44.6546C208.769 43.1854 204.945 41.0934 202.676 41.188C201.4 41.2411 200.413 42.3169 199.236 42.7075C198.078 43.0915 197.504 42.4958 196.487 42.5904C195.299 42.7002 194.534 43.8167 193.402 44.0153C192.342 44.2015 191.751 43.3985 190.803 43.4545C189.677 43.5207 188.585 44.6074 187.51 44.9725C185.799 45.5529 184.543 45.9486 182.873 46.9109C179.636 48.7766 176.021 49.4851 172.685 51.0911C170.018 52.3749 166.995 53.0507 164.527 54.4705C161.782 56.0481 159.026 57.62 156.338 59.3344C154.397 60.5731 150.45 60.9994 148.31 60.6844C148.279 65.0617 146.339 61.9929 144.384 63.9103C144.846 64.3634 145.372 64.6966 145.958 64.9097C143.839 65.8494 141.881 67.0191 139.828 68.0992C137.707 69.2164 135.443 69.4623 134.049 71.5753C132.766 73.5225 133.2 72.518 131.285 73.2846C130.406 73.6367 129.641 74.7103 129.008 75.4311C127.919 76.6705 127.678 78.5471 127.057 75.9999C126.875 76.3105 126.162 78.2882 126.023 78.3384C125.244 77.4204 125.132 78.5086 124.696 78.8977C124.926 79.7437 124.598 80.2979 123.714 80.5605C123.267 80.93 122.813 81.2922 122.356 81.6464C120.695 82.9259 118.58 84.0235 117.411 85.9299C116.548 85.3648 116.228 84.3894 116.754 83.3936C115.105 85.0811 113.138 86.8144 112.692 89.4118C112.487 89.1922 112.248 89.0336 111.977 88.9361C111.308 89.438 112.179 90.9335 112.604 91.2703C114.455 90.4716 112.141 90.7611 113.385 90.8899C113.739 90.9262 114.104 91.2208 114.495 91.2259C115.642 91.2426 116.719 91.1815 117.856 90.9873C120.363 90.5582 122.827 89.7588 125.254 88.9572C127.898 88.0844 130.542 87.213 133.127 86.1423C135.256 85.2607 137.349 84.2781 139.442 83.299C140.277 82.9077 141.112 82.5113 141.949 82.1229C143.539 81.3853 144.377 80.1735 144.155 82.2494C145.421 82.016 146.518 80.0288 147.49 79.2178C148.858 78.078 150.396 77.2277 152.016 76.6458C152.672 76.4101 153.154 76.1104 153.833 76.1083C154.166 76.1075 154.365 77.1491 154.574 77.0924C156.028 76.7011 155.366 75.8064 156.019 74.5175C157.449 71.7004 161.3 70.1424 163.665 68.5422C165.167 67.526 166.232 66.1593 167.618 65.0341C168.266 64.5082 168.737 64.2754 169.417 64.0529C169.937 63.8819 170.575 65.2086 170.912 63.8754C169.702 63.3262 168.705 62.649 167.541 62.2482C166.717 61.9638 167.705 60.9914 166.4 61.5703C165.876 61.8031 165.696 62.9291 165.504 63.4004C164.047 61.9551 159.949 63.4528 158.22 64.0579C158.101 64.0994 157.567 63.7866 157.315 63.8055C156.317 63.8797 155.622 65.3716 154.965 66.0146C153.219 67.7232 151.324 68.4374 149.173 69.4128C149.745 65.9396 153.952 64.5169 156.408 63.1866C159.997 61.2416 163.338 58.7591 167.268 57.7131C169.885 57.0156 173.354 56.4548 174.484 59.8341C175.161 61.8598 175.246 66.8925 172.957 67.8272C172.715 66.8816 173.489 66.0735 173.722 65.253C171.444 66.219 171.068 69.2586 169.338 70.845C168.365 71.736 168.018 72.0219 167.547 72.8831C167.08 73.7385 166.856 74.5364 165.762 75.4464C163.973 71.2269 164.276 77.0066 163.369 77.7318C163.733 77.4401 161.89 78.2918 162.11 78.2016C162.025 78.2365 161.222 76.792 160.702 76.8225C159.754 76.8778 159.936 78.0365 159.479 78.6199C157.932 80.5939 155.932 81.8887 153.441 81.5781C153.383 82.9826 153.773 84.6607 152.046 84.7887L151.82 81.6748C150.88 82.7309 149.643 83.734 148.878 84.9567C148.007 86.3482 148.1 87.205 146.656 88.1324C145.147 89.102 141.936 91.0121 140.14 91.1772C140.584 90.4774 140.506 89.8454 139.906 89.2824C139.003 90.3167 137.669 90.4185 136.708 91.3525C140.045 92.901 134.144 92.821 133.395 92.9963C132.894 93.1141 132.456 93.6211 131.949 93.7353C131.275 93.8873 131.188 93.1003 130.607 93.3498C129.759 93.715 130.103 94.7456 129.215 95.2635C128.577 95.6359 127.495 95.6308 126.775 95.9843C125.06 96.8281 121.406 98.6967 120.247 96.4302C119.659 100.319 113.659 97.9519 111.438 97.69C108.396 97.3314 103.098 95.7458 105.92 91.2237ZM118.696 51.4381C119.126 51.03 119.557 51.0599 119.988 51.5283C119.388 48.0093 124.028 46.3007 126.053 44.8045C128.738 42.8202 131.899 38.9703 135.413 39.275C134.814 39.7682 134.216 40.2613 133.617 40.7545C134.472 40.8774 135.326 41.0003 136.179 41.1233C135.698 41.9088 135.216 42.6937 134.733 43.4785C133.944 38.6517 129.83 44.7456 128.639 45.6337C127.44 46.5276 126.244 47.1939 125.178 48.2842C124.123 49.3644 123.17 51.3093 121.424 50.3376C121.265 53.0943 119.269 52.3466 117.889 53.8733C117.832 52.9154 118.326 52.2382 118.696 51.4381ZM136.926 37.677C141.173 35.9102 144.871 32.6436 148.874 30.3102C152.697 28.0811 156.597 26.0794 160.484 23.9998C162.455 22.9444 166.066 20.2153 168.32 21.6061C171.361 23.4841 167.175 24.09 166.087 24.7403C165.685 21.8483 164.276 24.4683 165.118 26.0772C162.798 24.9643 157.737 29.3184 155.523 30.519C155.022 30.791 155.246 30.9481 154.677 31.2681C154.536 31.3467 153.084 31.714 152.668 31.869C150.584 32.6436 149.21 32.0282 148.312 34.8221C148.124 34.1645 147.936 33.5063 147.748 32.848C146.444 36.1015 142.478 37.5257 139.942 39.4496C139.288 39.9457 137.422 41.8696 136.592 41.4717C135.438 40.9174 135.901 38.1025 136.926 37.677ZM213.548 47.4863C215.341 47.618 213.612 48.5468 214.105 49.1607C214.049 49.0916 215.185 50.1674 215.036 49.8721C215.236 50.2692 215.718 50.2547 215.964 51.062C216.812 53.8384 213.108 56.7072 211.859 58.2826C209.431 61.347 208.027 65.2276 205.496 68.1938C204.354 69.5336 203.217 70.4588 201.632 70.9585C200.523 71.3083 199.35 70.9338 198.331 72.1179C197.511 73.0715 197.697 73.6134 196.789 74.1204C195.191 75.0143 194.487 74.2302 192.932 76.1621C191.594 72.1223 195.439 72.1288 197.445 69.8711C200.214 66.7543 203.249 63.6099 205.846 60.2756C208.152 57.313 209.077 54.7156 210.172 51.1166C210.517 49.9819 210.893 47.5488 211.844 46.8368C213.327 45.7282 212.437 47.4041 213.548 47.4863ZM222.366 152.431C227.07 146.589 232.904 141.343 239.228 137.824C241.489 136.566 244.706 134.915 247.049 136.852C249.347 138.75 248.852 142.537 247.926 145.114C247.039 144.727 247.876 141.106 247.416 140.211C246.411 138.259 244.243 139.296 242.768 139.95C241.041 140.717 239.499 141.563 238.131 142.955C237.575 143.519 236.512 144.024 236.157 144.412C235.622 144.165 235.307 144.345 235.213 144.95C235.323 145.321 235.31 145.686 235.173 146.046C235.095 146.16 234.4 145.691 234.301 145.785C233.85 146.214 233.429 146.718 232.985 147.115C232.095 147.915 231.338 148.293 230.519 149.407C228.936 151.561 226.843 152.823 225.253 154.875C224.895 155.339 224.464 156.528 224.384 156.632C223.58 157.674 222.389 158.498 221.482 159.601C219.915 161.506 218.241 162.784 216.433 164.418C215.654 165.121 214.746 165.878 214.228 166.856C213.992 167.301 213.859 169.745 213.851 169.756C212.077 171.914 212.422 167.575 212.556 167.031C213.996 161.176 218.866 156.781 222.366 152.431ZM212.685 192.02C212.906 192.939 213.087 193.699 213.311 194.632C211.905 193.351 211.905 193.351 212.685 192.02ZM211.166 195.031C210.65 195.609 210.13 196.184 209.607 196.755C208.456 195.404 211.377 194.8 211.166 195.031ZM210.436 171.783C209.886 174.254 207.872 177.25 206.487 179.201C206.64 178.986 205.306 179.419 205.154 179.517C204.661 179.834 205.842 181.89 204.133 180.971C203.526 181.352 204.72 182.904 203.896 183.599C201.515 177.573 208.017 172.352 210.535 167.878C211.766 169.134 210.745 170.397 210.436 171.783ZM194.968 204.365C196.704 204.861 197.607 204.549 198.78 202.654C199.485 201.517 199.742 199.502 201.354 201.204L201.638 199.015C203.939 200.064 203.746 203.852 204.751 205.951C205.24 203.576 206.399 196.942 209.947 198.006C213.93 199.201 207.301 206.808 206.685 208.671C205.331 206.338 205.864 208.508 204.831 208.837C203.945 209.12 202.56 208.396 201.484 208.461C198.207 208.659 195.329 210.295 192.337 211.681C191.579 209.412 190.822 207.144 190.064 204.875C191.826 205.026 195.469 199.818 195.986 203.603C194.68 203.351 194.312 203.415 193.675 204.735C194.082 204.506 194.513 204.383 194.968 204.365ZM202.322 233.976C202.317 233.958 205.711 234.191 206.013 234.068C208.336 233.126 207.477 230.201 207.952 228.133C208.91 229.11 208.402 230.895 208.697 232.159C209.044 233.646 210.047 234.913 210.14 236.503C210.352 240.096 207.697 239.299 205.685 240.461C203.966 241.454 203.775 242.704 202.323 240.027C201.93 239.302 201.085 237.415 201.172 236.488C201.257 235.57 202.566 234.807 202.322 233.976ZM205.057 249.522L204.118 248.354C206.915 249.305 205.266 247.876 205.909 245.921C208.055 247.508 209.806 249.14 211.504 245.962L214.439 259.106C212.468 259.621 209.925 256.239 208.573 255.077C207.793 254.406 203.46 251.82 206.062 251.067C205.726 250.552 205.392 250.037 205.057 249.522ZM224.211 208.249C222.582 209.97 220.941 210.933 219.168 212.285C217.612 213.472 218.148 214.834 216.799 216.158C215.904 217.038 213.805 217.934 212.698 218.606C210.728 219.801 208.963 220.029 206.935 218.691C207.487 223.623 204.445 224.009 200.659 224.986C198.853 225.452 197.784 226.164 196.483 224.328C195.591 223.071 195.242 220.795 196.351 219.645C198.112 217.818 202.805 218.449 205.064 217.299C206.779 216.428 208.526 211.517 210.641 213.305C209.549 211.373 210.821 210.853 211.77 209.476C212.809 207.967 213.448 206.203 214.523 204.706C216.567 201.86 219.704 198.998 222.606 197.282C225.16 195.773 226.5 196.841 226.883 200.011C227.076 201.605 227.068 203.979 226.265 205.393C226.009 205.844 225.163 205.849 224.907 206.272C224.461 207.012 224.87 207.553 224.211 208.249ZM254.177 169.995C256.215 171.746 256.016 175.427 256.337 177.933C256.79 181.466 256.462 184.885 256.413 188.483C256.362 192.253 254.697 194.709 253.913 198.242C253.042 202.173 251.917 204.255 249.963 207.553C252.082 207.924 248.928 214.953 248.408 215.863C247.843 216.851 243.29 221.402 245.242 221.402C244.165 222.979 242.993 224.598 241.92 226.131C241.498 226.735 240.757 226.972 240.424 227.398C239.746 228.264 239.705 229.037 239.22 230.048C238.483 231.582 238.241 231.172 237.272 232.285C236.603 233.054 236.164 234.069 235.508 234.806C233.391 237.179 233.121 235.235 231.937 233.407C231.756 233.896 231.434 234.203 230.971 234.328C230.6 232.259 233.152 230.169 234.224 228.912C235.982 226.853 237.588 224.583 239.141 222.331C242.468 217.504 245.458 212.376 247.818 206.883C250.327 201.037 252.332 194.71 253.374 188.333C254.167 183.472 254.922 175.133 249.073 173.896C244.819 172.997 240.13 175.868 236.623 178.192C234.486 179.607 232.337 181.014 230.301 182.607C228.091 184.333 226.182 186.777 223.783 188.163C225.095 187.405 220.766 189.686 221.429 189.045C221.119 189.344 221.387 190.26 221.182 190.673C220.914 191.211 219.986 191.742 219.569 192.089C218.469 193.007 216.711 193.946 216.21 195.462C209.231 189.933 223.11 180.116 226.668 177.616C233.725 172.658 246.005 162.969 254.177 169.995ZM273.003 116.218C272.937 112.237 275.856 106.801 277.829 103.554C278.793 101.965 280.334 102.028 280.9 100.154C281.226 99.0742 280.798 97.9424 280.895 96.8586C281.026 95.393 281.599 94.2176 282.259 92.9578C288.227 81.5694 295.479 71.4895 303.203 61.5536C307.012 56.6555 310.623 51.569 314.73 46.9677C316.446 45.046 321.057 38.1374 323.696 38.8284C325.093 39.1943 325.905 41.5619 326.536 42.77C327.579 44.7681 328.726 46.6396 329.993 48.477C333.338 53.3278 337.196 57.5858 341.753 61.0241C344.598 63.1727 347.473 65.261 350.255 67.5122C352.545 69.3648 356.008 71.4829 357.644 74.084C359.28 76.6858 356.877 78.889 355.564 81.0493C353.523 84.409 351.646 87.8902 349.597 91.2463C348.783 90.596 348.993 89.2751 348.435 88.4423C347.94 87.704 347.24 87.4036 346.556 86.9475C345.245 86.0754 343.959 85.0091 342.775 86.4704C340.704 89.0278 343.552 95.073 346.623 94.4096C346.984 96.9336 340.853 101.09 339.316 102.48C334.601 106.741 329.736 110.445 323.507 110.831C320.986 110.986 318.363 110.774 315.968 109.837C314.82 109.388 313.552 108.772 312.672 107.794C311.619 106.623 311.35 104.88 310.328 103.721C309.442 102.715 308.225 102.56 307.34 101.55C306.453 100.54 306.015 98.944 305.655 97.6355C304.952 95.0788 304.819 92.3824 304.143 89.8199C303.736 88.2786 303.402 86.218 302.076 87.6989C300.15 89.8504 301.117 96.6157 301.61 99.1935C302.316 102.871 303.969 105.836 305.702 109C307.58 112.432 308.274 115.616 308.611 119.587C309.241 127.022 311.162 134.156 314.151 140.845C315.409 143.661 316.916 146.31 318.274 149.061C318.909 150.345 320.331 154.725 322.057 154.702C324.814 154.664 320.886 145.734 320.342 144.235C317.321 135.932 314.436 127.205 313.789 118.215C318.119 119.454 322.838 120.629 327.322 119.844C324.428 127.032 327.451 134.189 327.081 141.587C326.896 145.298 326.763 148.721 326.832 152.42C326.892 155.664 325.573 158.907 324.433 161.84C322.168 167.666 319.317 174.852 315.111 179.315C311.595 183.045 306.891 183.337 302.296 182.478C291.844 180.523 284.977 171.6 280.591 161.466C277.772 154.957 275.618 148.007 274.281 140.937C272.732 132.755 273.141 124.518 273.003 116.218ZM286.577 61.0757C276.823 53.2383 290.997 44.3382 298.211 45.55C299.903 45.8337 303.017 46.6105 302.859 49.0632C302.729 51.0679 299.718 53.3023 298.562 54.5396C295.266 58.0702 291.911 65.3607 286.577 61.0757ZM357.532 235.22C357.197 234.887 354.467 235.705 355.548 233.911C356.447 232.421 358.938 234.288 359.844 234.672C359.098 235.244 358.449 236.131 357.532 235.22ZM316.918 330.01C316.08 330.125 315.203 327.614 318.225 329.49C317.79 329.663 317.354 329.837 316.918 330.01ZM316.832 370.933C316.936 372.058 317.246 372.8 316.526 373.618C315.917 372.785 315.839 371.611 316.832 370.933ZM318.058 387.841C317.969 388.454 317.88 389.066 317.792 389.678C317.094 389.286 316.397 388.894 315.699 388.501C316.485 388.281 317.272 388.061 318.058 387.841ZM318.912 373.583C319.952 374.015 319.468 372.634 320.224 372.44C320.494 373.878 320.161 375.109 319.417 376.296C319.347 376.015 318.965 373.604 318.912 373.583ZM345.493 271.552C344.034 271.345 343.813 273.057 342.726 273.721C342.023 274.15 339.886 273.828 339.487 274.649C340.013 274.818 340.541 274.988 341.067 275.156C339.861 275.878 338.656 276.6 337.45 277.322C340.35 277.322 343.372 275.783 346.252 276.235C347.47 276.426 348.363 276.883 349.126 277.983C349.59 278.651 349.998 279.725 350.072 280.543C350.153 281.427 349.532 282.038 349.642 282.46C350.94 282.499 350.787 284.864 350.495 285.828C349.863 287.917 347.353 291.19 345.103 289.865C346.044 291.348 345.805 292.194 344.413 293.055C344.539 292.565 344.632 291.707 343.921 291.792C343.738 292.614 343.808 293.917 343.204 294.537C342.527 295.23 341.923 294.42 341.276 294.871C340.509 295.406 340.74 296.246 340.136 296.827C339.339 297.594 339.225 297.049 338.271 297.198C336.827 297.425 337.748 296.428 336.592 297.727C336.192 298.175 336.259 299.341 335.611 299.997C334.365 301.257 331.041 302.569 329.848 300.954C326.978 306.004 318.378 307.216 314.375 303.229C307.99 296.871 319.895 283.941 323.825 279.843C327.77 275.73 332.152 272.178 336.585 268.749C339.104 266.801 341.689 265.033 344.329 263.297C345.957 262.226 348.002 260.27 350.003 260.458C351.797 260.626 353.331 262.173 355.22 262.479C356.586 262.7 359.241 263.065 357.517 265.124C356.711 266.085 353.545 267.641 352.467 267.875C351.833 268.012 351.166 267.749 350.539 267.891C349.476 268.134 348.747 269.129 347.591 269.003C347.957 270.908 347.289 271.805 345.493 271.552ZM364.388 200.829C364.389 202.32 361.94 201.948 361.428 201.442C360.586 200.609 360.556 198.119 360.244 196.986C361.668 197.384 364.387 198.84 364.388 200.829ZM344.656 151.661C349.801 146.964 355.211 142.658 360.93 138.866C362.978 137.508 365.87 134.768 368.414 135.11C369.481 135.254 371.687 136.615 370.883 138.116C370.733 138.396 369.546 138.509 369.179 138.713C368.763 138.943 368.437 139.579 368.051 139.893C365.379 142.07 362.168 143.408 359.487 145.637C357.284 147.468 355.229 149.517 352.858 151.088C350.582 152.594 348.205 153.548 346.045 155.216C346.087 155.183 343.235 156.322 343.794 156.529C341.29 155.599 343.935 152.319 344.656 151.661ZM378.961 149.911C382.018 148.559 385.009 146.917 388.209 146.008C389.806 145.554 391.445 145.213 393.098 145.417C393.379 144.871 393.753 144.75 394.221 145.055C394.585 145.677 395.066 146.155 395.664 146.489C396.575 147.267 399.932 148.285 399.261 150.004C398.818 151.141 395.452 151.235 394.528 151.491C391.744 152.261 389.148 153.993 386.28 154.419C386.011 154.459 385.132 154.097 385.122 154.099C384.003 154.37 383.071 155.66 382.11 156.278C380.04 157.609 377.066 157.832 375.58 160.128C380.393 163.751 384.568 160.158 388.799 157.422C391.334 155.784 394.055 154.602 396.825 153.552C398.272 153.004 399.733 152.433 401.2 151.952C401.807 151.706 402.431 151.529 403.072 151.421C403.668 151.289 404.094 151.53 404.352 152.144C406.125 152.078 406.277 150.842 407.345 153.148C408.85 156.397 406.547 156.232 404.383 156.632C401.382 157.184 398.33 158.43 395.373 159.255C394.691 159.446 388.71 160.986 388.703 161.04C388.432 163.137 405.596 161.195 407.07 160.881C409.67 160.325 412.459 158.748 415.151 159.128C417.218 159.42 421.926 162.787 418.629 165.025C417.98 161.574 415.752 164.424 414.589 165.588C413.039 167.138 410.819 166.989 408.693 167.597C405.787 168.426 398.346 171.538 396.281 167.571C396.934 171.047 385.073 169.281 383.442 169.166C381.852 169.053 379.8 169.428 378.264 168.925C377.262 168.597 376.704 167.873 375.761 167.71C375.53 167.987 375.253 168.175 374.931 168.275C374.453 168.006 374.021 167.664 373.636 167.251C370.459 165.629 365.544 164.733 367.31 159.568C368.974 154.697 374.923 151.699 378.961 149.911ZM408.735 152.922C408.815 152.619 408.894 152.315 408.972 152.011C408.982 152.942 410.98 153.339 410.749 154.544C410.238 157.213 407.932 153.203 407.734 152.766C408.069 152.818 408.401 152.87 408.735 152.922ZM420.932 157.356C421.163 158.449 423.82 160.777 423.161 161.314C422.114 159.732 419.219 160.45 420.932 157.356ZM376.121 257.107C377.094 254.965 380.034 258.613 379.724 254.956C381.322 255.117 380.324 256.467 382.24 255.874C382.958 255.651 383.443 254.768 384.318 254.564C384.551 254.509 385.559 254.598 385.907 254.586C387.059 254.547 391.575 254.405 388.467 252.727C390.206 251.449 390.421 252.097 391.99 253.268C391.588 250.848 393.898 252.222 394.973 252.524C394.206 251.144 396.11 249.676 396.727 248.743C396.506 250.18 396.622 251.788 398.494 250.87C398.961 250.641 398.856 249.626 399.226 249.46C399.903 249.157 400.282 249.709 400.525 249.677C400.764 249.648 401.267 249.797 401.77 249.586C402.423 249.314 402.108 248.34 402.936 248.196C403.475 248.102 403.868 248.982 404.526 248.989C404.864 248.993 405.428 248.612 405.685 248.632C405.73 248.636 406.052 247.775 406.447 247.754C407.025 247.722 407.26 249.441 407.471 249.775C408.482 251.368 409.826 252.406 411.377 253.256C408.572 256.113 402.911 255.811 399.383 256.774C397.472 257.296 395.842 258.049 394.093 259.019C393.671 259.324 393.308 259.698 393.004 260.141C392.756 259.958 392.508 259.775 392.26 259.593C391.302 259.658 390.396 259.132 389.317 259.334C385.985 259.958 383.376 262.73 379.99 263.348C378.469 263.625 377.218 264.013 376.228 262.548C375.358 261.264 375.502 258.473 376.121 257.107ZM371.553 240.034C372.308 240.743 371.4 243.052 372.862 242.801C373.899 242.623 373.692 240.836 374.507 240.457C375.577 239.96 376.223 241.139 377.229 241.03C379.104 240.825 378.997 239.006 377.412 238.208C379.06 237.725 379.587 239.888 381.046 239.868C382.962 239.843 382.505 237.333 384.135 236.916C384.841 236.736 384.605 237.887 385.063 238.031C385.98 238.317 386.618 237.826 387.429 237.394C388.155 237.007 388.672 236.261 389.465 236.008C389.826 235.892 390.743 236.104 391.007 235.889C391.541 235.457 392.019 233.774 392.545 233.552C392.437 233.597 394.16 234.555 394.407 234.646C394.255 235.356 393.905 235.441 393.355 234.899C393.355 236.503 397.368 237.003 396.545 235.021C398.716 236.019 397.099 236.532 396.882 237.925C396.796 238.485 396.503 238.47 396.59 239.062C396.63 239.335 397.767 239.1 397.753 239.472C397.657 241.865 390.787 242.602 389.486 242.812C386.791 243.25 384.242 243.985 381.644 244.891C379.71 245.565 376.376 247.496 374.318 247.376C371.359 247.204 370.973 242.915 371.553 240.034ZM364.94 215.607C364.218 212.945 366.533 207.444 369.549 208.132C370.29 208.3 370.473 208.983 371.048 209.285C371.851 209.708 373.157 209.486 373.853 209.923C375.414 210.904 374.627 213.404 376.191 214.308C373.722 214.972 366.087 219.84 364.94 215.607ZM367.797 225.954C368.861 225.319 370.586 225.237 371.311 224.016C371.672 224.294 372.355 225.98 373.003 225.722C373.306 225.602 373.618 224.688 373.597 224.689C374.174 224.67 374.288 223.803 375.17 223.9C375.98 223.99 376.886 225.071 377.608 225.474C377.484 222.795 378.102 222.539 380.058 221.104C380.487 220.79 380.846 219.61 381.241 219.133C380.863 221.945 381.817 221.96 383.839 222.383C386.374 222.912 387.953 224.424 388.969 227.144C386.808 226.676 384.022 227.239 383.171 229.817C381.447 226.319 375.182 231.146 373.154 232.135C371.65 232.869 369.9 233.855 368.638 232.145C367.75 230.94 368.259 229.491 368.278 228.421C368.283 228.085 368.596 228.066 368.567 227.565C368.53 226.927 367.782 226.671 367.797 225.954ZM390.859 280.958C390.288 281.198 387.352 281.332 387.333 280.252C387.317 279.298 392.515 280.26 390.859 280.958ZM386.089 277.464C383.868 278.985 381.382 273.625 380.565 272.082C382.896 272.413 384.033 270.248 385.406 268.603C386.712 271.781 388.695 270.101 390.781 269.04C393.241 267.788 395.937 267.779 398.458 266.774C399.244 266.461 399.969 265.994 400.737 265.636C401.355 265.379 401.971 265.116 402.585 264.846C403.021 264.41 403.176 263.872 403.049 263.235C402.843 262.699 402.983 262.361 403.471 262.222C404.052 262.414 404.644 262.526 405.249 262.555C406.22 262.342 407.616 261.324 406.444 260.227C407.7 258.96 408.958 260.22 410.168 260.775C409.88 259.865 409.594 258.955 409.306 258.045C409.906 258.328 411.688 261.092 411.869 261.077C413.021 260.981 412.901 259.265 413.562 258.572C413.944 259.095 414.054 262.995 415.555 261.681C416.197 261.12 414.815 259.207 414.474 258.771C416.191 259.202 417.691 261.478 418.155 263.246C417.34 263.377 416.586 263.195 415.893 262.699C415.451 265.16 419.553 264.163 420.217 265.449C421.518 267.966 413.057 269.715 411.955 269.948C409.749 270.415 407.146 270.589 405.124 271.675C403.186 272.715 402.728 273.012 400.464 273.207C397.881 273.43 395.36 274.375 392.86 275.111C390.69 275.75 388.013 276.147 386.089 277.464ZM433.312 187.349C435.352 186.534 442.224 182.303 443.974 184.184C443.789 183.985 445.235 187.303 445.22 187.095C445.344 188.821 445.306 189.515 443.393 190.342C442.023 190.934 440.83 189.676 439.597 190.176C438.243 190.725 439.19 191.697 438.493 192.375C437.73 193.119 436.257 193.441 435.307 193.767C432.981 194.565 430.636 195.232 428.321 196.091C423.609 197.841 418.621 199.469 413.779 200.706C410.161 201.63 404.02 203.928 400.686 201.214C400.361 202.757 399.566 202.546 398.462 202.771C397.595 202.947 396.028 203.423 395.258 203.448C393.976 203.489 390.413 203.116 390.903 201.12C390.768 201.67 393.675 199.787 393.172 199.67C394.407 199.959 394.006 199.269 395.018 198.885C396.339 198.383 397.719 198.41 399.068 197.879C402.468 196.541 405.32 194.804 408.908 193.965C417.105 192.05 425.404 190.51 433.312 187.349ZM104.719 393.625C104.055 393.645 103.538 391.549 105.559 393.045C105.279 393.239 105 393.432 104.719 393.625ZM88.7579 390.914C87.8547 391.17 87.4945 390.61 87.6785 389.235C88.938 388.682 89.2976 389.241 88.7579 390.914ZM76.4354 388.107C76.2042 386.88 77.0229 386.604 77.765 386.053C77.6904 387.678 77.6904 387.678 76.4354 388.107ZM45.4308 378.015C44.1818 377.71 42.5176 376.354 42.2313 378.631C42.0224 378.104 40.9561 375.624 41.414 375.05C41.653 374.749 42.5582 376.138 42.4619 376.001C43.555 373.545 45.4394 376.509 46.4925 377.385C46.1389 377.595 45.7845 377.806 45.4308 378.015ZM370.172 106.637C370.603 105.624 371.112 105.303 371.696 105.673C370.778 108.041 367.668 109.325 370.172 106.637ZM391.779 84.4054C392.549 86.0092 391.391 86.6871 390.563 88.0204C391.047 86.5824 391.383 85.5859 391.779 84.4054ZM485.687 240.967C488.465 240.966 494.383 239.338 496.059 242.865C497.168 240.468 498.428 244.963 499.39 245.683C499.498 245.765 500.191 245.176 500.513 245.393C500.999 245.72 501.418 246.609 501.697 247.138C502.536 248.733 502.897 250.628 503.362 252.382C498.509 252.382 493.533 251.128 488.685 250.672C485.502 250.372 482.382 250.363 479.195 250.554C478.561 250.592 477.304 250.36 476.762 250.492C476.212 250.627 475.215 251.871 474.608 251.671C475.551 253.636 487.621 258.392 488.542 256.216C487.451 255.483 485.027 254.92 485.029 253.148C485.031 251.163 487.303 251.167 488.506 251.225C491.139 251.353 495.549 252.326 496.628 255.367C497.09 256.67 497.232 259.952 496.724 261.211C496.396 262.023 495.841 263 494.96 263.165C494.6 263.233 494.079 262.699 494.024 262.713C492.218 263.138 488.875 264.749 486.904 262.478C485.484 264.519 478.641 262.289 476.546 261.519C472.882 260.172 467.836 258.322 465.611 254.525C462.898 249.898 468.413 245.987 471.58 244.106C475.909 241.535 480.855 240.969 485.687 240.967ZM504.177 251.667C505.029 251.934 505.881 252.201 506.732 252.468C506.504 254.127 503.144 252.815 504.177 251.667ZM529.923 311.949C530.185 305.304 528.455 299.453 527.456 293.026C527.209 291.433 527.462 288.648 526.372 287.338C525.331 286.086 523.008 287.104 522.916 284.89C521.891 286.223 521.994 286.502 520.731 284.969C520.961 285.626 520.995 286.295 520.831 286.975C520.047 286.476 517.206 284.82 517.445 287.085C515.108 286.511 515.785 284.889 514.452 283.65C514.263 283.474 513.502 284.099 513.206 283.832C512.67 283.35 512.405 282.912 511.953 282.291C511.378 283.062 510.596 283.619 509.894 284.229C509.486 283.242 508.692 282.517 507.737 282.277C508.63 284.352 510.837 287.039 507.809 288.219C506.002 288.923 503.043 288.06 501.129 288.224C494.036 288.835 486.266 287.118 479.408 285.241C472.363 283.314 465.238 280.593 458.902 276.616C457.552 275.767 456.701 274.764 455.538 273.712C454.407 272.689 453.585 272.528 452.226 271.874C449.78 270.697 447.542 268.809 445.682 266.706C441.681 262.182 437.963 256.267 439.077 249.644C440.188 243.043 444.274 237.885 448.645 233.538C453.809 228.404 459.638 224.118 465.825 220.662C468.592 219.118 475.668 213.315 478.401 216.71C480.148 218.879 479.165 221.647 476.779 222.129C476.19 222.248 475.575 221.81 474.979 222.11C474.121 222.544 474.423 223.056 474.069 223.417C473.454 224.045 472.8 225.024 471.882 225.568C468.674 227.467 465.574 228.972 462.508 231.285C461.094 232.351 459.734 232.809 458.488 233.739C457.249 234.664 456.967 236.194 455.301 235.25C455.895 237.941 452.332 240.823 450.935 242.472C448.772 245.025 446.178 248.284 447.187 252.061C449.163 259.455 458.091 265.071 463.805 268.322C470.934 272.378 478.797 275.607 486.736 276.943C490.683 277.607 494.762 278.017 498.738 278.438C501.834 278.766 506.585 277.565 508.813 280.662C508.882 277.051 519.036 277.37 521.198 276.908C516.864 260.458 508.356 245.833 499.26 232.169C494.795 225.461 490.411 218.563 485.323 212.414C479.752 205.682 473.387 199.666 467.339 193.471C455.478 181.322 442.063 170.479 428.412 160.927C414.793 151.398 400.688 142.02 385.768 135.225C368.726 127.466 350.785 122.362 332.824 118.015C335.26 114.567 339.223 112.885 342.343 110.363C343.435 109.48 344.912 107.36 346.33 107.071C347.867 106.757 349.077 108.593 350.171 109.514C353.31 112.159 355.481 111.036 359.077 110.876C361.228 110.781 366.323 112.112 367.23 108.88C368.437 110.663 366.687 112.093 365.792 113.401C366.444 114.411 366.969 113.363 367.613 113.206C367.811 113.023 368.009 112.84 368.208 112.657C368.527 112.144 368.815 112.141 369.071 112.647C369.455 113.288 369.842 113.147 370.231 112.221C370.337 112.146 370.444 112.072 370.55 111.997C371.015 111.722 371.464 111.287 371.896 110.945C375.164 108.352 378.076 106.143 381.683 104.233C384.712 102.63 383.083 99.5623 385.08 97.3962C385.532 96.9059 386.292 97.1518 386.776 96.7364C387.249 96.3284 387.32 95.8658 387.665 95.4286C388.495 94.3776 387.507 93.1578 389.624 94.4445L388.86 89.6722C393.011 94.1441 392.995 81.2755 393.562 79.3712C393.487 79.6229 393.934 77.6743 393.934 77.691C394.056 73.8294 394.53 71.0305 390.458 70.8065C392 69.7292 392.471 71.8328 393.183 69.655C393.539 68.564 392.427 66.6888 394.2 67.3922C394.574 65.0733 394.205 63.1967 393.74 60.9433C393.263 58.6369 393.543 57.0978 393.565 54.7913C393.589 52.1749 392.486 49.5455 392.133 46.9691C391.857 44.9514 392.142 41.7692 389.793 42.5104C389.463 41.9365 390.623 40.1711 390.576 39.2983C390.502 37.9425 389.177 36.5649 388.802 35.2629C388.25 35.8957 387.472 36.1066 386.721 35.8208C387.426 34.0518 386.764 33.4575 386.089 31.9322C385.702 31.0587 385.935 30.0942 385.107 29.4682C384.632 29.1089 383.822 29.7141 383.45 29.2929C382.653 28.391 382.947 27.1944 382.399 26.0059C381.71 24.5155 380.138 23.3772 379.054 22.2585C372.963 15.9704 366.346 11.1647 358.243 8.70764C350.068 6.22876 340.538 5.34065 332.391 8.19993C329.134 9.34263 326.243 9.22552 323.312 11.3596C322.362 12.0521 322.26 11.8666 321.777 13.0209C321.666 13.2901 322.678 14.0065 322.058 14.4466C321.385 14.9245 320.642 13.9527 320.298 13.146C316.058 16.5545 312.085 21.0984 309.67 26.3085C307.27 31.4856 307.05 37.5679 306.134 43.1941C301.908 37.8319 296.191 35.2614 289.976 37.8392C284.559 40.0853 280.361 45.0227 279.302 51.4192C278.655 55.3186 279.361 59.2675 280.956 62.7858C281.646 64.306 282.481 65.9891 283.749 67.0125C284.752 67.8214 286.469 67.7079 286.941 69.167C287.665 71.4022 283.485 76.2297 282.4 78.1864C280.437 81.7272 278.613 85.3837 277.224 89.2511C272.246 81.4413 267.48 72.9115 261.819 65.7105C256.477 58.914 250.108 52.8186 243.862 47.0739C230.897 35.1508 217.417 23.9497 202.915 14.4509C189.411 5.60614 173.1 0.695667 157.363 2.4319C141.986 4.12885 130.214 14.9288 120.307 27.385C101.26 51.3348 89.5937 85.471 88.454 117.352C88.1115 126.93 88.7684 136.382 90.8983 145.671C91.9129 150.094 91.7655 154.444 92.355 158.924C93.0204 163.978 94.1712 169.014 95.284 173.964C99.5229 192.823 104.924 211.667 110.984 229.9C114.135 239.382 117.948 248.652 123.105 257.013C125.488 260.875 128.574 263.897 131.137 267.564C133.624 271.121 134.281 275.487 134.828 279.851C136.139 290.315 137.009 300.825 137.798 311.35C138.132 315.811 138.523 320.233 139.055 324.663C139.519 328.525 138.352 328.335 135.427 329.647C136.02 326.176 122.042 328.537 120.722 328.774C119.286 329.032 117.765 329.036 116.634 329.241C115.369 329.469 114.131 329.8 112.675 329.753C110.533 329.685 106.524 329.078 105.707 332.113C105.144 328.594 101.428 332.442 104.178 331.789C101.355 332.139 98.4756 331.556 95.6193 331.851C92.3458 332.189 89.0441 332.51 85.7936 333.057C83.5307 333.438 81.3712 334.406 79.1044 334.686C76.2036 335.047 73.1764 335.013 70.2474 335.3C59.4438 336.358 48.2459 338.975 37.7442 341.972C35.3654 342.65 32.6322 343.133 30.3595 344.222C29.751 344.513 29.2035 345.165 28.6206 345.415C27.6434 345.834 27.777 345.545 26.9092 345.737C21.7094 346.891 16.3453 348.776 11.1462 350.256C8.26237 351.077 3.57152 351.817 1.21916 354.053C0.16467 355.054 -0.75686 356.829 0.932943 357.967C2.28282 358.875 4.20946 357.425 5.30194 356.641C4.32866 359.458 2.49306 360.862 3.48441 364.066C4.2671 366.599 6.03418 369.72 8.75293 368.087C9.11709 369.027 9.26446 370.898 10.3366 371.243C11.3001 371.554 11.9976 370.198 12.9414 370.517C13.2794 370.632 13.151 371.341 13.4536 371.526C13.975 371.845 14.5035 371.98 15.1008 372.205C15.6143 372.398 16.4409 372.796 16.9766 372.838C17.3166 372.865 18.1176 372.219 18.115 372.219C18.8957 372.35 19.3155 374.009 19.8775 374.489C20.6071 375.111 21.2097 375.253 22.1233 375.479C24.0227 375.947 26.471 376.75 27.7246 374.591C27.4377 376.133 29.326 375.981 30.1591 376.177C30.0667 375.365 29.6626 374.62 29.0391 374.175C30.9018 374.311 30.1466 376.368 31.5234 376.911C32.5045 377.297 32.3932 376.315 33.1437 376.206C34.1327 376.063 34.8833 376.86 36.4277 376.125C36.7624 377.777 36.8849 379.442 38.7116 379.689C39.7837 379.833 42.2837 377.683 42.1423 379.473C44.5375 378.693 45.4466 379.22 46.6982 381.565C46.9097 380.125 47.9334 380.543 48.8727 380.454C50.3614 380.313 50.3994 380.446 51.5534 379.51C51.6589 379.425 52.5667 377.115 52.9701 378.55C53.1515 379.193 51.9523 380.706 51.5082 381.091C52.0597 381.401 53.8667 382.485 54.5617 382.286C55.1629 382.114 55.1649 380.973 55.8873 380.914C55.7105 381.57 55.5343 382.227 55.3568 382.883C56.7623 383.11 57.9367 382.065 59.0469 381.3C60.1053 384.272 63.1305 382.598 64.7758 384.834C65.6462 386.018 65.6869 386.917 67.3452 387.226C69.0422 387.542 70.5244 386.715 71.9666 388.27C71.5095 387.305 70.3705 386.505 71.5023 385.468C72.2725 386.682 72.6701 388.144 73.5582 389.273C73.6807 388.699 73.8032 388.126 73.9256 387.551C76.2409 390.301 79.1555 390.325 82.1212 391.85V389.837C84.2446 393.436 84.3579 391.159 86.8945 389.689C86.7223 390.747 86.5494 391.805 86.3771 392.863C88.2025 392.71 89.908 395.112 91.4066 393.072C92.3117 394.758 93.4088 393.928 94.8923 394.463C95.7359 394.768 96.364 395.69 97.1847 396.024C98.4153 396.524 98.7828 396.501 99.9414 396.937C100.972 397.324 101.557 398.077 102.847 398.319C103.685 398.476 104.444 398.464 105.246 398.421C105.556 398.405 105.454 397.631 106.142 397.811C107.206 398.091 107.999 399.574 108.765 400.334C109.918 397.116 113.145 401.426 114.706 402C114.855 401.175 114.828 400.181 115.366 399.503C115.997 401.039 116.238 402.33 117.549 403.32C118.305 403.891 119.416 404.299 120.29 404.508C120.842 404.64 121.845 404.482 122.192 404.671C122.785 404.993 123.003 405.854 123.601 405.934C123.952 405.982 124.474 404.954 124.737 405.034C125.942 405.399 126.611 407.025 127.828 407.904C131.45 410.52 136.007 410.774 140.041 411.348C141.054 411.492 141.201 411.185 142.023 411.844C142.462 412.197 142.263 413.269 142.803 413.57C144.836 414.701 144.838 412.287 145.264 410.786C145.937 411.772 146.053 413.073 146.973 413.857C147.475 413.841 147.978 413.853 148.48 413.895C148.763 414.253 148.949 414.667 149.035 415.136C150.254 416.05 151.634 415.732 152.892 416.418C153.304 416.643 154.035 418.002 154.544 418.393C155.453 419.093 156.86 419.466 157.9 419.77C160.079 420.408 163.205 419.561 164.502 422.089C166.224 420.039 165.558 422.486 166.727 423.001C167.417 423.304 168.455 422.097 169.221 422.217C170.599 422.433 171.096 424.09 171.537 425.296C172.377 425.087 171.801 422.449 171.777 421.871C172.82 421.734 173.052 424.786 173.232 425.456C174.88 424.575 172.176 421.834 173.947 420.955C173.785 423.29 175.461 425.213 172.467 425.548C172.881 426.955 182.535 428.517 183.205 427.275C183.354 429.571 184.743 427.427 185.255 426.641C185.312 427.98 184.902 429.881 186.255 430.504C187.175 430.926 189.248 429.833 189.609 428.832C190.021 430.361 190.711 430.311 191.569 431.283C192.159 431.949 192.547 433.106 193.165 433.665C194.303 434.692 196.419 434.535 197.745 434.305C200.339 433.856 200.032 433.304 200.956 436.298C201.165 435.162 201.82 432.785 202.962 434.552C203.689 435.674 202.142 438.148 201.694 439.134C202.694 438.524 203.686 437.801 204.823 437.539C204.887 437.928 204.945 438.753 204.777 439.113C204.811 439.041 206.024 439.944 206.474 440.194C206.366 440.134 206.83 437.885 206.817 437.958C208.417 439.055 207.307 441.152 208.724 442.234C209.09 442.514 209.95 442.187 210.392 442.357C211.163 442.654 211.83 443.456 212.515 443.926C211.968 443.111 212.047 441.743 212.084 440.803C212.433 441.017 212.681 441.817 213.033 441.88C213.166 441.904 214.545 442.107 214.536 442.1C215.971 443.216 215.675 443.356 214.443 444.698C214.883 445.466 216.723 444.131 217.221 443.91C217.325 444.21 217.352 445.301 217.548 445.496C217.666 445.819 217.786 446.142 217.905 446.465C218.272 446.161 218.666 446.059 219.087 446.16C219.353 446.263 221.428 447.2 221.569 446.879C221.115 446.717 220.703 446.466 220.335 446.13C221.533 444.934 222.321 444.298 223.425 446.025C223.564 446.242 223.086 447.023 223.228 447.307C223.755 448.363 224.838 449.203 225.574 450.064C225.878 448.876 225.17 445.902 226.861 446.01C228.212 446.096 229.24 449.732 228.772 450.862C229.309 450.209 232.516 449.561 233.121 449.765C234.832 450.341 234.352 452.098 236.458 449.523C237.894 450.624 236.628 451.041 236.887 452.382C237.266 452.47 237.625 452.366 237.965 452.07C237.711 457.77 241.498 453.415 243.958 454.286C244.923 454.627 245.17 455.844 246.206 456.2C246.755 456.388 247.364 455.943 247.897 456.052C248.324 455.984 248.749 455.9 249.171 455.801C249.705 455.503 249.956 455.836 249.923 456.799C250.783 457.293 250.458 457.487 251.462 457.583C252.109 457.645 252.705 456.898 253.44 457.025C254.709 457.246 254.541 458.328 255.352 458.893C256.082 459.402 256.904 459.385 257.803 459.287C258.261 459.237 259.547 458.581 259.701 458.579C260.661 458.565 260.141 458.338 261.293 459.253C262.191 459.968 262.567 460.43 263.669 460.759C264.932 461.135 267.174 461.958 268.024 460.944C269.172 462.855 270.071 461.452 271.587 461.579C272.362 461.644 272.485 461.98 273.176 462.113C274.294 462.33 275.69 462.143 276.88 462.567C278.755 463.236 278.967 463.572 280.883 463.662C281.229 463.512 281.575 463.362 281.92 463.212C282.024 463.853 282.295 464.376 282.736 464.781C283.808 465.03 284.512 464.429 285.397 463.771C286.056 466.05 288.193 466.249 290.022 466.549C292.973 467.033 295.794 467.297 298.639 468.374C301.042 469.283 303.45 470.304 305.761 471.469C307.796 472.494 309.715 474.026 312.017 473.307C317.232 471.676 322.285 465.731 326.648 462.318C331.816 458.275 337.389 454.944 342.788 451.309C364.284 436.839 386.994 424.598 408.188 409.589C419.76 401.396 430.496 391.66 442.923 385.031C441.154 393.149 438.142 401.39 438.687 409.889C438.905 413.314 439.814 417.361 442.206 419.751C445.163 422.708 448.457 420.826 451.285 418.714C457.345 414.189 461.386 407.586 465.922 401.385C471.287 394.051 475.448 386.17 479.387 377.811C480.331 379.282 479.613 381.747 479.627 383.379C479.645 385.46 480.151 387.466 481.02 389.325C483.264 394.121 487.534 395.284 491.393 391.998C498.819 385.674 503.128 374.41 507.107 365.34C509.377 370.029 512.598 375.93 518.048 372.582C522.545 369.818 525.187 363.644 526.562 358.414C530.579 343.148 529.306 327.598 529.923 311.949Z" fill="black"/>
<path fill-rule="evenodd" clip-rule="evenodd" d="M523.103 220.251C522.59 218.868 522.364 219.094 523.308 217.753C524.042 218.557 523.454 219.221 523.103 220.251ZM545.83 303.981C544.388 299.428 545.278 294.483 544.403 289.813C544 287.67 543.366 285.591 543.137 283.41C543.036 282.442 542.26 278.084 542.788 277.398C541.161 276.304 541.156 275.494 540.78 273.349C541.36 272.666 541.287 272.084 540.561 271.6C540.087 270.963 539.612 270.325 539.137 269.688C541.213 270.815 539.985 267.931 539.773 266.268C539.606 264.955 539.493 263.584 539.099 262.325C538.613 260.778 537.534 259.995 539.779 259.995C539.04 259.062 537.936 258.099 537.567 256.956C537.038 255.311 537.911 253.138 536.832 251.685C536.23 250.875 533.127 250.558 533.672 248.808C533.949 247.916 535.206 248.582 535.595 247.957C537.125 245.501 532.609 244.484 532.388 243.439C532.101 242.085 533.732 241.782 533.832 240.516C533.93 239.277 532.195 237.24 531.736 236.131C531.111 236.3 530.426 237.398 529.711 236.873C529.576 236.774 529.779 232.484 529.617 231.914C529.457 231.354 529.13 229.869 529.014 229.594C528.551 228.502 527.226 227.97 527.015 226.681C526.89 225.911 529.605 224.746 526.491 224.71C527.609 222.52 525.56 221.19 524.814 219.319C523.855 216.914 523.29 214.315 522.305 211.898C521.347 209.548 520.276 207.317 518.896 205.239C517.646 203.358 517.106 201.548 516.107 199.561C515.907 199.386 515.707 199.212 515.508 199.037C514.675 199.171 514.407 198.75 514.706 197.773C514.069 196.725 513.595 195.606 513.033 194.511C512.38 193.239 511.499 192.202 510.825 190.965C509.929 189.324 509.665 187.475 508.653 185.829C507.409 183.805 506.01 182.02 504.857 179.92C503.412 177.289 501.812 175.654 499.994 173.617C499.128 172.647 499.024 170.223 497.964 168.845C496.809 167.345 495.669 166.938 494.868 164.968C493.827 162.406 492.299 161.183 490.812 158.968C489.584 157.141 488.985 155.041 487.633 153.273C486.471 151.755 485.151 150.368 483.91 148.929C482.343 147.111 481.186 144.902 479.555 143.174C479.791 143.423 478.136 141.967 478.219 142.013C477.853 141.806 476.672 141.64 476.844 141.752C474.382 140.146 471.298 134.265 467.594 137.381C465.646 139.02 466.581 142.025 467.941 143.657C468.525 144.358 471.561 147.815 472.217 146.357C472.925 147.472 475.105 152.859 476.919 151.315C476.734 153.156 477.694 152.545 478.328 153.79C478.745 154.611 478.542 155.014 478.846 156.295C479.682 159.819 482.873 163.26 484.573 166.332C488.803 173.979 493.47 181.232 497.704 188.887C501.74 196.184 506.259 203.107 510.13 210.501C514.534 218.909 520.02 226.847 523.337 235.911C523.449 236.216 524.371 236.698 524.599 237.156C524.998 237.951 524.912 239.325 525.169 240.226C526.059 243.348 527.502 246.421 529.146 249.007C530.588 251.275 530.693 254.359 531.685 257.02C533.085 260.771 534.563 264.483 535.923 268.253C538.039 274.12 539.473 279.744 540.935 285.87C541.883 289.84 542.637 293.808 542.939 297.908C543.216 301.678 543.285 305.605 544.541 309.174C545.398 307.705 546.407 305.801 545.83 303.981Z" fill="black"/>
<path fill-rule="evenodd" clip-rule="evenodd" d="M61.7228 384.764C60.202 384.423 58.7709 383.967 58.4486 382.028C58.2279 382.943 58.0078 383.857 57.7871 384.771C59.6387 385.237 61.4909 385.703 63.3425 386.168C62.9103 385.323 62.5946 384.96 61.7228 384.764Z" fill="black"/>
<path fill-rule="evenodd" clip-rule="evenodd" d="M65.8038 66.5102C65.9191 65.9632 66.0684 65.4271 66.2525 64.9042C66.3776 65.414 66.9906 66.5167 66.6337 66.9975C66.1791 67.6078 65.7193 67.2623 65.8038 66.5102ZM73.2593 50.7568C73.7583 51.0012 74.8384 51.0485 75.458 51.2551C73.8507 52.7905 73.5678 52.3388 71.4896 52.1606C71.3972 50.607 71.9657 50.1247 73.2593 50.7568ZM59.3276 89.2187C59.543 89.2253 59.7592 89.2311 59.976 89.2369C59.9891 88.5604 59.9733 87.8847 59.9275 87.2097C62.119 87.7414 60.8785 83.4885 60.1901 82.6069C62.3279 82.6862 63.3693 75.1695 64.0466 73.7213C64.6478 72.4353 65.329 71.9378 65.7685 70.3696C66.1529 68.9971 66.5688 67.762 67.1236 66.4636C68.3981 63.4785 70.0703 60.7676 69.7618 57.2886C70.8418 59.8991 71.7915 57.2929 72.4766 56.0448C73.5802 54.0336 76.2728 51.4674 76.559 49.0788C76.8118 46.9759 75.4049 46.8646 76.2354 44.9146C77.0751 42.9405 77.7654 43.1383 79.2365 42.507C80.215 42.0865 80.4095 42.5972 81.0998 41.2253C81.5472 40.3372 81.3893 39.6753 81.9624 38.9472C82.1989 39.1756 82.468 39.2702 82.7693 39.2309C83.2343 38.5493 83.5396 37.79 83.6843 36.9528C84.0635 35.8224 84.2469 34.7845 84.8181 33.708C85.3597 32.6882 86.3212 29.9598 86.8307 29.468C87.3717 28.9458 90.4402 29.2113 90.4271 29.2302C91.6945 27.4598 89.3687 25.6959 92.5892 26.069C91.9532 24.7539 94.1873 23.1217 94.8357 22.39C96.4554 20.5636 96.5845 19.7184 96.9263 17.4213C97.0999 16.2503 95.9668 16.3855 97.4857 16.1186C98.1138 16.0088 98.7164 16.9005 99.1696 16.7696C101.17 16.1935 99.0772 16.3034 99.6294 15.3978C99.8036 15.1105 100.694 13.951 100.685 13.9634C100.642 14.0216 100.886 12.9545 101.087 12.6803C101.47 12.644 101.846 12.5698 102.216 12.4577C102.404 12.0359 102.571 11.6038 102.715 11.1616C104.163 9.8203 106.33 9.22022 107.331 7.74657C107.979 6.79372 107.785 5.8605 108.622 4.91055C109.419 4.0057 110.474 4.66106 110.631 2.61715C110.833 0.016801 108.317 -1.14044 107.289 1.48391C104.498 -2.33261 92.8361 11.67 91.4888 13.4993C85.6368 21.4408 79.8849 29.5786 75.0846 38.3602C70.4076 46.917 66.5688 55.9204 63.5684 65.358C62.1216 69.9085 61.2407 74.4385 60.3572 79.1453C60.0605 80.7216 57.8434 87.7458 58.7663 89.3176C58.9529 89.2849 59.1402 89.2514 59.3276 89.2187Z" fill="black"/>
<path fill-rule="evenodd" clip-rule="evenodd" d="M519.966 283.964C520.952 283.234 520.952 283.234 521.125 281.854C519.803 282.122 519.803 282.122 519.966 283.964Z" fill="black"/>
<path fill-rule="evenodd" clip-rule="evenodd" d="M34.0903 376.794C34.1028 376.793 34.1119 376.797 34.1191 376.805C34.0982 376.775 34.0221 376.686 34.0903 376.794Z" fill="black"/>
<path fill-rule="evenodd" clip-rule="evenodd" d="M33.4294 377.534C33.734 378.266 34.2232 378.447 34.8979 378.079C35.1638 378.501 32.5911 375.446 33.4294 377.534Z" fill="black"/>
<path fill-rule="evenodd" clip-rule="evenodd" d="M77.9185 43.894C76.3748 47.2553 78.3082 44.8105 78.2093 45.9023C78.2742 45.1851 78.5421 44.1632 77.9185 43.894Z" fill="black"/>
<path fill-rule="evenodd" clip-rule="evenodd" d="M328.894 95.9167C329.563 101.944 336.988 99.0932 338.658 95.4476C339.874 92.7934 342.945 82.3053 339.641 80.0897C337.191 78.4473 336.668 85.5261 336.064 87.1075C335.052 89.7559 334.262 87.8792 332.012 88.5586C329.529 89.3085 328.618 93.4175 328.894 95.9167Z" fill="black"/>
<path fill-rule="evenodd" clip-rule="evenodd" d="M320.782 84.8853C323.435 85.5399 326.037 85.2024 327.922 82.8748C328.966 81.5859 330.355 79.0292 328.475 77.7818C326.772 76.6522 324.84 79.2976 323.046 78.7506C320.607 78.0065 321.863 75.1014 321.026 73.1826C317.95 75.1494 316.234 83.7637 320.782 84.8853Z" fill="black"/>
<path fill-rule="evenodd" clip-rule="evenodd" d="M323.534 100.104C320.976 100.098 320.955 103.592 322.29 105.09C323.568 106.522 326.799 107.973 328.532 106.858C331.95 104.659 325.604 100.33 323.534 100.104Z" fill="black"/>
<path fill-rule="evenodd" clip-rule="evenodd" d="M174.681 239.058C175.228 239.353 176.837 240.868 177.516 240.184C176.558 239.113 175.6 238.041 174.643 236.97C174.113 237.614 173.751 238.556 174.681 239.058Z" fill="black"/>
<path fill-rule="evenodd" clip-rule="evenodd" d="M162.591 85.7568C162.32 85.9823 162.047 86.2071 161.775 86.4319C162.693 87.2808 162.67 87.5332 163.595 86.7294C163.32 86.3279 162.986 86.0042 162.591 85.7568Z" fill="black"/>
<path fill-rule="evenodd" clip-rule="evenodd" d="M335.979 285.721C335.465 284.696 334.494 286.587 333.837 286.894C332.768 287.394 331.891 284.746 332.198 287.92C329.781 286.691 328.315 289.51 326.757 290.978C324.556 293.052 321.863 294.178 320.395 297.124C327.306 298.919 334.901 292.302 340.055 287.955C340.896 287.245 345.099 283.664 342.25 283.318C341.085 283.177 336.844 287.445 335.979 285.721Z" fill="black"/>
<path fill-rule="evenodd" clip-rule="evenodd" d="M333.929 279.508C335.284 278.324 332.363 278.215 331.901 278.091C331.941 279.033 331.98 279.974 332.02 280.916C332.674 280.476 333.31 280.006 333.929 279.508Z" fill="black"/>
<path fill-rule="evenodd" clip-rule="evenodd" d="M328.843 283.458C329.248 283.177 330.376 282.301 329.609 281.647C328.915 282.138 328.419 282.938 328.311 283.851C328.488 283.72 328.666 283.589 328.843 283.458Z" fill="black"/>
<path fill-rule="evenodd" clip-rule="evenodd" d="M216.902 207.078C216.037 207.455 215.649 208.051 215.741 208.867C217.07 208.565 216.817 207.171 216.902 207.078Z" fill="black"/>
</svg>
