<svg width="799" height="482" viewBox="0 0 799 482" fill="none" xmlns="http://www.w3.org/2000/svg">
<path fill-rule="evenodd" clip-rule="evenodd" d="M589.397 388.211C585.612 392.47 580.022 395.631 575.733 399.525C571.23 403.615 566.342 407.189 561.856 411.23C542.067 387.7 514.959 373.272 491.475 353.746C480.342 344.488 472.139 331.932 466.136 319.045C463.059 312.439 460.786 305.639 459.006 298.602C458.205 295.432 457.422 292.273 456.898 289.06C456.264 285.168 456.099 284.836 453.401 281.799C452.239 280.492 449.989 276.674 447.714 277.094C445.799 277.449 442.297 283.119 441.087 284.52C435.268 291.257 429.626 298.198 423.5 304.674C414.126 314.583 405.593 324.334 396.89 334.837C379.087 356.324 359.883 376.551 340.504 396.769C339.067 398.268 335.716 402.665 333.651 403.256C331.14 403.975 327.06 400.979 324.532 399.304C318.429 395.262 313.618 390.258 308.401 385.248C298.22 375.471 291.325 361.747 286.688 348.69C283.911 340.873 282.106 332.771 279.241 324.982C278.047 321.735 275.34 317.745 276.714 314.917C277.123 314.074 279.728 311.835 280.646 311.664C281.732 311.461 283.543 312.909 283.921 312.809C287.524 311.85 285.524 308.18 287.668 306.205C288.883 305.085 295.064 305.249 296.909 304.633C303.656 302.382 309.709 298.087 316.087 295.522C342.789 284.79 369.816 274.35 392.867 256.824C398.846 252.279 402.818 248.864 409.951 245.926C417.16 242.958 424.406 240.31 431.762 237.72C438.251 235.434 444.776 233.292 451.48 231.654C458.729 229.882 469.012 227.636 476.255 229.918C490.479 234.398 495.072 245.8 500.737 257.828C508.4 274.101 517.666 289.501 527.712 304.479C547.036 333.298 570.539 359.159 589.397 388.211Z" fill="#FF5678"/>
<path fill-rule="evenodd" clip-rule="evenodd" d="M161.034 133.434C160.251 133.047 154.14 135.467 153.115 135.837C149.018 137.316 145.159 139.773 141.299 141.772C144.257 145.275 147.216 148.778 150.173 152.282C153.073 145.362 156.799 139.653 161.034 133.434ZM163.051 176.485C162.045 176.595 170.542 196.462 171.534 198.692C175.145 206.805 178.937 214.839 182.595 222.932C186.14 230.774 190.637 237.989 195.167 245.315C199.042 251.58 203.028 261.304 208.873 265.944C205.183 250.015 205.669 231.7 195.083 218.325C184.11 204.459 173.261 190.919 163.051 176.485ZM589.397 388.919C573 363.657 552.473 341.309 535.374 316.498C525.8 302.605 516.481 288.535 508.422 273.747C502.56 262.99 498.916 247.642 489.862 239.418C485.872 235.795 481.609 232.248 476.255 230.625C468.929 228.404 458.84 230.605 451.48 232.362C437.764 235.633 424.365 240.714 411.373 246.05C398.195 251.462 386.953 261.184 375.046 268.994C362.274 277.374 348.448 283.478 334.138 288.822C321.678 293.474 310.594 300.154 298.2 304.837C295.731 305.771 290.691 305.634 288.619 306.851C286.387 308.161 287.266 312.031 284.556 313.458C283.333 314.102 282.926 311.767 281.987 311.806C280.839 311.852 279.792 313.163 278.686 313.993C274.182 317.374 276.941 319.628 278.725 324.28C284.538 339.438 287.662 354.861 295.825 369.171C302.535 380.933 312.14 391.473 323.448 399.26C325.169 400.445 330.776 405.037 332.795 404.731C334.612 404.457 338.311 399.756 339.566 398.48C345.26 392.686 350.465 386.454 356.156 380.652C364.95 371.684 373.416 362.476 381.95 353.386C391.857 342.834 400.626 330.878 409.549 319.603C413.654 314.416 418.937 310.191 423.499 305.382C429.635 298.915 435.268 291.963 441.088 285.228C442.848 283.19 445.797 277.976 448.534 278.037C450.451 278.08 453.832 282.472 454.835 283.848C458.562 288.964 458.545 298.203 460.399 304.589C464.923 320.162 473.079 335.371 484.266 347.388C495.39 359.337 509.64 367.835 522.796 377.44C537.05 387.847 550.553 398.496 561.856 411.938C566.342 407.897 571.23 404.322 575.733 400.233C580.023 396.338 585.613 393.178 589.397 388.919ZM378.326 460.388C381.514 460.419 386.912 462.327 389.764 461.178C381.305 452.072 373.537 444.259 362.834 437.586C351.728 430.661 340.659 423.798 329.872 416.411C308.133 401.526 292.143 383.872 283.062 359.082C280.724 352.698 279.158 346.003 277.444 339.441C276.522 335.907 274.687 319.372 271.571 317.945C269.724 317.098 255.83 326.599 253.629 327.783C248.481 330.552 243.315 332.7 237.994 334.867C226.555 339.526 214.764 343.08 202.634 346.047C188.092 349.604 178.187 343.719 169.178 332.599C158.957 319.983 150.464 305.749 141.119 292.5C136.87 286.474 133.349 280.458 130.211 273.812C128.157 269.463 120.01 257.73 122.825 253.097C130.856 259.045 133.746 270.873 139.216 278.837C146.034 288.764 153.718 298.122 160.571 308.04C166.334 316.379 172.214 326.484 180.728 332.479C188.218 337.752 195.332 336.131 203.393 333.761C213.161 330.889 223.287 329.474 232.861 325.912C243.221 322.058 253.024 316.591 263.132 312.133C267.844 310.054 273.486 308.872 277.927 306.28C281.754 304.048 281.184 302.869 281.464 298.115C281.793 292.569 282.171 287.018 282.423 281.467C282.592 277.737 280.519 272.68 281.926 269.895C270.45 271.831 259.234 274.423 247.839 276.717C241.6 277.972 235.583 279.525 229.281 280.511C226.878 280.887 223.594 280.877 221.443 281.895C219.726 281.415 218.852 281.72 218.818 282.809C218.736 283.4 218.606 283.983 218.428 284.556C214.909 286.113 212.862 282.773 209.81 279.569C206.044 275.615 203.224 271.161 200.461 266.515C194.283 256.127 187.163 246.356 181.446 235.675C175.619 224.787 170.887 213.129 165.946 201.832C161.414 191.468 158.512 180.259 153.504 170.141C151.269 165.624 148.437 161.889 145.129 158.073C142.4 154.925 138.2 148.132 134.124 146.686C133.047 146.304 130.224 146.946 129 146.861C126.56 146.692 124.385 145.82 121.888 146.011C116.481 146.423 110.586 149.749 106.265 152.674C109.057 155.095 116.042 158.038 111.025 162.4C106.156 166.635 103.467 159.039 101.609 155.711C92.8602 162.7 94.1248 172.338 93.1141 182.213C92.5862 187.369 91.1976 192.447 90.3017 197.526C89.6565 201.181 90.109 204.961 89.9246 208.693C89.4545 218.175 88.4748 227.252 88.5226 236.602C88.5729 246.596 89.2727 256.247 90.0947 266.169C91.4783 282.872 94.6485 299.582 97.3671 316.153C98.8965 325.468 100.99 334.517 103.022 343.681C105.328 354.082 109.595 363.933 111.987 374.307C114.425 371.292 116.259 371.277 120.201 371.677C123.234 371.984 125.271 371.282 125.094 375.377C124.979 378.034 122.571 380.062 119.906 380.526C116.43 381.13 115.25 379.443 113.459 376.883C113.04 381.732 116.392 386.802 117.718 391.538C118.972 396.026 119.803 400.426 121.912 404.722C123.969 408.912 125.731 413.046 127.812 417.196C128.771 419.106 129.668 421.045 130.637 422.95C131.128 423.914 131.705 425.243 132.437 426.056C134.153 427.962 133.88 427.039 135.888 428.124C140.265 430.489 138.621 429.9 138.723 434.783C138.823 439.601 141.362 443.14 145.434 445.848C154.073 451.594 162.594 453.192 172.416 456.095C181.567 458.8 191.206 461.121 200.896 461.068C212.764 461.004 224.475 459.49 236.343 459.337C249.436 459.168 262.655 459.237 275.721 459.677C281.104 459.858 286.103 460.092 291.299 461.429C297.334 462.983 303.171 462.366 309.391 462.131C322.66 461.628 336.387 460.63 349.483 460.54C358.912 460.475 368.861 459.835 378.326 460.388ZM722.407 465.392C724.766 466.604 730.054 466.107 732.426 465.77C736.603 465.177 737.051 463.566 739.701 459.942C744.263 453.701 747.968 447.724 750.652 440.495C755.789 426.659 757.886 412.504 760.141 398.03C762.648 381.947 758.071 365.277 756.433 349.303C756.057 345.639 755.542 342.007 754.947 338.37C754.591 336.196 754.498 328.799 753.027 326.916C750.202 323.3 737.062 326.217 731.895 326.545C717.474 327.461 702.959 327.675 688.545 327.834C680.86 327.919 673.131 328.232 665.522 328.29C662.028 328.317 658.611 328.148 655.104 327.817C653.931 327.707 652.785 327.445 651.604 327.381C647.558 327.163 647.862 326.593 646.816 330.078C644.984 336.185 646.394 343.954 645.913 350.292C645.269 358.761 644.921 367.35 645.08 375.837C645.228 383.68 644.953 391.506 645.254 399.366C645.38 402.621 645.745 405.275 646.627 408.384C647.625 411.899 648.723 420.11 651.209 422.542C651.491 422.82 653.604 422.174 654.165 422.864C655.029 423.926 654.87 426.174 655.463 426.86C657.383 429.083 661.351 429.259 664.23 430.258C672.128 432.998 679.374 435.973 686.818 439.668C693.469 442.969 704.194 445.778 708.193 452.291C710.026 455.277 710.273 459.214 711.959 462.294C713.879 465.803 710.038 463.968 714.742 465.392C716.86 466.033 720.236 465.392 722.407 465.392ZM21.1894 425.705C20.591 433.808 15.8989 441.527 14.2656 449.494C13.5014 453.224 12.2049 456.892 11.3066 460.6C10.4451 464.158 7.33269 468.372 7.64779 471.892C19.1354 467.91 30.7713 466.909 42.7776 465.835C54.1571 464.817 66.1785 464.412 77.4624 464.407C88.9609 464.401 101.255 463.309 113.095 463.139C125.477 462.962 138.045 462.65 150.248 461.401C143.867 456.804 135.883 452.486 131.172 446.089C126.05 439.135 123.39 430.423 118.883 423.085C109.839 408.36 104.09 390.089 99.349 373.545C89.778 340.149 79.0823 307.37 76.5046 272.729C71.5988 275.174 67.7045 284.656 65.2483 289.378C62.1132 295.408 60.4716 301.943 58.4335 308.351C54.2367 321.55 51.3321 335.236 46.1934 348.309C36.3718 373.299 30.059 400.227 21.1894 425.705ZM644.77 231.064C646.895 246 651.35 261.129 651.521 276.246C651.558 279.571 650.979 283.265 651.692 286.544C652.452 290.045 654.927 293.139 656.356 296.467C658.624 301.748 664.367 312.574 658.828 317.049C658.716 312.802 654.721 307.409 652.709 303.695C649.676 298.1 645.691 292.984 642.404 287.527C635.522 276.105 627.81 264.929 618.942 254.86C610.303 245.052 600.348 236.352 591.187 227.012C588.435 224.206 566.357 197.198 565.479 197.575C572.328 223.269 583.969 245.624 599.901 267.136C607.712 277.682 617.087 284.622 626.596 293.556C634.515 300.996 649.439 308.952 646.701 321.143C659.08 319.985 671.377 318.136 683.867 318.136C681.813 302.755 680.24 287.618 676.573 272.49C672.41 255.313 669.59 237.622 666.067 220.292C662.472 202.6 656.374 185.472 652.58 167.814C648.947 150.904 645.826 134.025 643.163 116.928C640.962 126.402 641.774 136.807 640.993 146.473C640.196 156.349 640.273 166.043 640.538 175.976C641.03 194.427 643.052 212.656 644.77 231.064ZM698.409 143.095C698.478 135.197 700.051 127.406 700.536 119.527C700.686 117.11 703.16 100.617 700.852 99.7561C698.954 103.782 698.512 108.934 696.788 113.158C695.066 117.378 692.762 121.398 691.109 125.647C687.529 134.853 686.294 145.269 685.909 155.056C685.036 177.193 684.585 199.28 686.115 221.417C686.77 230.905 687.273 240.41 687.094 249.917C686.897 260.378 685.25 269.458 687.25 279.834C689.229 290.108 690.473 300.34 691.132 310.764C691.595 318.081 691.781 317.563 698.956 317.049C704.136 316.677 709.367 317.074 714.554 316.843C712.129 288.328 711.732 259.753 707.858 231.346C705.881 216.855 705.829 202.153 703.373 187.715C702.153 180.543 700.106 173.515 698.929 166.335C697.666 158.625 698.288 150.864 698.409 143.095ZM173.717 125.149C187.531 126.314 202.224 130.331 216.382 127.678C214.048 126.759 207.941 125.49 210.689 121.86C213.484 118.17 218.194 122.851 220.981 122.368C222.7 122.069 226.498 115.08 227.557 113.632C229.961 110.344 230.251 109.77 234.574 108.927C238.763 108.112 239.712 108.995 240.243 104.944C240.852 100.285 239.195 95.0477 239.36 90.284C239.712 80.0284 243.113 71.0348 246.278 61.3858C232.831 64.232 219.681 67.6073 205.931 69.4418C200.053 70.2261 190.909 72.0352 185.569 68.1479C184.18 67.1369 184.402 65.7721 183.266 64.6005C181.36 62.6348 177.825 60.6015 175.123 60.0414C158.491 56.5968 156.868 79.6639 165.203 88.2955C167.291 90.4584 170.195 91.5265 172.333 93.5085C175.186 96.1517 175.42 98.9359 175.837 102.971C176.618 110.537 175.557 118.132 172.239 125.053L173.717 125.149ZM375.55 234.048C380.46 234.955 385.585 234.748 390.507 235.522C392.256 235.796 397.5 236.755 399.038 235.76C401.386 234.242 402.22 228.671 403.331 226.076C405.283 221.513 408.046 217.533 409.908 212.887C417.518 193.908 424.613 174.854 433.816 156.524C430.289 155.632 427.581 155.597 424.026 155.136C420.323 154.656 416.965 152.525 413.432 151.61C410.074 150.74 406.556 150.962 403.229 149.95C401.397 149.393 399.824 148.154 398.017 147.722C395.137 147.033 391.775 146.63 390.062 148.469C388.307 150.356 387.691 155.529 386.736 157.966C384.191 164.458 381.236 170.724 379.105 177.365C377.181 183.355 375.354 189.281 373.662 195.326C371.873 201.707 368.349 206.967 366.202 213.063C364.568 217.702 363.027 222.446 362.783 227.393C362.546 232.22 361.824 232.528 366.786 233.299C369.29 233.688 373.194 235.136 375.55 234.048ZM698.599 459.98C699.878 460.56 701.084 460.483 702.215 459.748C691.128 455.193 680.343 448.874 668.777 445.748C657.927 442.817 647.382 439.315 636.929 435.705C628.436 432.771 620.8 430.487 613.121 425.325C608.46 422.191 604.319 418.667 601.116 414.088C597.55 408.989 596.757 401.733 592.895 397.141C587.683 402.71 581.559 406.928 575.392 411.353C573.259 412.884 568.141 416.222 567.411 418.591C566.49 421.581 568.957 424.441 570.177 427.467C573.302 435.215 574.829 442.96 576.524 451.016C577.204 454.244 578.671 459.098 581.398 460.45C583.88 461.681 591.068 460.786 594.157 460.558C610.272 459.37 626.102 458.154 642.314 459.236C660.66 460.459 680.301 461.305 698.599 459.98ZM730.786 316.397C733.715 316.406 736.576 316.05 739.494 316.05C737.81 308.398 741.748 298.498 743.144 290.86C744.706 282.316 745.895 273.482 746.937 264.87C749.132 246.73 750.127 228.811 750.156 210.538C750.182 192.857 753.491 176.7 758.125 159.702C763.101 141.448 771.25 125.032 777.988 107.427C770.597 111.228 766.506 120.122 762.623 126.922C757.714 135.519 754.444 145.038 752.439 154.69C748.572 173.309 744.33 191.984 739.867 210.572C735.22 229.926 732.488 249.458 727.165 268.654C724.569 278.016 721.039 289.533 720.843 299.186C720.762 303.18 719.525 311.543 721.385 315.011C723.125 318.256 726.972 316.728 730.786 316.397ZM288.688 292.383C288.534 294.37 288.388 296.261 288.025 298.224C292.082 298.187 297.22 294.092 300.699 292.253C304.938 290.014 309.182 287.543 313.327 285.292C321.331 280.945 330.416 278.081 338.962 274.51C348.778 270.407 357.801 265.45 367.189 260.511C370.468 258.786 394.035 248.848 393.639 246.133C388.465 245.965 383.291 245.798 378.116 245.63C373.681 245.487 366.811 246.462 362.563 245.128C360.236 244.397 357.624 241.706 356.746 239.598C355.877 237.513 357.831 227.921 356.695 227.309C350.904 233.061 347.263 240.706 342.086 246.911C336.365 253.77 328.972 257.774 320.824 261.419C311.826 265.444 302.513 268.561 293.317 272.01C289.439 273.465 289.516 274.297 289.178 278.434C288.8 283.057 288.841 287.747 288.688 292.383ZM756.259 466.334C766.013 467.353 776.008 466.772 785.838 467.566C789.415 467.855 794.374 468.285 790.775 472.955C788.509 475.897 781.25 474.954 777.958 475.158C769.117 475.705 759.758 475.41 750.897 475.283C749.032 475.257 746.97 474.717 745.085 474.839C742.908 474.978 740.302 476.501 738.319 476.49C737.096 476.482 736.658 475.228 735.603 475.113C733.306 474.862 731.01 474.678 728.694 474.679C693.673 474.686 659.133 474.001 624.199 473.965C607.495 473.948 590.523 473.667 573.825 472.904C570.319 472.743 550.351 473.441 550.904 467.299C551.188 464.135 557.705 463.69 560.083 463.354C561.846 463.105 563.674 463.144 565.44 463.052C570.131 462.807 572.186 463.906 571.196 458.912C567.443 439.971 560.717 424.317 546.346 410.699C534.596 399.562 520.447 389.461 507.137 380.162C490.977 368.87 477.867 356.994 468.272 339.716C462.669 329.626 457.979 319.31 455.1 308.153C454.065 304.139 454.04 299.575 452.771 295.705C451.794 292.726 449.569 290.641 448.258 287.555C432.18 313.682 410.87 335.541 391.33 359.098C381.994 370.353 371.344 381.042 360.189 390.833C356.879 393.739 353.79 396.772 350.7 399.899C348.115 402.516 344.012 404.842 341.83 407.746C339.737 410.531 340.252 410.398 343.438 412.61C347.65 415.532 352.292 417.961 356.57 420.811C363.408 425.368 370.873 429.218 376.987 434.702C383.6 440.632 389.377 447.502 395.157 454.189C399.009 458.646 404.064 464.365 405.033 470.001C405.354 471.865 406.572 476.477 404.964 477.842C403.59 479.009 403.728 478.566 402.022 477.854C399.786 476.922 399.128 474.782 396.397 473.762C389.409 471.153 380.952 472.049 373.681 472.017C366.407 471.985 359.072 472.78 351.802 472.751C335.199 472.685 318.95 473.992 302.352 474.694C284.723 475.44 266.878 473.651 249.309 473.904C236.291 474.092 222.926 473.145 209.549 473.849C202.668 474.21 195.91 473.373 189.201 473.279C180.417 473.156 171.395 474.319 162.536 474.484C147.994 474.757 133.631 474.756 119.001 475.095C87.5312 475.828 56.232 476.585 24.7442 477.07C20.5441 477.135 15.9459 476.996 11.7952 477.456C7.38968 477.945 9.66407 478.856 6.64133 480.399C-1.821 484.718 0.133262 468.708 0.336063 465.56C1.42381 448.686 5.82677 432.138 11.118 416.119C16.1378 400.926 20.2131 385.024 24.4643 369.502C29.1179 352.514 35.1809 336.221 40.6867 319.4C46.3283 302.163 50.9215 284.254 61.168 268.975C63.5018 265.495 65.9137 261.75 69.668 259.557C73.8765 257.097 74.0575 258.533 74.0542 254.032C74.0517 249.793 74.3199 244.129 73.2916 240.083C72.3622 236.428 72.5055 238.595 70.413 235.97C68.7101 233.835 66.9285 232.375 65.7067 229.783C58.2014 237.186 41.0211 233.28 33.7697 227.948C24.8942 221.423 18.1339 210.414 15.6567 199.929C13.6673 191.509 16.1084 175.46 25.687 171.412C30.3565 169.438 47.5074 167.946 48.1937 161.513C48.5474 158.192 42.5111 153.523 41.1183 150.668C38.5372 145.378 36.0584 138.342 35.341 132.544C33.9398 121.226 39.221 108.57 47.6339 100.925C63.0669 86.9005 90.2213 79.7031 110.073 88.6012C105.878 73.0103 103.346 59.5604 105.458 43.3425C107.278 29.3708 115.752 21.5537 127.411 14.5943C147.307 2.71687 174.364 -1.97108 197.113 1.48251C202.283 2.26764 207.244 3.95123 212.031 5.29076C218.985 7.23687 227.31 6.58872 233.876 9.75068C238.636 12.0425 242.252 16.6081 246.432 19.6565C251.314 23.2153 255.37 28.5269 258.761 33.4391C266.014 43.9434 263.18 63.4387 257.11 73.9829C255.808 76.2446 254.2 78.1483 252.046 79.6917C249.804 81.2978 246.386 81.7976 245.23 83.8806C242.27 89.2168 245.125 100.769 245.52 106.536C245.98 113.233 242.5 118.263 234.694 118.797C230.179 119.107 230.035 116.559 227.873 121.803C226.472 125.201 225.199 128.905 223.177 132.021C219.007 138.443 211.371 137.816 204.416 137.642C196.364 137.44 188.433 136.202 180.377 135.421C182.505 142.054 188.329 147.201 191.966 153.11C196.884 161.101 199.844 167.726 200.643 177.036C201.256 184.19 199.932 189.839 194.901 195.163C192.818 197.367 190.972 197.475 191.489 200.017C191.804 201.568 194.561 204.126 195.536 205.364C198.116 208.638 201.112 211.643 203.383 215.14C212.122 228.594 214.703 249.104 214.725 264.765C214.726 265.484 215.12 267.011 214.794 267.754C214.553 268.302 212.719 270.04 212.692 270.189C212.333 272.203 214.351 275.655 217.518 275.996C220.844 276.354 226.936 273.654 230.03 272.767C234.981 271.347 240.027 270.298 244.968 268.839C252.946 266.484 260.888 264.606 269 262.76C272.665 261.927 276.351 261.232 280.028 260.453C284.216 259.566 286.162 257.851 288.324 261.997C290.179 265.555 289.026 266.2 293.518 264.407C297.979 262.625 302.338 260.417 306.693 258.407C314.374 254.862 323.522 251.702 330.148 246.469C341.201 237.738 345.294 223.834 355.872 214.569C358.818 211.99 360.575 211.944 362.437 208.371C364.431 204.546 365.459 199.641 366.507 195.527C368.343 188.323 369.649 181.094 371.314 173.897C373.388 164.93 377.871 156.81 381.142 148.257C382.416 144.925 383.077 140.69 385.132 137.695C385.677 136.901 386.718 136.453 387.143 135.796C388.605 133.54 388.59 132.921 388.969 130.207C390.741 117.525 398.522 124.196 407.025 127.104C410.607 128.33 427.618 136.276 421.123 141.561C428.866 143.747 441.268 142.559 441.164 153.355C441.11 158.887 437.71 164.804 435.885 169.982C434.263 174.58 432.696 179.195 431.049 183.785C427.442 193.84 423.065 203.595 419.544 213.681C417.939 218.277 416.615 222.982 414.381 227.32C412.411 231.147 407.64 235.365 406.854 239.55C427.488 230.985 446.578 218.603 469.674 219.392C479.788 219.737 488.966 223.873 494.551 232.524C501.554 243.367 506.161 255.508 513.005 266.451C537.903 306.262 567.6 342.428 594.932 380.59C597.032 383.523 599.732 386.296 600.46 389.92C600.935 392.284 600.013 394.649 600.583 396.921C601.766 401.641 607.74 407.535 611.791 410.248C619.556 415.448 632.179 422.782 641.869 422.133C635.788 407.914 635.869 392.335 636.151 377.168C636.42 362.761 638.021 348.469 639.921 334.211C640.351 330.985 640.725 327.994 641.678 324.867C642.772 321.28 644.273 321.62 640.998 318.396C635.956 313.43 629.959 309.345 624.877 304.318C613.884 293.447 602.618 284.926 593.966 271.944C585.739 259.596 577.058 246.892 570.968 233.37C564.697 219.45 562.191 204.585 559.079 189.844C557.816 183.862 553.21 177.184 554.135 170.937C555.305 163.043 559.068 168.791 560.6 173.04C565.274 186.009 576.219 197.616 585.285 208.046C595.08 219.314 607.059 228.741 617.283 239.68C628.416 251.595 636.042 265.288 645.943 278.007C645.943 262.223 640.403 246.15 638.137 230.535C636.144 216.792 635.518 203.005 634.257 189.202C631.396 157.848 633.869 125.569 637.885 94.4387C639.794 79.6541 638.711 65.2177 638.769 50.3826C638.788 45.6612 636.779 34.7794 639.339 30.5896C644.242 22.5647 647.103 40.1123 647.351 42.7286C648.833 58.3138 646.174 73.7253 647.532 89.2437C648.952 105.449 652.033 121.2 654.654 137.218C657.494 154.562 662.117 171.514 666.544 188.526C671.191 206.386 675.1 224.619 680.267 242.337C681.661 236.768 679.706 229.926 679.319 224.254C678.768 216.137 677.691 208.018 677.598 199.88C677.449 186.91 677.345 173.699 678.099 160.788C678.843 148.063 678.618 134.729 682.63 122.469C684.534 116.651 687.326 110.974 690.058 105.493C693.428 98.7337 694.62 92.1804 696.486 84.9919C698.085 78.8356 700.425 72.8415 701.49 66.5621C702.152 62.6569 704 51.1286 708.596 59.8628C711.264 64.9324 710.111 72.4478 710.185 77.8939C710.281 84.8761 709.182 91.6651 709.014 98.6179C708.686 112.259 708.451 125.885 707.405 139.503C706.308 153.791 707.266 166.596 710.06 180.675C713.118 196.086 714.013 211.53 715.597 227.129C716.414 235.183 717.792 243.193 718.457 251.258C718.809 255.53 717.004 267.778 720.15 270.82C720.454 263.422 722.633 256.017 724.285 248.808C726.242 240.268 727.032 231.29 728.474 222.628C730.81 208.593 735.342 195.191 738.34 181.313C744.521 152.707 749.656 115.941 775.558 97.2172C778.947 94.7673 782.671 92.959 786.335 90.9427C788.409 89.8013 791.49 86.8483 793.863 86.3331C796.454 85.7705 797.534 86.2075 798.584 89.1311C800.048 93.2068 797.37 95.1105 794.871 98.0709C786.22 108.314 782.524 121.445 777.183 133.459C764.951 160.968 759.539 189.982 759.477 219.718C759.444 235.284 758.341 250.298 756.634 265.77C754.798 282.421 752.381 300.031 747.181 316.049C752.396 317.187 758.054 315.491 759.469 321.389C759.817 322.837 759.189 324.55 759.573 326.436C759.947 328.269 760.846 330.092 761.378 331.894C762.478 335.623 763.059 339.301 763.594 343.13C765.661 357.926 769.211 371.999 769.589 387.001C769.937 400.869 767.146 414.919 764.575 428.519C761.985 442.218 754.556 453.895 748.707 466.284C751.225 466.284 753.741 466.309 756.259 466.334Z" fill="black"/>
<path fill-rule="evenodd" clip-rule="evenodd" d="M425.24 434.844C422.466 435.608 409.075 437.047 409.078 441.135C409.08 443.587 422.453 443.539 424.819 443.805C424.96 440.819 425.1 437.832 425.24 434.844ZM454.798 463.053C462.514 464.48 472.989 462.473 477.922 455.855C480.228 452.762 481.32 448.059 482.071 444.368C482.789 440.851 485 432.074 483.495 428.777C481.647 424.728 463.917 428.96 458.754 429.424C449.746 430.233 440.432 430.329 431.418 429.757C431.418 438.812 430.942 447.636 436.416 455.43C440.365 461.053 447.782 462.38 454.798 463.053ZM453.247 474.237C444.862 471.251 436.06 473.192 430.6 464.435C429.215 462.213 428.048 459.824 427.21 457.356C426.8 456.275 426.482 455.168 426.256 454.034C426.682 451.593 425.763 450.905 423.499 451.969C419.055 451.128 414.181 454.096 409.5 453.221C398.147 451.1 400.209 435.277 407.828 429.8C409.334 428.718 410.837 428.417 412.56 427.882C416.358 426.705 418.413 428.02 421.887 427.685C424.694 427.415 425.466 424.551 428.483 423.29C430.458 422.465 433.2 422.529 435.277 422.445C446.144 422.011 457.046 422.015 467.983 421.326C473.084 421.005 478.592 421.791 483.589 420.943C485.929 420.545 485.593 419.03 487.808 420.359C490.102 421.735 489.111 426.824 488.996 428.854C488.326 440.588 487.608 453.173 481.147 463.432C475.235 472.818 463.603 473.779 453.247 474.237Z" fill="black"/>
<path fill-rule="evenodd" clip-rule="evenodd" d="M10.4475 477.47C13.1451 477.442 15.8418 477.414 18.5302 477.387C15.8293 477.416 13.1384 477.443 10.4475 477.47Z" fill="black"/>
<path fill-rule="evenodd" clip-rule="evenodd" d="M759.494 227.275C759.489 224.754 759.483 222.233 759.477 219.717C759.482 222.24 759.488 224.757 759.494 227.275Z" fill="black"/>
<path fill-rule="evenodd" clip-rule="evenodd" d="M73.3 237.628C73.2917 240.084 73.2833 242.539 73.2749 244.989C73.2824 242.532 73.2908 240.08 73.3 237.628Z" fill="black"/>
<path fill-rule="evenodd" clip-rule="evenodd" d="M297.528 474.686C299.674 474.689 301.821 474.692 303.957 474.697C301.807 474.695 299.669 474.691 297.528 474.686Z" fill="black"/>
<path fill-rule="evenodd" clip-rule="evenodd" d="M167.219 474.186C169.365 474.192 171.51 474.199 173.646 474.207C171.497 474.201 169.358 474.193 167.219 474.186Z" fill="black"/>
<path fill-rule="evenodd" clip-rule="evenodd" d="M636.435 372.199C636.341 373.856 636.245 375.513 636.151 377.167C636.246 375.508 636.341 373.854 636.435 372.199Z" fill="black"/>
<path fill-rule="evenodd" clip-rule="evenodd" d="M756.259 466.333C754.601 466.316 752.943 466.3 751.284 466.283C752.95 465.607 754.609 465.637 756.259 466.333Z" fill="black"/>
<path fill-rule="evenodd" clip-rule="evenodd" d="M609.014 473.673C610.204 473.655 611.394 473.637 612.574 473.617C611.38 473.634 610.197 473.654 609.014 473.673Z" fill="black"/>
<path fill-rule="evenodd" clip-rule="evenodd" d="M758.848 247.729C758.877 246.476 758.906 245.223 758.936 243.975C758.906 245.229 758.877 246.479 758.848 247.729Z" fill="black"/>
<path fill-rule="evenodd" clip-rule="evenodd" d="M647.532 89.2433C647.434 87.951 647.336 86.6596 647.237 85.3706C647.336 86.6637 647.434 87.9535 647.532 89.2433Z" fill="black"/>
<path fill-rule="evenodd" clip-rule="evenodd" d="M759.435 232.21C759.451 230.914 759.467 229.62 759.483 228.329C759.467 229.625 759.451 230.918 759.435 232.21Z" fill="black"/>
<path fill-rule="evenodd" clip-rule="evenodd" d="M385.104 472.067C386.163 472.082 387.221 472.097 388.271 472.11C387.21 472.094 386.157 472.081 385.104 472.067Z" fill="black"/>
<path fill-rule="evenodd" clip-rule="evenodd" d="M657.718 474.179C658.752 474.199 659.787 474.219 660.812 474.24C659.773 474.221 658.746 474.2 657.718 474.179Z" fill="black"/>
<path fill-rule="evenodd" clip-rule="evenodd" d="M769.47 383.103C769.396 381.966 769.321 380.83 769.248 379.696C769.323 380.833 769.396 381.968 769.47 383.103Z" fill="black"/>
<path fill-rule="evenodd" clip-rule="evenodd" d="M750.897 475.283C751.74 475.279 752.582 475.274 753.414 475.272C752.569 475.278 751.733 475.281 750.897 475.283Z" fill="black"/>
<path fill-rule="evenodd" clip-rule="evenodd" d="M636.157 474.231C636.991 474.211 637.825 474.191 638.65 474.172C637.813 474.192 636.984 474.212 636.157 474.231Z" fill="black"/>
<path fill-rule="evenodd" clip-rule="evenodd" d="M448.702 473.611C449.621 473.606 450.538 473.601 451.447 473.595C450.527 473.6 449.615 473.605 448.702 473.611Z" fill="black"/>
<path fill-rule="evenodd" clip-rule="evenodd" d="M237.01 473.608C237.883 473.614 238.756 473.62 239.619 473.627C238.744 473.623 237.877 473.615 237.01 473.608Z" fill="black"/>
<path fill-rule="evenodd" clip-rule="evenodd" d="M185.513 473.744C186.403 473.696 187.292 473.647 188.173 473.6C187.281 473.649 186.398 473.696 185.513 473.744Z" fill="black"/>
<path fill-rule="evenodd" clip-rule="evenodd" d="M432.063 143.861C430.739 143.751 429.415 143.64 428.091 143.528C429.417 143.619 430.819 142.855 432.063 143.861Z" fill="black"/>
<path fill-rule="evenodd" clip-rule="evenodd" d="M769.596 466.824C768.29 466.696 766.984 466.567 765.679 466.438C766.985 466.567 768.29 466.696 769.596 466.824Z" fill="black"/>
<path fill-rule="evenodd" clip-rule="evenodd" d="M678.527 151.683C678.44 152.795 678.351 153.909 678.264 155.019C678.352 153.904 678.44 152.793 678.527 151.683Z" fill="black"/>
<path fill-rule="evenodd" clip-rule="evenodd" d="M759.764 198.082C759.853 197.027 759.941 195.972 760.03 194.921C759.941 195.978 759.852 197.03 759.764 198.082Z" fill="black"/>
<path fill-rule="evenodd" clip-rule="evenodd" d="M678.007 168.945C677.913 170.057 677.819 171.167 677.726 172.274C677.819 171.162 677.913 170.053 678.007 168.945Z" fill="black"/>
<path fill-rule="evenodd" clip-rule="evenodd" d="M759.21 240.672C759.202 239.598 759.194 238.524 759.186 237.454C759.898 238.524 759.87 239.595 759.21 240.672Z" fill="black"/>
<path fill-rule="evenodd" clip-rule="evenodd" d="M636.453 394.87C636.443 395.946 636.434 397.023 636.422 398.095C635.691 397.009 635.837 395.937 636.453 394.87Z" fill="black"/>
<path fill-rule="evenodd" clip-rule="evenodd" d="M719.671 270.356C719.544 269.267 719.415 268.177 719.288 267.091C719.416 268.182 719.544 269.269 719.671 270.356Z" fill="black"/>
<path fill-rule="evenodd" clip-rule="evenodd" d="M30.5958 170.377C29.7302 171.49 28.5511 170.728 27.522 170.863C28.5477 170.701 29.5718 170.539 30.5958 170.377Z" fill="black"/>
<path fill-rule="evenodd" clip-rule="evenodd" d="M458.65 422.098C457.557 422.1 456.463 422.101 455.37 422.102C456.464 422.101 457.557 422.099 458.65 422.098Z" fill="black"/>
<path fill-rule="evenodd" clip-rule="evenodd" d="M633.375 174.949C633.477 175.854 633.579 176.759 633.681 177.661C633.579 176.754 633.477 175.852 633.375 174.949Z" fill="black"/>
<path fill-rule="evenodd" clip-rule="evenodd" d="M92.8964 85.0701C91.7969 85.0913 90.6974 85.1124 89.5979 85.1336C90.6857 84.5108 91.7818 84.3306 92.8964 85.0701Z" fill="black"/>
<path fill-rule="evenodd" clip-rule="evenodd" d="M677.979 184.6C677.908 185.549 677.837 186.497 677.767 187.442C677.838 186.493 677.908 185.547 677.979 184.6Z" fill="black"/>
<path fill-rule="evenodd" clip-rule="evenodd" d="M647.828 68.1088C647.914 67.2437 647.998 66.3787 648.083 65.5186C647.997 66.3852 647.914 67.247 647.828 68.1088Z" fill="black"/>
<path fill-rule="evenodd" clip-rule="evenodd" d="M639.188 65.3989C639.102 66.3373 639.015 67.2765 638.93 68.2117C639.016 67.2717 639.102 66.3349 639.188 65.3989Z" fill="black"/>
<path fill-rule="evenodd" clip-rule="evenodd" d="M161.606 2.70898C160.488 2.84106 159.369 2.97314 158.251 3.1044C159.37 2.97233 160.488 2.84106 161.606 2.70898Z" fill="black"/>
<path fill-rule="evenodd" clip-rule="evenodd" d="M80.8011 85.8169C79.653 85.931 78.5049 86.0452 77.3577 86.1593C78.5058 86.0452 79.6538 85.931 80.8011 85.8169Z" fill="black"/>
<path fill-rule="evenodd" clip-rule="evenodd" d="M709.931 88.5681C710.001 87.6949 710.071 86.8209 710.14 85.9526C710.071 86.8266 710 87.6974 709.931 88.5681Z" fill="black"/>
<path fill-rule="evenodd" clip-rule="evenodd" d="M43.1187 232.676C43.7799 232.686 44.4402 232.695 45.0913 232.705C44.4276 232.695 43.7731 232.686 43.1187 232.676Z" fill="black"/>
<path fill-rule="evenodd" clip-rule="evenodd" d="M639.222 340.447C639.156 341.414 639.09 342.38 639.023 343.344C639.09 342.377 639.157 341.412 639.222 340.447Z" fill="black"/>
<path fill-rule="evenodd" clip-rule="evenodd" d="M706.671 152.275C706.644 151.343 706.618 150.412 706.59 149.482C706.619 150.415 706.645 151.345 706.671 152.275Z" fill="black"/>
<path fill-rule="evenodd" clip-rule="evenodd" d="M189.769 0.504075C188.749 0.504075 187.729 0.50489 186.711 0.50489C187.731 -0.176697 188.75 -0.159575 189.769 0.504075Z" fill="black"/>
<path fill-rule="evenodd" clip-rule="evenodd" d="M462.051 219.838C460.934 219.865 459.817 219.893 458.701 219.921C459.798 219.166 460.916 219.147 462.051 219.838Z" fill="black"/>
<path fill-rule="evenodd" clip-rule="evenodd" d="M559.672 472.028C560.334 472.041 560.997 472.055 561.65 472.071C560.985 472.058 560.328 472.043 559.672 472.028Z" fill="black"/>
<path fill-rule="evenodd" clip-rule="evenodd" d="M584.608 473.16C585.269 473.138 585.93 473.115 586.582 473.093C585.919 473.116 585.263 473.138 584.608 473.16Z" fill="black"/>
<path fill-rule="evenodd" clip-rule="evenodd" d="M194.346 473.608C195.036 473.626 195.726 473.643 196.406 473.659C195.714 473.642 195.03 473.626 194.346 473.608Z" fill="black"/>
<path fill-rule="evenodd" clip-rule="evenodd" d="M768.897 372.32C768.799 371.399 768.701 370.477 768.602 369.56C768.701 370.482 768.799 371.401 768.897 372.32Z" fill="black"/>
<path fill-rule="evenodd" clip-rule="evenodd" d="M678.824 217.008C678.903 217.886 678.981 218.764 679.058 219.636C678.98 218.757 678.902 217.883 678.824 217.008Z" fill="black"/>
<path fill-rule="evenodd" clip-rule="evenodd" d="M713.488 201.933C713.381 201.001 713.273 200.07 713.167 199.143C713.274 200.074 713.381 201.003 713.488 201.933Z" fill="black"/>
<path fill-rule="evenodd" clip-rule="evenodd" d="M199.942 474.164C200.637 474.153 201.334 474.143 202.022 474.134C201.323 474.145 200.632 474.154 199.942 474.164Z" fill="black"/>
<path fill-rule="evenodd" clip-rule="evenodd" d="M453.247 474.237C453.924 474.207 454.599 474.177 455.268 474.148C454.59 474.178 453.918 474.207 453.247 474.237Z" fill="black"/>
<path fill-rule="evenodd" clip-rule="evenodd" d="M707.83 133.945C707.799 133.002 707.768 132.059 707.738 131.117C707.769 132.061 707.799 133.003 707.83 133.945Z" fill="black"/>
<path fill-rule="evenodd" clip-rule="evenodd" d="M133.987 474.78C134.666 474.775 135.344 474.77 136.013 474.766C135.331 474.771 134.66 474.776 133.987 474.78Z" fill="black"/>
<path fill-rule="evenodd" clip-rule="evenodd" d="M707.546 474.77C708.244 474.777 708.942 474.784 709.631 474.791C708.929 474.785 708.238 474.777 707.546 474.77Z" fill="black"/>
<path fill-rule="evenodd" clip-rule="evenodd" d="M722.61 474.689C723.284 474.736 723.957 474.783 724.622 474.828C723.946 474.782 723.278 474.736 722.61 474.689Z" fill="black"/>
<path fill-rule="evenodd" clip-rule="evenodd" d="M728.694 474.678C729.379 474.698 730.066 474.718 730.743 474.733C730.055 474.712 729.374 474.695 728.694 474.678Z" fill="black"/>
<path fill-rule="evenodd" clip-rule="evenodd" d="M759.931 205.672C759.886 204.744 759.842 203.815 759.797 202.89C759.843 203.82 759.886 204.746 759.931 205.672Z" fill="black"/>
<path fill-rule="evenodd" clip-rule="evenodd" d="M299.579 462.516C301.665 462.411 303.752 462.305 305.838 462.199C303.752 462.305 301.665 462.41 299.579 462.516Z" fill="black"/>
<path fill-rule="evenodd" clip-rule="evenodd" d="M173.717 125.149C175.528 125.302 177.339 125.455 179.148 125.607C177.338 125.455 175.527 125.301 173.717 125.149Z" fill="black"/>
<path fill-rule="evenodd" clip-rule="evenodd" d="M685.033 201.748C685.089 203.429 685.147 205.11 685.203 206.787C685.146 205.105 685.089 203.427 685.033 201.748Z" fill="black"/>
<path fill-rule="evenodd" clip-rule="evenodd" d="M722.407 465.391C724.298 465.503 726.188 465.614 728.078 465.725C726.176 465.809 724.245 466.337 722.407 465.391Z" fill="black"/>
<path fill-rule="evenodd" clip-rule="evenodd" d="M711.219 266.535C711.233 264.932 711.248 263.328 711.261 261.729C711.247 263.333 711.233 264.934 711.219 266.535Z" fill="black"/>
<path fill-rule="evenodd" clip-rule="evenodd" d="M706.381 316.921C708.039 316.943 709.699 316.965 711.357 316.986C709.698 316.964 708.039 316.943 706.381 316.921Z" fill="black"/>
<path fill-rule="evenodd" clip-rule="evenodd" d="M288.809 288.728C288.767 289.95 288.726 291.172 288.686 292.389C288.728 291.165 288.768 289.947 288.809 288.728Z" fill="black"/>
<path fill-rule="evenodd" clip-rule="evenodd" d="M733.988 236.977C733.92 238.193 733.852 239.409 733.786 240.619C733.854 239.402 733.921 238.189 733.988 236.977Z" fill="black"/>
<path fill-rule="evenodd" clip-rule="evenodd" d="M698.599 459.98C699.805 459.9 701.012 459.821 702.216 459.745C701.309 460.452 700.396 460.511 698.599 459.98Z" fill="black"/>
<path fill-rule="evenodd" clip-rule="evenodd" d="M690.523 300.998C690.606 302.309 690.689 303.62 690.771 304.927C690.688 303.615 690.606 302.307 690.523 300.998Z" fill="black"/>
<path fill-rule="evenodd" clip-rule="evenodd" d="M239.32 94.0724C239.333 92.8062 239.345 91.5401 239.359 90.2788C239.346 91.5466 239.334 92.8095 239.32 94.0724Z" fill="black"/>
<path fill-rule="evenodd" clip-rule="evenodd" d="M691.983 317.186L696.481 317.09C694.997 317.788 693.498 317.813 691.983 317.186Z" fill="black"/>
<path fill-rule="evenodd" clip-rule="evenodd" d="M733.478 326.53C732.417 326.539 731.357 326.547 730.304 326.558C731.367 326.549 732.423 326.54 733.478 326.53Z" fill="black"/>
<path fill-rule="evenodd" clip-rule="evenodd" d="M345.079 460.483C346.547 460.502 348.016 460.52 349.484 460.538C348.005 461.26 346.535 461.362 345.079 460.483Z" fill="black"/>
<path fill-rule="evenodd" clip-rule="evenodd" d="M68.5073 464.693C69.9973 464.563 71.4882 464.433 72.9782 464.304C71.4882 464.433 69.9973 464.563 68.5073 464.693Z" fill="black"/>
<path fill-rule="evenodd" clip-rule="evenodd" d="M685.55 212.545C685.623 213.861 685.696 215.177 685.769 216.489C685.696 215.171 685.623 213.858 685.55 212.545Z" fill="black"/>
<path fill-rule="evenodd" clip-rule="evenodd" d="M209.939 128.238C211.195 127.636 212.462 127.535 213.74 128.173C212.473 128.195 211.206 128.217 209.939 128.238Z" fill="black"/>
<path fill-rule="evenodd" clip-rule="evenodd" d="M644.459 227.739C644.563 228.849 644.667 229.959 644.771 231.066C644.666 229.954 644.563 228.846 644.459 227.739Z" fill="black"/>
<path fill-rule="evenodd" clip-rule="evenodd" d="M750.575 201.84C749.93 200.754 749.953 199.674 750.607 198.604C750.596 199.684 750.586 200.762 750.575 201.84Z" fill="black"/>
<path fill-rule="evenodd" clip-rule="evenodd" d="M685.756 164.141C685.756 165.239 685.757 166.338 685.757 167.433C685.756 166.332 685.756 165.236 685.756 164.141Z" fill="black"/>
<path fill-rule="evenodd" clip-rule="evenodd" d="M730.787 316.396C732.08 316.011 733.373 315.465 734.66 316.41C733.369 316.405 732.078 316.401 730.787 316.396Z" fill="black"/>
<path fill-rule="evenodd" clip-rule="evenodd" d="M312.945 462.02C314.247 461.902 315.547 461.784 316.848 461.666C315.547 461.784 314.247 461.902 312.945 462.02Z" fill="black"/>
<path fill-rule="evenodd" clip-rule="evenodd" d="M134.577 462.022C135.769 461.513 136.958 461.245 138.132 462.061C136.946 462.047 135.762 462.035 134.577 462.022Z" fill="black"/>
<path fill-rule="evenodd" clip-rule="evenodd" d="M378.326 460.387C379.601 459.845 380.872 459.548 382.13 460.425C380.861 460.412 379.594 460.4 378.326 460.387Z" fill="black"/>
<path fill-rule="evenodd" clip-rule="evenodd" d="M94.6663 299.998C94.7618 301.117 94.8582 302.237 94.9529 303.353C94.8565 302.233 94.761 301.116 94.6663 299.998Z" fill="black"/>
<path fill-rule="evenodd" clip-rule="evenodd" d="M390.508 235.521C391.761 235.077 393.011 234.846 394.242 235.587C392.997 235.564 391.752 235.543 390.508 235.521Z" fill="black"/>
<path fill-rule="evenodd" clip-rule="evenodd" d="M685.531 268.842C685.6 269.936 685.67 271.03 685.739 272.122C685.669 271.027 685.599 269.934 685.531 268.842Z" fill="black"/>
<path fill-rule="evenodd" clip-rule="evenodd" d="M93.8558 170.116C93.7519 170.998 93.648 171.88 93.5449 172.756C93.6488 171.873 93.7519 170.995 93.8558 170.116Z" fill="black"/>
<path fill-rule="evenodd" clip-rule="evenodd" d="M21.1892 425.704C21.1247 426.563 21.061 427.42 20.9973 428.273C21.0635 427.414 21.1264 426.559 21.1892 425.704Z" fill="black"/>
<path fill-rule="evenodd" clip-rule="evenodd" d="M711.776 274.632C711.706 273.745 711.635 272.858 711.565 271.975C711.635 272.864 711.706 273.748 711.776 274.632Z" fill="black"/>
<path fill-rule="evenodd" clip-rule="evenodd" d="M620.474 458.731C621.591 458.738 622.708 458.746 623.824 458.754C622.707 458.746 621.59 458.738 620.474 458.731Z" fill="black"/>
<path fill-rule="evenodd" clip-rule="evenodd" d="M288.386 296.276C288.594 296.922 288.803 297.568 289.011 298.215C287.618 298.542 287.409 297.896 288.386 296.276Z" fill="black"/>
<path fill-rule="evenodd" clip-rule="evenodd" d="M372.147 234.062C373.282 234.057 374.417 234.053 375.551 234.048C374.418 234.571 373.285 234.931 372.147 234.062Z" fill="black"/>
<path fill-rule="evenodd" clip-rule="evenodd" d="M95.3022 305.297C95.3408 306.276 95.3793 307.255 95.4162 308.23C95.3768 307.251 95.3391 306.274 95.3022 305.297Z" fill="black"/>
<path fill-rule="evenodd" clip-rule="evenodd" d="M107.306 463.093C108.401 463.092 109.496 463.091 110.591 463.09C109.495 463.091 108.401 463.092 107.306 463.093Z" fill="black"/>
<path fill-rule="evenodd" clip-rule="evenodd" d="M647.214 315.613C647.254 316.514 647.295 317.415 647.336 318.311C647.297 317.408 647.255 316.511 647.214 315.613Z" fill="black"/>
<path fill-rule="evenodd" clip-rule="evenodd" d="M84.0542 464.191C85.1311 463.496 86.2104 463.556 87.2915 464.18C86.2121 464.184 85.1327 464.188 84.0542 464.191Z" fill="black"/>
<path fill-rule="evenodd" clip-rule="evenodd" d="M112.411 157.53C112.469 158.45 112.528 159.37 112.588 160.284C112.53 159.363 112.471 158.447 112.411 157.53Z" fill="black"/>
<path fill-rule="evenodd" clip-rule="evenodd" d="M78.4512 464.286C79.5708 464.29 80.6904 464.295 81.8091 464.3C80.6862 465.043 79.5674 465.078 78.4512 464.286Z" fill="black"/>
<path fill-rule="evenodd" clip-rule="evenodd" d="M698.409 143.094C698.418 142.159 698.426 141.226 698.435 140.294C698.425 141.229 698.417 142.161 698.409 143.094Z" fill="black"/>
<path fill-rule="evenodd" clip-rule="evenodd" d="M184.41 126.755C185.481 126.892 186.552 127.028 187.622 127.163C186.551 127.027 185.48 126.892 184.41 126.755Z" fill="black"/>
<path fill-rule="evenodd" clip-rule="evenodd" d="M89.9011 207.387C89.9154 208.26 89.9296 209.133 89.9464 210.001C89.9321 209.127 89.917 208.257 89.9011 207.387Z" fill="black"/>
<path fill-rule="evenodd" clip-rule="evenodd" d="M705.619 207.262C705.56 206.373 705.502 205.485 705.443 204.6C705.502 205.49 705.561 206.377 705.619 207.262Z" fill="black"/>
<path fill-rule="evenodd" clip-rule="evenodd" d="M455.829 463.243C457.15 463.36 458.472 463.476 459.792 463.592C458.471 463.476 457.15 463.36 455.829 463.243Z" fill="black"/>
<path fill-rule="evenodd" clip-rule="evenodd" d="M451.413 429.961C450.699 429.972 449.985 429.983 449.277 429.998C449.994 429.989 450.704 429.975 451.413 429.961Z" fill="black"/>
<path fill-rule="evenodd" clip-rule="evenodd" d="M451.473 462.735C452.581 462.841 453.691 462.948 454.798 463.054C453.69 462.947 452.581 462.841 451.473 462.735Z" fill="black"/>
<path fill-rule="evenodd" clip-rule="evenodd" d="M252.007 390.117C253.449 398.045 240.785 405.799 239.781 394.529C239.414 390.408 242.247 387.51 245.419 384.991C249.92 381.416 252.435 384.839 252.007 390.117Z" fill="black"/>
<path fill-rule="evenodd" clip-rule="evenodd" d="M112.415 293.393C115.399 294.581 138.192 301.807 126.352 305.442C123.218 306.404 118.481 306.547 115.764 304.852C112.496 302.812 109.199 296.793 112.415 293.393Z" fill="black"/>
<path fill-rule="evenodd" clip-rule="evenodd" d="M118.025 186.032C125.762 185.158 132.89 197.52 123.352 197.119C116.409 196.826 107.071 186.032 118.025 186.032Z" fill="black"/>
<path fill-rule="evenodd" clip-rule="evenodd" d="M145.701 216.342C152.161 221.826 140.187 234.099 135.433 229.349C133.005 226.922 135.244 221.696 137.248 219.665C139.304 217.582 142.963 217.191 145.701 216.342Z" fill="black"/>
<path fill-rule="evenodd" clip-rule="evenodd" d="M164.933 358.505C161.12 359.094 144.347 364.426 147.845 354.741C149.179 351.048 152.9 352.144 156.302 352.314C161.784 352.586 164.933 352.331 164.933 358.505Z" fill="black"/>
<path fill-rule="evenodd" clip-rule="evenodd" d="M153.886 383.451C159.595 386.422 151.249 403.053 146.517 399.514C139.951 394.605 148.931 384.944 153.886 383.451Z" fill="black"/>
<path fill-rule="evenodd" clip-rule="evenodd" d="M178.787 370.082C181.563 368.979 194.65 381.226 189.668 384.634C187.115 386.38 182.277 383.386 180.737 381.581C177.851 378.196 177.59 374.02 178.787 370.082Z" fill="black"/>
<path fill-rule="evenodd" clip-rule="evenodd" d="M103.279 269.976C106.116 270.429 111.015 270.573 111.199 274.452C111.36 277.862 106.966 278.966 103.873 279.234C100.663 279.511 96.4144 278.63 96.3532 274.704C96.2887 270.468 103.178 270.724 103.279 269.976Z" fill="black"/>
<path fill-rule="evenodd" clip-rule="evenodd" d="M173.252 438.785C176.273 440.569 190.369 446.996 184.327 451.638C182.066 453.375 175.212 449.787 173.669 447.963C171.828 445.786 170.028 440.687 173.252 438.785Z" fill="black"/>
<path fill-rule="evenodd" clip-rule="evenodd" d="M212.436 392.154C211.999 385.061 224.3 382.238 221.75 392.306C221.03 395.145 220.335 399.454 216.727 399.618C212.463 399.813 212.309 394.905 212.436 392.154Z" fill="black"/>
<path fill-rule="evenodd" clip-rule="evenodd" d="M174.438 268.807C174.524 274.188 163.926 278.933 163.844 270.405C163.771 262.783 174.834 260.552 174.438 268.807Z" fill="black"/>
<path fill-rule="evenodd" clip-rule="evenodd" d="M167.44 240.783C170.051 241.602 173.521 242.023 173.751 245.251C173.995 248.667 170.733 250.188 167.798 249.996C165.392 249.839 161.83 248.105 161.393 245.565C160.751 241.836 164.492 241.592 167.44 240.783Z" fill="black"/>
<path fill-rule="evenodd" clip-rule="evenodd" d="M118.883 339.298C118.839 334.858 127.985 329.522 129.669 334.674C130.208 336.322 125.897 343.715 124.464 344.268C120.67 345.733 120.14 342.319 118.883 339.298Z" fill="black"/>
<path fill-rule="evenodd" clip-rule="evenodd" d="M193.832 413.199C190.741 415.89 181.47 423.45 182.163 413.302C182.606 406.818 194.647 407.157 193.832 413.199Z" fill="black"/>
<path fill-rule="evenodd" clip-rule="evenodd" d="M344.879 442.205C345.892 437.938 360.397 445.34 355.556 450.73C353.932 452.54 349.684 450.902 348.051 449.83C344.819 447.708 344.748 445.749 344.879 442.205Z" fill="black"/>
<path fill-rule="evenodd" clip-rule="evenodd" d="M264.064 350.861C264.63 348.959 265.259 345.595 267.124 344.381C270.5 342.184 273.439 345.498 273.439 348.99C273.44 355.504 265.818 357.558 264.064 350.861Z" fill="black"/>
<path fill-rule="evenodd" clip-rule="evenodd" d="M228.116 427.025C231.882 427.865 240.267 436.771 235.404 440.404C230.724 443.901 224.499 429.685 228.116 427.025Z" fill="black"/>
<path fill-rule="evenodd" clip-rule="evenodd" d="M231.701 359.609C236.543 359.985 243.198 367.614 235.672 368.826C229.785 369.775 222.938 361.478 231.701 359.609Z" fill="black"/>
<path fill-rule="evenodd" clip-rule="evenodd" d="M275.538 394.714C276.752 390.734 288.761 394.998 288.086 399.38C287.728 401.709 282.818 402.256 280.236 401.64C276.437 400.733 275.451 398.308 275.538 394.714Z" fill="black"/>
<path fill-rule="evenodd" clip-rule="evenodd" d="M133.982 172.459C134.069 167.315 144.23 165.218 144.974 170.402C145.647 175.086 133.854 180.07 133.982 172.459Z" fill="black"/>
<path fill-rule="evenodd" clip-rule="evenodd" d="M272.181 447.723C272.913 445.137 273.229 442.023 276.55 441.682C280.353 441.292 280.241 444.129 279.794 447.069C278.577 455.068 273.931 455.467 272.181 447.723Z" fill="black"/>
<path fill-rule="evenodd" clip-rule="evenodd" d="M111.72 233.668C106.423 234.83 96.721 224.905 102.651 222.775C106.829 221.273 111.72 230.673 111.72 233.668Z" fill="black"/>
<path fill-rule="evenodd" clip-rule="evenodd" d="M179.283 310.766C176.587 312.001 175.966 312.75 173.895 310.723C172.092 308.958 172.171 304.04 173.719 302.204C179.647 295.173 179.508 307.92 179.283 310.766Z" fill="black"/>
<path fill-rule="evenodd" clip-rule="evenodd" d="M201.277 296.505C204.089 296.853 212.443 304.562 208.093 307.626C202.762 311.38 199.746 299.621 201.277 296.505Z" fill="black"/>
<path fill-rule="evenodd" clip-rule="evenodd" d="M262.108 298.535C260.064 306.192 254.963 301.04 255.252 295.246C255.716 285.967 261.002 294.049 262.108 298.535Z" fill="black"/>
<path fill-rule="evenodd" clip-rule="evenodd" d="M293.124 421.503C296.582 422.895 301.275 435.753 296.337 436.443C290.79 437.217 292.637 424.18 293.124 421.503Z" fill="black"/>
<path fill-rule="evenodd" clip-rule="evenodd" d="M249.946 414.279C253.902 412.98 255.352 421.1 253.052 422.608C247.993 425.926 249.06 416.195 249.946 414.279Z" fill="black"/>
<path fill-rule="evenodd" clip-rule="evenodd" d="M212.436 392.154C212.385 393.232 212.336 394.31 212.284 395.381C212.333 394.302 212.384 393.228 212.436 392.154Z" fill="black"/>
<path fill-rule="evenodd" clip-rule="evenodd" d="M344.879 442.205C344.838 443.311 344.797 444.415 344.754 445.515C344.794 444.408 344.836 443.307 344.879 442.205Z" fill="black"/>
<path fill-rule="evenodd" clip-rule="evenodd" d="M275.538 394.714C275.516 395.651 275.492 396.589 275.467 397.521C275.489 396.581 275.514 395.647 275.538 394.714Z" fill="black"/>
<path fill-rule="evenodd" clip-rule="evenodd" d="M713.149 378.578C721.352 378.322 730.502 375.318 738.562 376.274C740.781 376.537 745.889 377.081 742.334 380.283C740.634 381.814 732.494 381.022 730.03 381.53C714.97 384.632 697.875 386.633 682.432 386.375C675.204 386.254 667.921 385.691 660.696 385.319C653.476 384.947 652.766 382.093 660.89 381.184C669.328 380.242 677.987 380.592 686.467 380.582C695.382 380.571 704.252 379.157 713.149 378.578Z" fill="black"/>
<path fill-rule="evenodd" clip-rule="evenodd" d="M731.157 359.352C730.367 361.539 729.674 366.558 726.649 366.887C722.412 367.348 721.71 360.27 721.866 357.681C722.056 354.557 723.211 349.367 727.203 350.45C730.574 351.363 730.912 356.851 731.157 359.352Z" fill="black"/>
<path fill-rule="evenodd" clip-rule="evenodd" d="M705.506 357.751C706.125 355.409 706.429 350.129 709.833 349.95C713.638 349.75 714.725 355.251 714.7 357.887C714.675 360.389 713.723 365.115 710.694 365.693C706.587 366.477 706.22 360.427 705.506 357.751Z" fill="black"/>
<path fill-rule="evenodd" clip-rule="evenodd" d="M662.787 361.951C661.554 364.766 660.739 368.642 656.924 366.723C653.974 365.239 653.563 359.254 654.119 356.514C654.696 353.675 655.917 350.419 659.27 351.696C663.136 353.169 662.746 358.852 662.787 361.951Z" fill="black"/>
<path fill-rule="evenodd" clip-rule="evenodd" d="M695.137 359.352C691.501 370.075 684.869 362.82 687.387 354.814C690.02 346.446 694.803 354.573 695.137 359.352Z" fill="black"/>
<path fill-rule="evenodd" clip-rule="evenodd" d="M677.421 359.883C676.411 361.771 675.337 365.844 672.615 365.415C669.278 364.889 669.17 358.641 669.537 356.314C669.856 354.278 670.796 350.884 673.589 350.928C677.625 350.991 677.354 357.439 677.421 359.883Z" fill="black"/>
<path fill-rule="evenodd" clip-rule="evenodd" d="M749.953 361.941C747.246 367.85 743.523 362.76 744.714 358.564C746.482 352.34 749.8 357.854 749.953 361.941Z" fill="black"/>
<path fill-rule="evenodd" clip-rule="evenodd" d="M683.662 380.59C680.707 380.578 677.749 380.568 674.793 380.557C677.752 380.015 680.71 379.804 683.662 380.59Z" fill="black"/>
<path fill-rule="evenodd" clip-rule="evenodd" d="M742.408 376.25C739.844 376.266 737.28 376.281 734.718 376.298C737.277 375.551 739.841 375.534 742.408 376.25Z" fill="black"/>
<path fill-rule="evenodd" clip-rule="evenodd" d="M713.149 378.578C711.097 378.712 709.046 378.846 706.994 378.979C709.046 378.846 711.098 378.712 713.149 378.578Z" fill="black"/>
<path fill-rule="evenodd" clip-rule="evenodd" d="M662.787 361.951C662.769 360.518 662.749 359.085 662.731 357.655C663.489 359.08 663.437 360.512 662.787 361.951Z" fill="black"/>
<path fill-rule="evenodd" clip-rule="evenodd" d="M678.873 386.345C680.063 386.355 681.253 386.365 682.432 386.376C681.239 386.365 680.056 386.355 678.873 386.345Z" fill="black"/>
<path fill-rule="evenodd" clip-rule="evenodd" d="M658.89 385.319C660.095 385.319 661.301 385.318 662.497 385.319C661.287 385.319 660.089 385.319 658.89 385.319Z" fill="black"/>
<path fill-rule="evenodd" clip-rule="evenodd" d="M668.771 380.714C667.095 380.848 665.419 380.981 663.744 381.115C665.42 380.981 667.095 380.848 668.771 380.714Z" fill="black"/>
<path fill-rule="evenodd" clip-rule="evenodd" d="M691.431 380.572C689.776 380.575 688.122 380.578 686.467 380.581C688.121 379.903 689.775 379.883 691.431 380.572Z" fill="black"/>
<path fill-rule="evenodd" clip-rule="evenodd" d="M677.42 359.883C677.379 358.389 677.339 356.895 677.3 355.403C677.341 356.898 677.381 358.391 677.42 359.883Z" fill="black"/>
<path fill-rule="evenodd" clip-rule="evenodd" d="M654.12 356.514C654.111 357.971 654.102 359.428 654.09 360.879C654.099 359.421 654.109 357.968 654.12 356.514Z" fill="black"/>
<path fill-rule="evenodd" clip-rule="evenodd" d="M722.553 378.036C721.09 378.165 719.628 378.293 718.166 378.422C719.629 378.293 721.092 378.165 722.553 378.036Z" fill="black"/>
<path fill-rule="evenodd" clip-rule="evenodd" d="M749.953 361.941C749.905 360.669 749.858 359.396 749.812 358.125C749.859 359.398 749.905 360.67 749.953 361.941Z" fill="black"/>
<path fill-rule="evenodd" clip-rule="evenodd" d="M687.714 386.387C688.732 386.368 689.75 386.35 690.758 386.333C689.737 386.352 688.725 386.37 687.714 386.387Z" fill="black"/>
<path fill-rule="evenodd" clip-rule="evenodd" d="M731.157 359.352C731.067 358.437 730.978 357.522 730.889 356.61C730.978 357.527 731.068 358.439 731.157 359.352Z" fill="black"/>
<path fill-rule="evenodd" clip-rule="evenodd" d="M695.137 359.352C695.072 358.413 695.006 357.473 694.94 356.536C695.007 357.476 695.072 358.415 695.137 359.352Z" fill="black"/>
<path fill-rule="evenodd" clip-rule="evenodd" d="M170.003 83.3502C165.999 82.3278 165.248 76.8523 165.891 73.4892C166.621 71.8684 167.351 70.2484 168.081 68.6276C167.795 68.0283 167.51 67.4291 167.225 66.8298C167.592 63.492 166.656 62.0416 170.598 63.3933C177.923 65.9061 179.093 83.0925 170.003 83.3502Z" fill="black"/>
<path fill-rule="evenodd" clip-rule="evenodd" d="M229.287 72.7636C232.586 72.5109 238.579 76.249 235.294 79.8656C233.26 82.1061 226.555 81.0462 223.819 81.5142C220.192 82.1346 216.408 82.9833 218.371 77.697C219.912 73.5455 225.416 72.6552 229.287 72.7636Z" fill="black"/>
<path fill-rule="evenodd" clip-rule="evenodd" d="M225.815 97.6288C222.464 95.0141 223.959 83.1051 229.06 85.2477C234.306 87.4531 228.611 95.9102 225.815 97.6288Z" fill="black"/>
<path fill-rule="evenodd" clip-rule="evenodd" d="M165.891 73.4888C165.891 74.7419 165.89 75.9958 165.888 77.2432C165.189 75.9876 165.211 74.7378 165.891 73.4888Z" fill="black"/>
<path fill-rule="evenodd" clip-rule="evenodd" d="M170.003 83.3499C170.686 83.3311 171.37 83.3116 172.045 83.2944C171.358 83.3156 170.681 83.3328 170.003 83.3499Z" fill="black"/>
<path fill-rule="evenodd" clip-rule="evenodd" d="M583.803 426.318C583.489 431.735 577.51 427.73 577.934 424.106C578.704 417.53 582.526 424.029 583.803 426.318Z" fill="black"/>
</svg>
