<svg width="546" height="474" viewBox="0 0 546 474" fill="none" xmlns="http://www.w3.org/2000/svg">
<path fill-rule="evenodd" clip-rule="evenodd" d="M137.664 284.3C140.444 282.172 146.128 274.555 149.106 272.795C155.729 268.881 185.233 261.186 186.193 260.731C187.654 260.039 197.145 257.619 202.676 256.091C215.661 252.501 262.197 229.316 274.463 223.371C276.028 227.999 288.955 248.429 286.738 250.523C279.437 257.416 266.35 265.999 257.893 270.938C251.052 274.934 243.807 278.24 236.493 280.939C228.189 284.005 222.489 287.291 214.213 290.426C206.071 293.511 215.802 303.16 219.983 305.154C224.674 307.39 231.938 308.525 236.731 310.463C228.293 325.193 221.207 343.07 219.789 360.714C219.448 364.96 216.566 368.853 211.879 367.582C209.46 366.926 187.141 363.587 183.502 362.655C159.207 356.432 115.593 323.843 126.825 290.426C129.397 291.761 135.272 286.132 137.664 284.3Z" fill="#FF5678"/>
<path fill-rule="evenodd" clip-rule="evenodd" d="M151.255 107.004C153.07 106.832 157.763 102.76 155.301 100.7C152.817 98.6223 151.031 105.586 151.255 107.004ZM56.7109 122.622C57.1855 122.528 56.9783 119.612 56.2316 119.239C53.8738 118.064 53.6749 122.482 53.6171 123.665C53.5457 125.157 53.379 129.36 56.2459 128.208C57.8732 127.553 56.8634 123.74 56.7109 122.622ZM195.893 136.245C195.83 138.848 200.511 143.853 202.257 140.851C203.725 138.328 196.014 131.063 195.893 136.245ZM30.3666 77.5405C31.7229 81.4274 38.4315 76.1307 38.681 73.2797C39.1925 67.4413 30.2963 73.6562 30.3666 77.5405ZM86.3355 94.2973C89.4596 94.009 93.5704 89.5477 96.5832 87.8811C98.622 86.7535 104.169 85.4093 104.773 82.8485C105.298 80.6235 95.8854 85.3859 95.0816 85.8092C91.3894 87.752 88.0604 89.967 86.3355 94.2973ZM320.87 63.5336C323.36 61.3708 326.387 59.9758 329.579 60.0674C331.173 60.1129 334.499 61.2331 334.624 58.1366C334.827 53.1021 320.749 59.2421 318.549 60.2299C319.323 61.332 320.097 62.4328 320.87 63.5336ZM165.526 259.744C163.7 256.336 160.414 254.366 157.943 251.459C158.849 256.232 156.807 260.478 155.404 264.835C158.779 263.138 162.152 261.441 165.526 259.744ZM482.77 332.381C483.777 328.597 484.785 324.833 485.962 321.107C487.279 316.934 487.934 316.573 484.781 313.655C482.165 319.21 479.548 324.765 476.931 330.32C478.794 331.209 480.738 332.075 482.77 332.381ZM211.969 58.4275C208.505 54.0417 192.269 53.7662 194.278 63.446C194.979 66.826 198.971 63.2354 201.471 62.4476C203.953 61.6651 210.98 61.5614 211.969 58.4275ZM211.374 120.523C210.954 119.404 210.116 115.364 208.871 115.045C207.659 114.735 202.875 118.972 201.976 119.619C197.491 122.847 193.119 126.32 188.748 129.742C190.421 129.742 191.941 129.073 193.605 129.059C195.581 129.039 196.999 129.952 198.926 129.431C203.068 128.315 207.874 123.16 211.374 120.523ZM215.861 20.4446C216.25 18.4385 236.549 24.4607 238.989 25.5634C240.318 26.1632 247.176 30.1671 245.702 24.1326C244.863 20.6956 236.939 18.0756 234.399 17.1336C227.943 14.7402 221.136 13.0377 214.262 13.4325C212.927 13.5086 202.817 14.1639 207.039 18.728C208.494 20.2998 213.708 19.8044 215.861 20.4446ZM220.305 296.075C224.087 298.165 227.948 299.764 231.901 301.398C233.657 302.124 236.393 304.025 238.33 303.548C239.917 303.156 240.425 300.442 241.259 298.625C244.306 291.979 247.946 286.618 252.458 281.138C250.362 279.422 239.727 286.992 237.095 288.11C234.461 289.228 231.975 290.355 229.396 291.692C226.969 292.951 222.179 294.076 220.305 296.075ZM287.268 239.421C292.78 236.62 298.004 231.652 302.525 227.204C307.715 222.098 312.368 216.745 316.168 210.136C313.881 210.268 308.833 218.528 308.777 209.535C308.748 204.947 314.345 200.428 316.082 196.172C311.761 193.432 307.8 209.807 302.841 205.838C298.064 202.014 305.601 188.863 307.054 184.714C304.251 182.62 288.287 206.058 285.976 209.057C284.531 210.934 281.113 213.434 280.298 215.623C279.812 216.927 279.742 221.064 279.977 222.263C280.466 224.77 282.943 227.773 284.045 230.107C285.441 233.063 286.656 236.135 287.268 239.421ZM515.131 323.922C510.365 316.366 515.288 313.07 519.164 306.799C522.263 301.781 525.115 296.251 527.08 290.648C531.994 276.635 536.428 263.608 538.855 248.784C535.515 250.497 533.427 257.014 531.756 260.448C529.509 265.066 527.533 269.912 525.036 274.385C520.363 282.755 515.775 291.685 509.831 298.94C507.138 302.229 504.858 305.928 501.751 308.89C500.331 310.244 497.615 311.355 496.569 313.048C495.582 314.645 496.686 315.666 496.311 317.575C495.927 319.533 494.163 321.621 493.406 323.507C492.413 325.983 491.487 328.465 490.377 330.887C489.168 333.528 488.837 334.909 488.511 337.49C488.154 340.312 489.247 340.605 487.053 343.205C491.029 345.175 495.006 347.144 498.981 349.113C500.323 349.778 501.665 350.442 503.007 351.107C503.29 350.511 503.573 349.916 503.855 349.32C504.948 348.128 505.953 345.189 506.578 343.614C509.19 337.044 512.141 330.448 515.131 323.922ZM131.183 292.201C119.893 325.585 159.566 353.695 183.987 359.912C187.369 360.773 190.67 361.9 194.037 362.824C197.709 363.832 200.969 363.632 204.634 364.054C207.549 364.389 208.938 366.919 211.686 367.616C216.276 368.781 215.996 364.906 216.325 360.754C217.718 343.148 225.718 326.162 234.184 311.472C230.317 309.918 226.485 308.222 222.667 306.52C219.4 305.064 214.398 300.969 210.885 300.753C208.288 300.594 204.33 303.085 201.807 304.178C197.606 305.999 193.392 307.55 189.013 308.792C181.356 310.964 172.836 313.924 164.912 314.148C162.628 314.213 156.362 315.408 154.718 313.822C151.584 310.798 155.934 308.279 158.558 307.199C174.197 300.767 190.801 298.032 206.484 291.437C214.554 288.043 222.541 284.253 230.662 280.91C237.663 278.028 244.995 275.476 251.76 271.931C260.694 267.251 269.667 261.421 277.403 254.552C278.951 253.177 282.196 251.136 283.257 249.144C284.192 247.391 284.075 249.139 283.881 247.013C283.742 245.487 282.078 243.417 281.394 241.974C278.844 236.595 276.54 231.07 274.603 225.377C262.262 231.323 250.522 239.415 238.363 245.768C226.125 252.164 212.32 256.675 199.227 260.273C193.655 261.805 187.248 262.289 182.138 265.315C179.966 266.6 177.82 268.088 175.494 268.832C174.807 270.312 174.131 270.602 173.465 269.702C173.048 269.175 172.508 268.953 171.846 269.035C170.424 269.306 168.973 270.06 167.642 270.64C160.909 273.572 154.461 277.243 148.069 280.99C145.039 282.764 141.93 284.512 139.031 286.539C137.477 287.626 136.084 288.722 134.812 290.214C133.287 292.003 133.651 293.473 131.183 292.201ZM385.224 93.983C388.078 94.0351 390.678 92.299 393.653 92.396C398.331 92.5478 402.035 96.622 404.75 100.551C410.123 108.325 408.753 117.703 406.054 126.403C404.763 130.561 402.989 134.552 400.774 138.192C398.813 141.414 395.307 144.461 393.938 148.049C391.681 153.965 396.235 151.449 399.024 150.186C402.53 148.596 405.817 146.62 408.793 143.957C422.057 132.092 432.147 115.599 435.527 96.6581C437.176 87.4169 437.049 76.6135 431.318 69.0711C426.078 62.174 417.033 59.9209 409.301 61.1996C400.943 62.5826 393.368 66.5592 386.562 71.6773C384.586 73.1647 382.776 74.7885 380.92 76.4517C378.484 78.6339 377.025 78.6908 377.635 82.1109C378.087 84.6536 379.32 87.2885 380.114 89.7282C381.601 94.298 381.059 95.4804 385.224 93.983ZM394.321 172.765L393.743 173.873C397.723 174.086 401.429 170.143 404.82 168.218C409.225 165.716 413.137 162.304 416.997 158.857C423.804 152.779 430.7 145.929 435.766 137.949C447.125 120.061 457.442 97.3824 454.343 74.7029C451.002 50.2598 431.968 40.8507 411.686 44.0865C402.546 45.5445 394.386 50.1281 386.206 54.7814C382.082 57.1268 378.603 60.1704 374.825 63.1157C372.865 64.6452 371.077 64.8438 370.949 67.5175C370.852 69.5326 373.954 74.0896 374.792 75.9153C385.063 64.1476 396.131 54.4122 411.641 53.8103C430.093 53.0947 441.004 72.746 440.923 91.564C440.844 110.019 433.757 127.771 422.46 141.034C417.327 147.062 412.432 151.898 406.127 156.297C402.985 158.49 400.667 160.459 397.153 161.915C394.668 162.946 394.927 162.403 394.293 164.987C393.754 167.18 394.304 170.488 394.321 172.765ZM294.057 423.496C293.817 426.822 293.215 430.096 292.546 433.339C292.305 434.504 290.95 438.182 291.188 439.491C291.58 441.656 291.058 440.265 292.747 441.393C294.508 442.573 296.559 442.502 298.487 442.859C299.677 443.081 304.039 445.386 304.772 445.022C306.055 444.386 306.015 442.141 307.422 441.252C309.339 440.039 312.164 441.078 313.972 442.027C318.808 444.559 322.13 449.803 326.808 452.674C335.116 457.77 344.975 460.592 354.244 461.756C359.266 462.387 364.404 463.494 369.364 462.172C373.271 461.131 378.349 461.227 380.473 456.518C361.598 450.687 332.788 443.552 325.325 419.222C321.267 423.354 314.487 421.129 309.585 420.558C304.191 419.931 299.371 420.077 294.438 417.316C294.077 419.486 293.967 421.288 294.057 423.496ZM126.934 272.809C135.82 273.411 144.244 268.688 149.711 260.72C151.058 258.757 152.438 256.754 153.246 254.429C153.421 253.84 153.596 253.25 153.771 252.661C154.619 251.033 154.248 250.266 152.658 250.357C151.761 248.977 149.489 248.513 150.136 246.011C150.622 244.124 152.419 244.093 153.98 243.499C153.202 242.032 152.737 241.295 151.624 239.991C148.733 242.912 143.484 248.648 141.452 241.935C140.475 238.712 142.194 235.632 141.768 232.523C141.593 231.237 140.142 227.953 139.3 227.184C134.821 223.088 128.37 224.783 123.617 227.194C120.342 228.856 119.637 229.636 119.103 233.445C118.56 237.319 118.056 241.191 117.455 245.053C119.42 243.903 119.778 241.418 121.06 239.628C121.54 240.61 122.02 241.593 122.502 242.575C123.178 242.149 123.81 242.171 124.396 242.643C125.344 244.281 124.748 246.71 124.456 248.427C127.619 248.095 128.956 252.059 125.767 253.664C122.464 255.326 120.975 250.793 120.863 247.857C119.63 249.511 118.364 248.626 117.505 249.475C116.647 250.324 116.309 252.095 116.003 254.034C115.502 257.219 114.217 261.815 115.406 265.01C117.17 269.756 122.795 272.226 126.934 272.809ZM384.409 120.363C381.47 124.955 376.457 130.967 375.408 136.515C378.647 134.381 385.494 124.111 387.257 132.292C388.27 136.988 383.077 142.584 381.801 147.131C386.908 145.243 390.545 139.333 393.732 134.771C397.795 128.955 401.943 121.288 402.98 113.892C403.819 107.907 400.123 102.329 394.631 101.742C391.825 101.442 388.896 101.943 386.185 102.674C384.949 103.006 383.106 103.419 382.003 104.163C380.618 105.097 380.428 107.284 379.123 105.465C377.39 109.135 375.657 112.804 373.923 116.473C375.648 115.77 379.168 112.786 381.054 113.094C383.807 113.545 384.372 118.037 384.409 120.363ZM109.129 30.5259C101.421 30.7811 93.3644 32.6246 86.0675 35.3651C84.2557 36.0463 76.6111 38.4687 78.2211 41.9804C79.2851 44.3015 85.022 41.0215 86.7564 40.4746C94.1896 38.13 101.843 36.5838 109.457 35.1728C111.3 34.8312 117.554 34.865 117.877 32.1508C118.272 28.8389 111.306 30.5221 109.129 30.5259ZM318.903 408.264C314.725 408.838 310.714 408.624 306.532 408.048C303.012 407.565 299.429 405.946 295.927 405.946C295.927 410.156 295.673 410.183 299.627 411.084C302.388 411.713 305.187 412.066 307.977 412.505C312.889 413.276 318.341 415.442 323.313 414.329C323.192 413.598 322.811 408.664 322.296 408.176C322.006 407.902 319.325 408.269 318.903 408.264ZM251.381 96.7564C252.549 97.5923 255.234 100.926 256.626 100.985C256.129 97.1255 252.295 90.4057 247.893 92.7905C246.814 93.3757 244.548 96.2876 245.573 97.5723C246.12 98.2591 249.949 96.7611 251.381 96.7564ZM210.648 131.091C210.691 130.418 210.734 129.746 210.778 129.074C209.163 130.14 207.163 130.645 206.015 132.364C207.393 133.05 208.771 133.737 210.15 134.424C210.316 133.313 210.482 132.202 210.648 131.091ZM337.875 233.56C345.508 236.562 352.506 240.572 358.124 247.378C362.98 253.264 365.262 263.634 366.448 271.349C369.381 290.44 363.721 308.135 359.989 326.398C358.095 335.662 355.269 344.578 352.622 353.603C350.311 361.484 348.33 369.737 345.14 377.231C342.436 383.585 338.981 389.849 336.601 396.44C335.321 399.988 333.246 412.161 328.386 408.338C327.06 412.232 326.738 411.901 328.156 414.606C329.182 416.564 332.662 419.283 334.305 420.877C338.681 425.128 344.224 428.631 349.359 431.607C358.763 437.058 368.843 441.137 378.528 446.107C382.809 448.306 387.453 450.903 386.492 457.194C385.687 462.468 382.97 466.467 378.733 468.813C374.754 471.017 369.064 472.718 364.687 473.409C362.09 473.82 361.495 472.606 359.377 472.186C357.021 471.72 354.272 472.622 351.84 472.599C340.929 472.492 331.375 469.408 322.557 462.301C319.406 459.761 314.768 452.871 310.644 452.872C308.536 452.872 308.981 454.31 307.127 455.154C304.839 456.195 300.896 454.23 298.646 453.769C293.854 452.786 288.98 451.788 285.789 447.152C282.338 442.141 283.565 435.934 285.047 430.37C286.719 424.098 289.531 417.734 290.726 411.367C291.017 409.818 291.285 406.931 290.99 405.355C290.53 402.91 288.332 401.452 288.266 398.804C288.246 397.999 289.272 396.937 289.452 396.105C289.848 394.28 289.786 392.386 289.949 390.528C290.241 387.213 290.913 384.038 291.378 380.762C292.433 373.309 294.514 366.66 296.528 359.479C298.482 352.509 300.343 347.322 304.121 341.287C306.077 338.161 312.621 327.026 309.425 323.821C305.052 333.47 299.938 340.995 293.244 348.677C288.125 354.552 283.12 362.451 276.713 366.635C269.668 371.236 261.06 373.943 253.281 376.376C249.581 377.532 246.511 380.098 242.522 380.572C238.199 381.085 233.8 380.48 229.566 379.397C228.374 379.093 224.937 377.036 223.858 377.167C222.27 377.361 219.985 380.542 218.241 381.125C213.998 382.547 211.1 379.831 207.881 377.322C204.388 374.597 203.331 373.92 199.3 373.592C194.363 373.191 189.561 371.236 184.705 370.039C176.167 367.935 168.909 363.671 161.148 359.207C152.252 354.092 144.643 347.037 137.937 338.702C128.08 326.45 114.352 292.498 130.454 280.611C120.975 279.165 112.293 274.515 111.137 262.464C110.533 256.158 111.67 249.173 113.082 243.094C113.726 240.319 114.494 237.561 115.23 234.814C115.784 233.887 116.078 232.872 116.108 231.769C116.448 230.339 115.958 229.627 114.637 229.634C112.14 226.355 110.263 223.46 109.759 218.804C109.6 217.329 109.457 215.067 110.392 213.813C110.824 213.308 111.347 212.971 111.956 212.802C113.419 212.896 113.833 212.087 113.197 210.374C113.907 207.948 112.853 206.057 115.531 205.044C116.389 205.249 117.243 205.474 118.094 205.717C119.18 206.273 119.886 205.87 120.215 204.511C122.737 203.403 121.574 201.763 125.001 203.19C127.075 204.053 129.048 205.54 130.559 207.351C132.453 205.985 128.144 197.541 128.001 194.848C127.659 188.498 129.997 183.248 133.038 178.032C138.949 167.896 147.199 159.18 155.335 151.338C170.918 136.32 187.289 122.023 204.885 110.058C197.626 104.396 189.145 102.861 180.508 105.493C172.546 107.919 166.091 112.325 158.762 116.18C151.972 119.749 144.764 121.215 142.599 111.475C140.173 100.564 147.913 96.5129 154.855 91.6202C153.121 90.1683 147.415 91.2062 145.256 91.3781C140.449 91.76 135.851 92.9791 131.18 94.0572C128.939 94.5735 126.881 94.4571 124.661 94.9634C121.361 95.7158 117.915 96.5584 114.577 97.6305C106.634 100.182 98.75 104.054 91.8866 109.272C85.9544 113.779 81.8389 120.144 77.0594 126.006C71.6089 132.69 66.3859 139.266 58.3055 141.713C54.5216 142.859 50.0827 143.899 47.4003 140.103C44.9043 136.573 44.765 132.319 44.8472 128.004C45.0276 118.47 49.1277 108.169 53.897 100.379C59.0742 91.9231 66.0084 87.0805 72.5598 80.2744C63.0903 81.0348 53.9387 86.6412 45.23 90.5167C43.3973 91.3326 41.5474 92.2495 39.7045 93.0039C37.7397 93.8091 36.4381 93.3162 34.5554 93.6847C30.2594 94.5267 26.5689 96.5604 22.39 93.3182C14.4836 87.1849 22.4049 74.7075 27.8485 70.8788C35.4306 65.5467 43.1443 61.0572 51.4974 57.2539C46.9752 51.7445 50.8371 43.8821 55.0056 39.9737C60.2793 35.0281 66.995 32.1941 73.3499 29.5466C78.3753 27.4527 83.3113 25.4423 88.532 24.1822C94.0206 22.858 100.438 20.8346 106.007 21.0287C111.23 21.2108 115.861 20.1772 121.151 20.0119C125.552 19.8745 129.964 19.9934 134.364 19.8653C146.205 19.5216 158.089 20.4187 169.661 21.3751C160.493 -8.73885 220.884 0.560934 233.769 4.4944C245.478 8.06947 258.894 12.2165 268.729 20.6991C272.895 24.2918 276.853 28.3766 280.55 32.5682C286.004 38.7526 289.023 46.8517 291.908 54.8456C299.226 50.8196 306.222 46.432 314.228 44.4355C321.847 42.5366 329.651 39.9625 337.314 38.5279C343.14 37.4368 351.597 36.6967 356.5 41.3173C361.826 46.3363 364.6 54.1467 367.779 60.8351C383.046 44.5646 400.074 32.6945 421.841 33.4839C443.14 34.2564 457.146 54.9158 459.729 77.3024C462.573 101.971 452.79 127.747 439.529 146.85C433.582 155.417 427.429 163.691 419.425 170.082C415.456 173.25 411.269 176.721 406.917 179.195C404.747 180.428 402.374 181.542 400.096 182.491C399.068 182.92 398.009 183.349 396.94 183.64C393.887 184.472 394.48 183.361 393.344 186.364C392.423 188.801 392.536 192.995 392.141 195.67C391.691 198.728 391.423 201.828 390.765 204.844C389.624 210.072 388.437 215.171 387.008 220.276C384.304 229.938 380.665 239.676 376.207 248.49C379.988 250.334 385.282 250.52 389.322 251.079C393.694 251.683 398.072 252.953 402.614 254.38C411.715 257.238 419.847 259.651 428.501 263.929C437.485 268.371 445.492 275.004 454.143 280.284C462.098 285.138 470.139 291.219 477.527 297.046C479.285 298.433 480.373 299.638 481.772 301.394C483.204 303.188 483.659 303.539 485.37 305.093C486.142 305.793 488.385 309.328 489.265 309.458C490.842 309.692 490.6 308.37 491.838 306.524C494.423 302.671 498.029 299.685 500.596 295.734C502.737 292.439 504.971 289.103 507.259 286.27C512.797 279.414 517.386 271.814 521.324 263.594C523.373 259.315 525.531 255.243 527.757 251.204C529.972 247.183 533.911 241.877 538.324 242.114C537.969 240.067 536.842 239.726 538.787 238.474C540.04 237.667 542.478 238.967 543.444 239.786C546.003 241.955 546.113 246.163 545.952 249.325C545.537 257.471 544.019 265.512 541.904 273.215C539.361 282.475 536.175 290.644 532.697 299.482C529.928 306.522 526.49 315.832 519.601 319.045C524.228 326.466 522.006 332.512 518.913 340.39C516.653 346.15 513.667 352.101 509.12 355.912C503.995 360.208 498.435 356.563 493.075 353.724C489.837 352.008 479.936 347.96 481.949 342.682C479.476 342.311 477.92 340.293 475.669 339.672C473.285 339.015 473.695 340.101 471.173 340.509C469.239 340.822 466.347 338.877 464.527 338.181C461.486 337.019 458.454 335.827 455.417 334.653C446.87 331.346 438.467 328.09 429.835 325.441C413.775 320.512 397.516 317.716 381.513 313.315C378.304 312.433 375.115 311.582 371.775 310.875C371.085 310.729 367.506 310.505 367.071 309.676C366.31 308.222 368.651 300.09 368.852 298.433C370.171 287.553 369.74 275.643 367.882 264.888C367.11 260.416 363.663 254.627 363.693 250.262C363.714 247.334 366.023 244.138 367.38 241.485C370.734 234.928 374.249 227.843 376.734 221.019C380.538 210.579 382.869 198.795 384.55 187.615C385.425 181.786 386.443 175.467 386.681 169.571C386.864 165.076 386.535 160.362 387.116 155.758C384.901 155.994 381.767 157.283 379.773 155.904C377.254 154.163 376.577 149.192 376.899 146.223C368.273 147.914 368.56 138.727 369.094 131.542C353.505 131.542 373.469 105.524 375.963 99.9371C377.109 97.3683 377.076 100.253 376.569 96.2809C376.347 94.5347 375.285 92.5993 374.683 90.9935C373.373 87.4885 371.957 84.0369 370.444 80.6362C367.248 73.4536 363.627 66.5137 359.675 59.8219C356.118 62.6061 352.912 65.9018 349.941 69.4376C351.846 63.8399 357.669 56.9054 355.178 50.5494C352.871 44.6575 345.162 45.066 340.609 46.1432C328.238 49.0727 316.374 53.3395 304.588 58.2797C308.239 60.6312 313.828 58.8148 317.456 57.0171C321.947 54.7901 326.777 52.4541 331.618 51.2743C335.839 50.2458 341.384 50.5969 340.164 56.9837C339.175 62.1586 334.669 67.1424 331.695 71.0119C325.144 79.5368 316.929 86.1362 308.859 92.7304C300.185 99.8187 291.827 107.52 283.044 114.403C267.166 126.847 250.093 137.661 233.688 149.275C225.164 155.31 215.504 160.167 206.259 164.64C196.089 169.56 186.339 174.828 175.788 178.714C169.928 180.873 164.121 182.649 158.363 185.106C154.754 186.644 148.469 189.728 146.085 185.158C141.242 175.877 158.767 163.671 163.57 157.997C166.883 161.611 150.545 175.078 151.824 180.34C152.828 184.475 156.715 179.135 158.591 178.009C161.624 176.187 165.216 175.271 168.263 173.193C174.515 168.93 181.927 164.014 183.354 155.201C182.361 154.024 182.373 152.937 183.391 151.941C183.844 151.336 184.204 150.671 184.469 149.946C184.914 148.561 185.092 146.827 185.331 145.358C186.034 141.019 184.268 136.955 185.919 132.708C176.284 140.907 167.024 150.169 157.878 159.045C149.675 167.007 141.115 177.432 138.101 189.312C137.715 190.834 137.073 192.561 137.143 194.167C137.28 197.321 137.561 196.641 139.823 197.655C142.085 198.67 145.38 198.582 147.813 198.69C149.199 198.75 155.393 197.101 154.162 200.519C153.452 202.49 149.158 202.415 147.621 202.597C143.763 203.055 141.67 202.585 143.498 207.283C144.317 209.388 145.978 210.815 147.28 212.444C150.904 216.977 152.872 223.931 155.723 229.257C158.971 235.325 162.542 241.095 166.336 246.746C167.901 249.077 169.993 253.46 172.163 255.124C174.19 256.677 171.806 256.549 175.172 255.917C176.639 255.643 177.968 254.571 179.372 254.187C187.763 251.891 196.388 249.303 205.066 246.469C216.166 242.844 227.814 239.752 238.404 234.532C247.891 229.854 257.307 224.285 266.894 219.547C269.693 218.165 272.489 217.248 274.665 214.704C277.291 211.633 279.466 207.612 281.888 204.311C286.008 198.695 289.805 192.984 294.239 187.662C297.54 183.702 303.389 176.342 308.046 174.761C316.895 171.759 312.158 186.897 311.014 190.723C313.095 191.253 314.188 188.256 316.629 189.118C319.552 190.151 319.854 194.517 320.22 197.253C320.317 197.981 319.439 199.344 319.706 199.994C319.797 200.215 321.704 201.482 322.072 202.069C323.407 204.202 323.145 206.795 322.639 209.095C320.02 221.009 310.712 229.709 303.867 238.497C306.93 237.846 309.2 235.886 312.091 234.915C314.804 234.003 317.532 234.051 320.267 233.789C323.13 233.516 325.88 232.312 328.81 232.251C331.884 232.187 334.827 233.17 337.875 233.56Z" fill="black"/>
<path fill-rule="evenodd" clip-rule="evenodd" d="M14.1333 126.398C12.4452 127.638 11.9694 128.853 11.9111 131.712C11.8878 132.885 11.9598 137.259 13.4188 137.094C14.788 136.94 14.1333 127.902 14.1333 126.398ZM5.41343 133.523C6.19998 124.36 9.18459 115.043 16.2057 109.334C17.9421 107.922 19.9063 107.972 21.8094 107.081C22.9531 106.546 24.76 104.058 26.0584 104.353C30.838 105.439 25.3161 112.572 24.5075 114.449C22.0015 120.262 22.1707 125.37 22.2456 131.642C22.3026 136.409 23.1843 144.444 21.0449 148.758C18.7644 153.352 13.818 150.369 11.057 147.65C7.57243 144.217 4.94067 138.751 5.41343 133.523Z" fill="black"/>
<path fill-rule="evenodd" clip-rule="evenodd" d="M89.3189 160.601C89.3189 165.714 93.0135 162.252 92.8819 158.616C92.6884 153.261 89.1462 156.558 89.3189 160.601ZM108.961 132.335C104.918 136.419 101.798 138.711 101.019 144.993C100.429 149.75 101.015 154.462 101.04 159.255C101.083 167.288 95.307 175.734 89.092 166.525C84.5585 159.809 86.1846 149.247 89.8816 142.497C91.8215 138.955 94.5907 135.452 97.7899 133.245C100.196 131.584 106.965 128.315 108.961 132.335Z" fill="black"/>
<path fill-rule="evenodd" clip-rule="evenodd" d="M52.4868 256.141C52.0182 257.387 50.9173 262.474 53.1632 261.323C55.1454 260.307 53.861 256.935 52.4868 256.141ZM40.6219 240.436C40.2753 238.524 40.4165 226.532 43.3572 227.432C45.6669 228.137 46.0485 234.275 46.9893 236.411C50.4933 244.366 58.5357 249.32 61.3092 257.53C64.4047 266.699 55.0453 266.984 50.0789 263.271C44.1986 258.874 40.7963 248.109 40.6219 240.436Z" fill="black"/>
<path fill-rule="evenodd" clip-rule="evenodd" d="M33.4133 191.27C34.6893 189.334 34.8185 188.3 34.0909 186.588C33.1608 187.724 33.3258 189.348 33.4133 191.27ZM34.3368 199.927C27.6836 200.764 27.3505 186.993 28.4898 182.265C29.3972 178.499 31.3478 174.453 33.3561 171.384C33.7616 170.765 37.6081 165.201 38.3619 165.188C41.2556 165.137 40.4607 168.809 40.1481 170.176C39.1651 174.483 38.7757 178.082 39.04 182.857C39.3241 187.966 41.4783 200.097 34.3368 199.927Z" fill="black"/>
<path fill-rule="evenodd" clip-rule="evenodd" d="M336.412 80.6663C326.899 89.6272 317.868 99.3284 307.523 107.166C302.462 111.002 297.17 114.396 292.119 118.294C289.547 120.28 286.922 122.057 284.069 123.517C281.548 124.806 279.9 124.974 281.991 121.914C283.389 119.869 286.523 118.445 288.428 116.991C291.358 114.753 294.126 112.27 297.21 110.285C302.645 106.783 308.047 103.955 313.057 99.6601C317.504 95.8488 322.092 92.1277 326.336 88.0769C328.156 86.3401 334.19 78.3657 336.412 80.6663Z" fill="black"/>
<path fill-rule="evenodd" clip-rule="evenodd" d="M336.605 113.023C340.883 117.133 330.179 128.394 327.738 130.946C325.164 133.638 322.329 136.039 319.529 138.423C318.544 139.263 313.167 144.883 311.803 144.429C309.11 143.534 312.645 139.888 313.565 138.937C316.537 135.858 319.574 132.87 322.481 129.708C325.103 126.859 327.942 124.221 330.477 121.28C332.53 118.897 334.256 114.859 336.605 113.023Z" fill="black"/>
<path fill-rule="evenodd" clip-rule="evenodd" d="M19.6482 278.716C18.5312 275.809 16.5308 279.037 17.5449 280.489C18.5041 281.863 19.5054 279.275 19.6482 278.716ZM13.0986 272.976C13.6974 268.701 15.0813 266.325 18.6518 269.974C21.1052 272.481 26.0395 279.611 25.5713 283.498C24.9567 288.596 19.9575 287.15 17.3659 284.484C14.7096 281.751 13.5369 276.766 13.0986 272.976Z" fill="black"/>
<path fill-rule="evenodd" clip-rule="evenodd" d="M20.9226 357.109C16.5488 356.735 12.8173 352.963 10.9599 348.543C9.3971 344.826 7.91789 338.835 13.4083 340.788C16.9867 342.062 30.7811 357.708 20.9226 357.109Z" fill="black"/>
<path fill-rule="evenodd" clip-rule="evenodd" d="M73.9296 332.876C70.5494 333.741 67.2061 331.24 65.1275 328.42C63.8343 326.664 60.8244 320.508 62.341 317.974C64.4547 314.44 67.6462 321.544 68.7471 322.951C70.4738 325.153 76.1208 329.365 73.9296 332.876Z" fill="black"/>
<path fill-rule="evenodd" clip-rule="evenodd" d="M76.9745 236.746C74.3249 235.365 71.8652 233.703 70.7994 230.404C70.1218 228.304 69.5526 222.005 72.5618 222.033C76.0427 222.068 84.013 236.116 76.9745 236.746Z" fill="black"/>
<path fill-rule="evenodd" clip-rule="evenodd" d="M58.3984 171.209C61.9459 171.137 62.786 173.334 63.279 176.491C63.6143 178.634 65.2392 185.908 63.5517 187.398C61.1403 189.528 57.304 184.649 56.5287 182.734C54.9306 178.791 57.1402 174.912 58.3984 171.209Z" fill="black"/>
<path fill-rule="evenodd" clip-rule="evenodd" d="M119.357 389.319C121.084 390.202 125.014 392.16 123.512 395.197C121.942 398.374 117.434 395.287 115.75 393.899C115.045 393.317 110.567 389.513 110.754 388.238C111.149 385.527 117.323 389.065 119.357 389.319Z" fill="black"/>
<path fill-rule="evenodd" clip-rule="evenodd" d="M5.55309 190.94C6.73345 194.26 8.06212 205.665 1.84645 199.507C-0.0503714 197.627 -0.336648 195.279 0.316881 192.699C1.26187 188.959 2.6371 189.701 5.55309 190.94Z" fill="black"/>
<path fill-rule="evenodd" clip-rule="evenodd" d="M334.947 148.468C333.57 145.309 336.968 143.272 338.784 141.236C339.97 139.907 344.955 132.695 346.589 133.103C349.952 133.941 336.599 147.059 334.947 148.468Z" fill="black"/>
<path fill-rule="evenodd" clip-rule="evenodd" d="M58.3534 377.247C61.5967 376.662 62.3534 380.708 64.4428 382.472C65.3389 383.229 68.4148 383.894 67.7961 385.5C66.1707 389.718 58.1944 380.082 58.3534 377.247Z" fill="black"/>
<path fill-rule="evenodd" clip-rule="evenodd" d="M85.7402 281.683C87.9695 280.635 94.4036 286.265 92.556 288.697C89.7945 292.336 85.8974 283.674 85.7402 281.683Z" fill="black"/>
<path fill-rule="evenodd" clip-rule="evenodd" d="M132.729 363.135C131.104 363.316 124.247 360.896 126.788 357.654C128.571 355.377 133.312 361.074 132.729 363.135Z" fill="black"/>
<path fill-rule="evenodd" clip-rule="evenodd" d="M50.6105 347.581C48.9975 348.305 43.179 346.815 45.0081 343.977C46.7509 341.275 50.6129 345.337 50.6105 347.581Z" fill="black"/>
<path fill-rule="evenodd" clip-rule="evenodd" d="M98.2441 359.826C100.13 359.606 101.493 360.883 101.817 363.046C99.4576 363.424 98.73 362.794 98.2441 359.826Z" fill="black"/>
<path fill-rule="evenodd" clip-rule="evenodd" d="M343.558 45.8047C344.354 45.8087 345.15 45.8134 345.939 45.8175C345.141 45.8128 344.35 45.8087 343.558 45.8047Z" fill="black"/>
<path fill-rule="evenodd" clip-rule="evenodd" d="M331.053 232.062C329.862 232.064 328.671 232.066 327.481 232.068C328.672 232.065 329.863 232.064 331.053 232.062Z" fill="black"/>
<path fill-rule="evenodd" clip-rule="evenodd" d="M168.586 14.0439C168.532 15.383 168.477 16.7222 168.421 18.0566C168.474 16.7164 168.53 15.3796 168.586 14.0439Z" fill="black"/>
<path fill-rule="evenodd" clip-rule="evenodd" d="M537.549 241.428C537.929 242.916 537.372 243.162 535.878 242.167C536.434 241.921 536.991 241.674 537.549 241.428Z" fill="black"/>
<path fill-rule="evenodd" clip-rule="evenodd" d="M503.726 358.123C504.323 358.127 504.921 358.132 505.512 358.136C504.912 358.132 504.319 358.127 503.726 358.123Z" fill="black"/>
<path fill-rule="evenodd" clip-rule="evenodd" d="M390.596 250.473C389.597 251.328 388.604 251.449 387.619 250.428C388.611 250.444 389.603 250.459 390.596 250.473Z" fill="black"/>
<path fill-rule="evenodd" clip-rule="evenodd" d="M368.305 136.43C368.28 137.546 368.255 138.661 368.229 139.774C368.254 138.656 368.28 137.543 368.305 136.43Z" fill="black"/>
<path fill-rule="evenodd" clip-rule="evenodd" d="M419.771 33.238C418.778 33.2374 417.785 33.236 416.794 33.2347C417.787 32.817 418.78 32.9542 419.771 33.238Z" fill="black"/>
<path fill-rule="evenodd" clip-rule="evenodd" d="M128.611 19.6299C127.619 19.6956 126.626 19.7614 125.634 19.8271C126.626 19.7614 127.619 19.6956 128.611 19.6299Z" fill="black"/>
<path fill-rule="evenodd" clip-rule="evenodd" d="M153.023 19.8428C152.23 19.7671 151.435 19.6909 150.642 19.6152C151.435 19.6909 152.228 19.7671 153.023 19.8428Z" fill="black"/>
<path fill-rule="evenodd" clip-rule="evenodd" d="M166.122 20.9023C165.328 21.2349 164.535 21.4317 163.74 20.907C164.535 20.9057 165.328 20.9037 166.122 20.9023Z" fill="black"/>
<path fill-rule="evenodd" clip-rule="evenodd" d="M95.2671 22.7339C94.2739 22.9607 93.282 23.1875 92.29 23.4124C93.2832 23.1875 94.2751 22.9607 95.2671 22.7339Z" fill="black"/>
<path fill-rule="evenodd" clip-rule="evenodd" d="M368.903 294.93C368.876 295.6 368.848 296.269 368.822 296.936C368.85 296.265 368.876 295.597 368.903 294.93Z" fill="black"/>
<path fill-rule="evenodd" clip-rule="evenodd" d="M40.7695 240.759C40.7814 241.205 40.7928 241.652 40.8035 242.096C40.7904 241.648 40.7808 241.203 40.7695 240.759Z" fill="black"/>
<path fill-rule="evenodd" clip-rule="evenodd" d="M541.237 238.36L538.26 238.377C539.25 237.546 540.242 237.651 541.237 238.36Z" fill="black"/>
<path fill-rule="evenodd" clip-rule="evenodd" d="M337.603 233.623C336.808 233.476 336.015 233.329 335.222 233.182C336.015 233.329 336.81 233.476 337.603 233.623Z" fill="black"/>
<path fill-rule="evenodd" clip-rule="evenodd" d="M119.679 389.219C118.687 389.002 117.695 388.784 116.702 388.567L119.679 389.219Z" fill="black"/>
<path fill-rule="evenodd" clip-rule="evenodd" d="M320.066 197.289C320.048 196.619 320.029 195.95 320.011 195.282C320.029 195.952 320.048 196.62 320.066 197.289Z" fill="black"/>
<path fill-rule="evenodd" clip-rule="evenodd" d="M131.588 19.8523C130.993 19.77 130.397 19.6877 129.802 19.6055C130.397 19.6877 130.993 19.77 131.588 19.8523Z" fill="black"/>
<path fill-rule="evenodd" clip-rule="evenodd" d="M229.236 3.31348C228.641 3.11084 228.045 2.9082 227.45 2.70557C228.046 2.9082 228.641 3.11084 229.236 3.31348Z" fill="black"/>
<path fill-rule="evenodd" clip-rule="evenodd" d="M300.092 454.392C300.49 454.419 300.889 454.447 301.283 454.474C300.882 454.447 300.487 454.419 300.092 454.392Z" fill="black"/>
<path fill-rule="evenodd" clip-rule="evenodd" d="M26.7939 95.2734C27.3917 95.2911 27.9895 95.3094 28.5802 95.3277C27.9794 95.3094 27.3867 95.2911 26.7939 95.2734Z" fill="black"/>
<path fill-rule="evenodd" clip-rule="evenodd" d="M426.321 33.8909C425.328 33.8126 424.336 33.7343 423.344 33.6553C424.337 33.7343 425.328 33.8126 426.321 33.8909Z" fill="black"/>
<path fill-rule="evenodd" clip-rule="evenodd" d="M112.534 30.7598C111.141 30.7626 109.751 30.7655 108.366 30.7683C109.762 30.7655 111.148 30.7626 112.534 30.7598Z" fill="black"/>
<path fill-rule="evenodd" clip-rule="evenodd" d="M393.842 168.531C393.86 169.647 393.879 170.763 393.899 171.875C393.881 170.758 393.863 169.644 393.842 168.531Z" fill="black"/>
<path fill-rule="evenodd" clip-rule="evenodd" d="M320.932 407.975C320.135 407.961 319.34 407.947 318.55 407.932C319.348 407.944 320.14 407.96 320.932 407.975Z" fill="black"/>
<path fill-rule="evenodd" clip-rule="evenodd" d="M405.481 53.6313C406.672 53.4827 407.862 53.3341 409.053 53.1855C407.91 54.322 406.676 53.5657 405.481 53.6313Z" fill="black"/>
<path fill-rule="evenodd" clip-rule="evenodd" d="M314.382 408.324C313.785 408.299 313.188 408.273 312.596 408.249C313.195 408.275 313.788 408.299 314.382 408.324Z" fill="black"/>
<path fill-rule="evenodd" clip-rule="evenodd" d="M293.794 419.99C293.824 421.107 293.855 422.223 293.885 423.334C293.856 422.215 293.825 421.103 293.794 419.99Z" fill="black"/>
<path fill-rule="evenodd" clip-rule="evenodd" d="M384.642 94.6973C385.436 94.6144 386.23 94.5315 387.023 94.4492C386.299 95.0764 385.448 94.7093 384.642 94.6973Z" fill="black"/>
<path fill-rule="evenodd" clip-rule="evenodd" d="M124.443 272.614C125.237 272.779 126.031 272.942 126.825 273.105C126.031 272.942 125.237 272.779 124.443 272.614Z" fill="black"/>
<path fill-rule="evenodd" clip-rule="evenodd" d="M248.29 96.6406C249.281 95.6917 250.273 95.7948 251.267 96.6299C250.275 96.6326 249.283 96.6366 248.29 96.6406Z" fill="black"/>
<path fill-rule="evenodd" clip-rule="evenodd" d="M211.033 130.411C211.062 129.965 211.09 129.519 211.12 129.073C211.093 129.52 211.063 129.966 211.033 130.411Z" fill="black"/>
<path fill-rule="evenodd" clip-rule="evenodd" d="M384.331 117.704C384.339 118.598 384.347 119.49 384.356 120.379C384.348 119.484 384.34 118.594 384.331 117.704Z" fill="black"/>
<path fill-rule="evenodd" clip-rule="evenodd" d="M121.635 257.499C122.941 257.997 125.569 259.499 127.091 259.3C128.31 259.14 129.315 257.477 130.49 257.479C133.655 257.483 133.067 261.592 131.538 263.798C127.403 269.764 118.163 263.295 121.635 257.499Z" fill="black"/>
<path fill-rule="evenodd" clip-rule="evenodd" d="M134.551 236.078C138.867 237.329 136.717 247.991 133.09 248.724C128.818 249.588 128.074 240.919 128.917 237.785C131.116 239.252 129.755 244.486 132.525 243.039C134.287 242.118 134.019 237.861 134.551 236.078Z" fill="black"/>
</svg>
